<mxfile host="app.diagrams.net" modified="2024-02-23T02:42:49.925Z" agent="Mozilla/5.0 (Macintosh; Intel Mac OS X 10_15_7) AppleWebKit/537.36 (KHTML, like Gecko) Chrome/121.0.0.0 Safari/537.36" etag="ChvbXjOPozJUFHyUZI_O" version="23.1.5" type="github">
  <diagram name="第 1 页" id="2dR_e4wsTTVk7lMrzn7h">
    <mxGraphModel dx="1092" dy="558" grid="1" gridSize="10" guides="1" tooltips="1" connect="1" arrows="1" fold="1" page="1" pageScale="1" pageWidth="827" pageHeight="1169" math="0" shadow="0">
      <root>
        <mxCell id="0" />
        <mxCell id="1" parent="0" />
        <mxCell id="ijLZN3aR-J_GT7r1RHbC-44" value="" style="edgeStyle=orthogonalEdgeStyle;rounded=0;orthogonalLoop=1;jettySize=auto;html=1;" edge="1" parent="1" source="ijLZN3aR-J_GT7r1RHbC-17">
          <mxGeometry relative="1" as="geometry">
            <mxPoint x="550" y="280" as="targetPoint" />
          </mxGeometry>
        </mxCell>
        <mxCell id="ijLZN3aR-J_GT7r1RHbC-45" value="现状" style="edgeLabel;html=1;align=center;verticalAlign=middle;resizable=0;points=[];" vertex="1" connectable="0" parent="ijLZN3aR-J_GT7r1RHbC-44">
          <mxGeometry x="-0.0425" y="1" relative="1" as="geometry">
            <mxPoint as="offset" />
          </mxGeometry>
        </mxCell>
        <mxCell id="ijLZN3aR-J_GT7r1RHbC-17" value="设计依据不同的画布尺寸，出了相应的基础组件设计稿&lt;br&gt;端侧根据宽度来进行，实现相应的基础组件默认样式" style="text;html=1;align=center;verticalAlign=middle;resizable=0;points=[];autosize=1;strokeColor=none;fillColor=none;" vertex="1" parent="1">
          <mxGeometry x="160" y="260" width="310" height="40" as="geometry" />
        </mxCell>
        <mxCell id="ijLZN3aR-J_GT7r1RHbC-19" value="业务设计师出了720*1440的设计稿，相应业务开发者设置了720*1440的画布进行开发。" style="text;html=1;align=center;verticalAlign=middle;resizable=0;points=[];autosize=1;strokeColor=none;fillColor=none;" vertex="1" parent="1">
          <mxGeometry x="60" y="348" width="490" height="30" as="geometry" />
        </mxCell>
        <mxCell id="ijLZN3aR-J_GT7r1RHbC-20" value="下面有两种情况：&lt;br&gt;1. 用户将产物安装至720宽度机器上，&lt;br&gt;2.用户将产物安装至480宽度机器上" style="text;html=1;align=left;verticalAlign=middle;resizable=0;points=[];autosize=1;strokeColor=none;fillColor=none;" vertex="1" parent="1">
          <mxGeometry x="209" y="413" width="220" height="60" as="geometry" />
        </mxCell>
        <mxCell id="ijLZN3aR-J_GT7r1RHbC-25" value="" style="edgeStyle=orthogonalEdgeStyle;rounded=0;orthogonalLoop=1;jettySize=auto;html=1;entryX=0.25;entryY=0;entryDx=0;entryDy=0;exitX=0.5;exitY=1;exitDx=0;exitDy=0;" edge="1" parent="1" source="ijLZN3aR-J_GT7r1RHbC-30" target="ijLZN3aR-J_GT7r1RHbC-24">
          <mxGeometry relative="1" as="geometry">
            <mxPoint x="220.00000000000023" y="585" as="sourcePoint" />
          </mxGeometry>
        </mxCell>
        <mxCell id="ijLZN3aR-J_GT7r1RHbC-24" value="计算出端侧使用的换算关系&lt;br&gt;widthPixel / baseline" style="whiteSpace=wrap;html=1;" vertex="1" parent="1">
          <mxGeometry x="259" y="700" width="160" height="60" as="geometry" />
        </mxCell>
        <mxCell id="ijLZN3aR-J_GT7r1RHbC-28" style="edgeStyle=orthogonalEdgeStyle;rounded=0;orthogonalLoop=1;jettySize=auto;html=1;entryX=0.75;entryY=0;entryDx=0;entryDy=0;exitX=0.5;exitY=1;exitDx=0;exitDy=0;" edge="1" parent="1" source="ijLZN3aR-J_GT7r1RHbC-29" target="ijLZN3aR-J_GT7r1RHbC-24">
          <mxGeometry relative="1" as="geometry">
            <mxPoint x="441" y="590" as="sourcePoint" />
          </mxGeometry>
        </mxCell>
        <mxCell id="ijLZN3aR-J_GT7r1RHbC-27" value="这里有几个名词需要确认：屏幕尺寸、屏幕分辨率&lt;br&gt;那就有一个问题了，画布到底是屏幕尺寸还是屏幕分辨率&lt;br&gt;目前端侧将他认为屏幕分辨率。" style="text;html=1;align=center;verticalAlign=middle;resizable=0;points=[];autosize=1;strokeColor=none;fillColor=none;" vertex="1" parent="1">
          <mxGeometry x="109" y="155" width="320" height="60" as="geometry" />
        </mxCell>
        <mxCell id="ijLZN3aR-J_GT7r1RHbC-29" value="&lt;span style=&quot;color: rgb(0, 0, 0); font-family: Helvetica; font-size: 12px; font-style: normal; font-variant-ligatures: normal; font-variant-caps: normal; font-weight: 400; letter-spacing: normal; orphans: 2; text-align: center; text-indent: 0px; text-transform: none; widows: 2; word-spacing: 0px; -webkit-text-stroke-width: 0px; background-color: rgb(251, 251, 251); text-decoration-thickness: initial; text-decoration-style: initial; text-decoration-color: initial; float: none; display: inline !important;&quot;&gt;获取目前机器的分辨率&lt;br&gt;widthPixel&lt;br&gt;&lt;/span&gt;" style="text;whiteSpace=wrap;html=1;" vertex="1" parent="1">
          <mxGeometry x="390" y="545" width="140" height="40" as="geometry" />
        </mxCell>
        <mxCell id="ijLZN3aR-J_GT7r1RHbC-30" value="&lt;span style=&quot;color: rgb(0, 0, 0); font-family: Helvetica; font-size: 12px; font-style: normal; font-variant-ligatures: normal; font-variant-caps: normal; font-weight: 400; letter-spacing: normal; orphans: 2; text-align: center; text-indent: 0px; text-transform: none; widows: 2; word-spacing: 0px; -webkit-text-stroke-width: 0px; background-color: rgb(251, 251, 251); text-decoration-thickness: initial; text-decoration-style: initial; text-decoration-color: initial; float: none; display: inline !important;&quot;&gt;接收到scheme baseline&lt;/span&gt;" style="text;whiteSpace=wrap;html=1;" vertex="1" parent="1">
          <mxGeometry x="140" y="545" width="140" height="40" as="geometry" />
        </mxCell>
        <mxCell id="ijLZN3aR-J_GT7r1RHbC-42" value="" style="edgeStyle=orthogonalEdgeStyle;rounded=0;orthogonalLoop=1;jettySize=auto;html=1;" edge="1" parent="1" source="ijLZN3aR-J_GT7r1RHbC-34" target="ijLZN3aR-J_GT7r1RHbC-41">
          <mxGeometry relative="1" as="geometry" />
        </mxCell>
        <mxCell id="ijLZN3aR-J_GT7r1RHbC-34" value="100px * （widthPixel / baseline）" style="whiteSpace=wrap;html=1;" vertex="1" parent="1">
          <mxGeometry x="230" y="800" width="200" height="60" as="geometry" />
        </mxCell>
        <mxCell id="ijLZN3aR-J_GT7r1RHbC-38" value="" style="edgeStyle=none;orthogonalLoop=1;jettySize=auto;html=1;rounded=0;entryX=0;entryY=0.5;entryDx=0;entryDy=0;" edge="1" parent="1" target="ijLZN3aR-J_GT7r1RHbC-34">
          <mxGeometry width="100" relative="1" as="geometry">
            <mxPoint x="50" y="830" as="sourcePoint" />
            <mxPoint x="150" y="830" as="targetPoint" />
            <Array as="points" />
          </mxGeometry>
        </mxCell>
        <mxCell id="ijLZN3aR-J_GT7r1RHbC-39" value="换算100px" style="edgeLabel;html=1;align=center;verticalAlign=middle;resizable=0;points=[];" vertex="1" connectable="0" parent="ijLZN3aR-J_GT7r1RHbC-38">
          <mxGeometry x="0.2234" y="-1" relative="1" as="geometry">
            <mxPoint as="offset" />
          </mxGeometry>
        </mxCell>
        <mxCell id="ijLZN3aR-J_GT7r1RHbC-41" value="得到对应的值设置到具体组件中" style="whiteSpace=wrap;html=1;" vertex="1" parent="1">
          <mxGeometry x="550" y="800" width="120" height="60" as="geometry" />
        </mxCell>
        <mxCell id="ijLZN3aR-J_GT7r1RHbC-49" value="将当前适配所有机型分为横屏和竖屏，&lt;br&gt;区分依据为画布尺寸宽度小于1080为竖屏&lt;br&gt;否则为横屏&lt;br&gt;以掌银当时出的基础组件设计稿作为横屏设备基础组件的默认样式&lt;br&gt;竖屏的默认样式基于横屏的默认样式尺寸缩小一半。&lt;br&gt;&lt;div&gt;&lt;br&gt;&lt;/div&gt;" style="text;html=1;align=center;verticalAlign=middle;resizable=0;points=[];autosize=1;strokeColor=none;fillColor=none;" vertex="1" parent="1">
          <mxGeometry x="570" y="230" width="370" height="100" as="geometry" />
        </mxCell>
        <mxCell id="ijLZN3aR-J_GT7r1RHbC-50" value="我认为比较全面的处理多分辨率适配的方案是：划分不同的分辨率区间，不同分辨率区间出不同的设计稿，相同区间内通过端侧的换算能力适配" style="text;html=1;align=center;verticalAlign=middle;resizable=0;points=[];autosize=1;strokeColor=none;fillColor=none;" vertex="1" parent="1">
          <mxGeometry x="40" y="910" width="780" height="30" as="geometry" />
        </mxCell>
        <mxCell id="ijLZN3aR-J_GT7r1RHbC-51" value="下面问题来了：需要考虑屏幕像素密度吗？" style="text;html=1;align=center;verticalAlign=middle;resizable=0;points=[];autosize=1;strokeColor=none;fillColor=none;" vertex="1" parent="1">
          <mxGeometry x="240" y="1010" width="250" height="30" as="geometry" />
        </mxCell>
        <mxCell id="ijLZN3aR-J_GT7r1RHbC-52" value="先确定一个事情，当720画布的内容，在1080的设备上运行，期望是达到怎么样的效果？&lt;br&gt;期望的效果是画布内容等比显示在设备中" style="text;html=1;align=center;verticalAlign=middle;resizable=0;points=[];autosize=1;strokeColor=none;fillColor=none;" vertex="1" parent="1">
          <mxGeometry x="140" y="1550" width="490" height="40" as="geometry" />
        </mxCell>
        <mxCell id="ijLZN3aR-J_GT7r1RHbC-53" value="" style="endArrow=none;html=1;rounded=0;" edge="1" parent="1">
          <mxGeometry width="50" height="50" relative="1" as="geometry">
            <mxPoint x="30" y="980" as="sourcePoint" />
            <mxPoint x="910" y="980" as="targetPoint" />
          </mxGeometry>
        </mxCell>
        <mxCell id="ijLZN3aR-J_GT7r1RHbC-55" value="&lt;font color=&quot;#cc0000&quot;&gt;考虑一种case，组件尺寸不变，改变画布尺寸，组件该如何展示&lt;/font&gt;" style="text;html=1;align=center;verticalAlign=middle;resizable=0;points=[];autosize=1;strokeColor=none;fillColor=none;" vertex="1" parent="1">
          <mxGeometry x="760" y="1520" width="360" height="30" as="geometry" />
        </mxCell>
        <mxCell id="ijLZN3aR-J_GT7r1RHbC-59" value="" style="shape=image;verticalLabelPosition=bottom;labelBackgroundColor=default;verticalAlign=top;aspect=fixed;imageAspect=0;image=data:image/png,iVBORw0KGgoAAAANSUhEUgAAApsAAAH7CAYAAACDjlSjAAABSGlDQ1BJQ0MgUHJvZmlsZQAAKJFjYGASSSwoyGFhYGDIzSspCnJ3UoiIjFJgf8HAxCDMwMlgxKCYmFxc4BgQ4ANUwgCjUcG3awyMIPqyLsistQ+0xBdu+/Dv/6xLAicKXstiqkcBXCmpxclA+g8QpycXFJUwMDCmANnK5SUFIHYHkC1SBHQUkD0HxE6HsDeA2EkQ9hGwmpAgZyD7BpAtkJyRCDSD8QWQrZOEJJ6OxIbaCwK8Lq4+PgrBRuZGhi7BBNxLMihJrSgB0c75BZVFmekZJQqOwFBKVfDMS9bTUTAyMDJhYACFOUT15xvgsGQU40CIFWYzMFh8YWBgUkaIJWgwMOzsZmAQ1USIqQL9xtvEwLD7QUFiUSLcAYzfWIrTjI0gbO7tDAys0/7//xzOwMCuycDw9/r//7+3////dxkDA/MtBoYD3wDC5GGMtTB55QAAADhlWElmTU0AKgAAAAgAAYdpAAQAAAABAAAAGgAAAAAAAqACAAQAAAABAAACm6ADAAQAAAABAAAB+wAAAACJF8LSAABAAElEQVR4Aezd2a9tWVU/8I3KDwVUkB6BugVVRSEIKDYPPmuI0RejPvhi4h+hPvpgok8a/wTjg4lRo8bYGzU20dgSSpqiCm4VFK00itgrv/tZVd/LYLLP3nPes9c63RzJOmvNOccczXd2Y6019zrPeuojH//8btJEYCIwEZgITAQmAhOBicBEYAUEnvX5O7SC3ClyIjARmAhMBCYCE4GJwERgIrD7sonBRGAiMBGYCEwEJgITgYnARGAtBGawuRayU+5EYCIwEZgITAQmAhOBicB8sjn7wERgIjARmAhMBCYCE4GJwHoIzCeb62E7JU8EJgITgYnARGAiMBG48QjMYPPGd4EJwERgIjARmAhMBCYCE4H1EJjB5nrYTskTgYnARGAiMBGYCEwEbjwCM9i88V1gAjARmAhMBCYCE4GJwERgPQRmsLketlPyRGAiMBGYCEwEJgITgRuPwAw2b3wXmABMBCYCE4GJwERgIjARWA+BGWyuh+2UPBGYCEwEJgITgYnARODGIzCDzRvfBSYAE4GJwERgIjARmAhMBNZDYAab62E7JU8EJgITgYnARGAiMBG48QjMYPPGd4EJwERgIjARmAhMBCYCE4H1EJjB5nrYTskTgYnARGAiMBGYCEwEbjwCM9i88V1gAjARmAhMBCYCE4GJwERgPQRmsLketlPyRGAiMBGYCEwEJgITgRuPwAw2b3wXmABMBCYCE4GJwERgIjARWA+BGWyuh+2UPBGYCEwEJgITgYnARODGIzCDzRvfBSYAE4GJwERgIjARmAhMBNZDYAab62E7JU8EJgITgYnARGAiMBG48QjMYPPGd4EJwERgIjARmAhMBCYCE4H1EJjB5nrYTskTgYnARGAiMBGYCEwEbjwCM9i88V1gAjARmAhMBCYCE4GJwERgPQRmsLketlPyRGAiMBGYCEwEJgITgRuPwAw2b3wXmABMBCYCE4GJwERgIjARWA+Br1hP9JS8NQKf//znd//3f/+3+4//+I/l+Pd///fd//7v/+6e9axnndQUOhxf8RUX1334hb78y7/8pL6NCGMDzC8Sh//5n//ZfdmXfdlyjNh+Kt41+wJs0Vd+5VfunvOc5yznZz/72Yuvp+7Tp8LjKsiBq777X//1X8vxb//2b7v//M//3OlLPeNJ/f/+7//e/b//9/+ugruXwkZ492DLWO3QO6doB2Oih3rlal/jusdefMgcdIxggG+NsUu2OcLx/Oc/f8EELmvoOubnLN+PwMVFC/vtmbn3gIAJ55//+Z93n/zkJ3cWjk9/+tPL4mGgmQwMxEkTgauIgEU3C59F5Ku/+qt3L3zhC3cvetGLds973vOuoksXZjMcP/OZzyzzxL/8y78sc4YgM0F9goxTG2geio5jstfiPaZ37fK1/LoMctfGrkd+AmP9TMBpbnjBC16wzBXOblgnXSwCz7rTOE8/PrhYO6b2e0BAkPnhD39498QTT+zyFPMexHRVGZnUugROpmuPwFp9hlxPLSwit27d2r34xS++9liex0E3mx/96Ed3H/nIR5ZA0xPNLM7nkTvrXk0E1hqXp0LjlPZlrrjvvvt2r3zlK+cN6qka6R7kzGDzHkC76Cqf+9zndh/60Id2H/zgB5fXYBdtz9Q/EbgoBDz5fO5zn7t74IEHdi996Uu7XuddlK1b6xVUCjDNE5/97Ge7ny5ubefUNxHYAgE3qC972ct2999///KqXSA6aTsEZrC5HdYn0fTxj3989573vGdZPAicA+YksE4hVxgBL2cEnS9/+ct3Dz/88PIa7Qq7cxLTbat573vfu/vEJz4x54iTIDqFXHUE8hLXzak3Io65fm7XqjPY3A7rc2nyKuzxxx/ffeADH5h7MM+F5Kx8XREwRuzpfPOb37z7uq/7uuvq5kG/7Mv81Kc+tXvHO96x/EhwLqYH4ZqFNxABY8Qh2HRzOn/otk0nmMHmNjifS4tN/J5SeHU+aSIwETgbAYuIJxcPPfTQsker51eyZ0u7WiV+bXz79u3do48+urwyn4Hm1Wq/ae22CHjS6bX6m970pvkDog2gn8HmBiCfR4UfAb3zne9cNvifR86sOxG4SQhYSN74xjcuTy9uit+CzMcee+ymuDv9nAicGwE3p3kb4isXk9ZD4PjHsdbTPSUfQUCg+cgjjyy/OD/COosnAhOBgoCnerac/NM//VPJvZ6Xtg+8733vW95+ZF/a9fR0ejUROC0C3nz4DJgHOn5EN2k9BOaTzfWwPZdkd1wCzSeffHLZxHyTX4ndZN/P1YnuVL7JwQffv+qrvmr3Td/0Tcv39s6L5WWt79fmFsubTmt9MPwm4Gq9uclzBf/9wNBcMT8Ltk6Pnx91XwfXc0v1RMa38W7SnrN9oBn49qJdZzLRrdHO+SD6TV1E3KT4TNjf/d3f7b7jO77jWu7L8jTGfu6bTvq6f2jhe8OTxhDwSSCvkm9ywGn+9ZkwH4N/wxveMAbg5O5CYAabXTBty2TCtP/qugdZx1AVJHlq4z8iTRpHwK8sX/WqVy0/mLmpAaebFf++1T8+ePDBB1cJ6sdb5jQ1zA/vete7lgDrJj+NESj4Bb4fUNp6tMaN22la7PJK+dqv/drda17zmuUt2k2eK7xJ9L1e/6Fs0mkRmMHmafE8iTRPKvxbuZs8aVo886/1burkd97O5KmX77L67xk3mTzh9NQCDtfp39Z97GMfW76jeZMDzfRrb4FmoBk0xs/+1bH/yCXovMnkBs6NKSzmuDptT5jB5mnxPLc0H2N+6qmnrmygaWE/VXCY1zpzz+a9dSs3KzCctNv967/+6/KDId/Vuw79yX8H8hTmOtyQnnfOgIHX6OhUc89NGzPa4Dr0pfO2GxzcuHgj5AnnpNMhMIPN02F5bkl+VequyoR5VRfEU032sHj+85+/HH4teFXxOHenOIcAC7DXQbA7Vbucw5wLrQoDwdkrXvGK5anFhRpzAuVuSo2L60Dn7ZtuqLSrOUMQPmkMAU/wfPbHfHvethjTfDm59Sf/QOXFL37xDMBP2EQz2DwhmOcV5TWQV58XcYdpMabX2aR9GSYdk6D/Y2vjP2wmjSHgl9iO+XTz6X/r6p8jCDi/5mu+5kLG2FjrHeb29MU43ZrMD/X14mWYK/RvP+x44IEH5jxxDx1Ce9rffRH96R7MXb2KddDvBGwteMlLXrK6vpuiYAabl6il7VHc+mmFxUNg6TVjfsnpDvey7G1jn+Bg0jgCFuEZaH4BN096LSCCTkH4VSU/eLJf8yLI/OSpqn7lV8z+Lai54qJvTtljrnjOc55zEbBceZ0z0PzSJjRXeLqpX006PwIz2Dw/hieToHNvPWmbZD784Q8vP8bJhONO1yDzampre/aBGbv2lc28icAIAgJNN1ZXOdh0U7r162JPe/zIyg/OjMe8fWHLq1/96uWHJZdhnF6G+WqkP07ey4uAvu0HQ26qJp0fgfkfhM6P4UkkmCQ9MdhyshRU+p6ng14LiMNTAguL4DeLykmcnEImAheMgH5+1T+lZbxuGdiZJ2zv8TQVftKe9jgEvfaZW5TnE6AL7txT/UkRcGPqmHQaBGaweRoczy3FK2zB5lZkYbAP0sLbBpTK5HmKMfdKbtUiU88WCAiWvIa+qmTxMy7bMbumPzDLjXAbULJDwOkpUFu2pk1T9kRgbQT06xlsng7lGWyeDst7lpSnLc5bTdj0eDriicQ+sogYaPOJxT50Zt5VRiCfybmKPlgAHVvNEzAyL2U/91mYzZvSs5CZ+VcVgewDvqr2Xza7Z7B5CVpE0Gcf2ZaUwPasJyTKLcrKXU+aCFwXBPzI5Sr3acHm1nToR0AC38vyg8KtcZn6ri8CHrTYsjLpNAjMYPM0OJ5Lik7t8z5bksXW5y7yP3GrbmUCYL80xTNpInCdEPBK+Ko+ifO05awbxDXbyA8GzQVtkG6eMIf4zzNt2Zr2TNkTgbURcBN1lbfcrI3PqPwZbI4itgK/Sfoi9obQ+7KXvWz5Za7FVzqv1n1u6JWvfOUK3k6RE4GLQ0Af98T+qr5KN063th1mz33uc3cvf/nLlzmCDTl8asiv0RG+SROB64TARdzYXSf8qi/z00cVjRt2bXGwWDz44IPL/1jO01Xf2fRUE80F5IZ1ihvg7lVfQC5iTLoJ9XTTJ6NsQ5D26txNqSeenrhOmghcNwTm9pDTtegMNk+H5ZWUZJHwKRNPLVBdyOr1lXRuGj0RmAicDAFzhSecDnNDfqQ0A82TQTwFXTIE3FRNOg0CM9g8DY5XWsoMKq90803jJwKbIVDninq9mQFT0bkQcIMw2+1cEM7K94jA3LN5j8DNahOBicBEYCIwEbhKCMxA8yq11vWydQab16s9pzcTgYnARGAiMBGYCEwELhUCM9i8VM0xjZkITAQmAhOBicBEYCJwvRCYweb1as/pzURgIjARmAhMBCYCE4FLhcD8gdClao5pzERgIjAR2B4Bvyj345H669v2xyQ17QsW6hzbA6iOT01FbpXBy5puedvyigpeR88v4fOpq7N4qw3HeGNDq7/K2Gc3ubAKXi1/5Dq3vClr60jjTTvsK6/6Km9knnUO7yGZ6ipHVU+ul4LyZ0Rm9JKV64hq0/pi7AjPPF8+BGaweYnaJAPrFCb56HIG5Z/+6Z/uPv3pT3+JWOX++4fva571P9JrJd/k9NmTfbIqX659g89/YOj593q+1eebZr7h10MvfOELl//X3PMfHnwEm92f/exn706Kh3S84AUvWGT3fmgfP7vPWsy0q8NkC2949Mp+0YtetOB9luzqB/y06bH/Y60OW8j+xCc+UUWcea3t4fi5z33uTJ4UmPz9R5lPfepTyTp4Zrf2r23P3+/+7u9evuvoml/k3nTSbsbqqbAgC7Z/8id/snvrW9+6+7Vf+7VlnMjzXc2PfexjC+TS2lT7u/YdXu3i3+zqb/Ke97znfVHffvazn73UYSs5+hAZ+hx+vhg7+glZ+sHrXve63Xve8567walxbtwqR74BbCyxmz7jnyw8iC5jTF/KfEom/XhS/pnPfObuXMAXc6BxSb76+AXIZPPDkX8p7Fuj+fxT5hR1yMSP/LMMMtJ3X/WqVy3lZLCLX+aAzF9wMWcrh7trdatfZH70ox9d5BuL5lf+mI/hwY/637HIUUYfbF/ykpcsadjAng/ksBtpH3xs0C7qvvSlL1384JdD/ic/+cmF3x8y4cZO9tIJy/QJ8tSTpy5/s4bgN+754d9CsikyYR85mQNzw0IO7DKH/uAP/uDiOyzIJ9Mx6XIhMIPNS9IeBr3BZ8CchwxIMkwwJnGT1j/8wz/sPvjBD96d+JQZ2M4mOZNLBrJ8dqCc5ZkwTEYm2kw2mRyUpb56yTcpmDCyIOALkS2dPLIdmfgiA3/scJ18ExC7M6lFDh5+OYIDbC1MVbZydWK3a/x0sduiajKLPuXqxJbk02fhMDErSz5+6eiR7zoBeDAJfytbfWQy//jHP/5FstVhdyubjxadYBKdZMVPedIOC8lHPvKRRU7yyUTxMxhqGwuuhUrdyMarTmzBjyx87EaR7RpfZCc/si2UKDq//du/fdFlIYcb37TlTSb4wcD5PJRAR+D3m7/5m0tA8cgjj+w+/OEPL/K1Mbw/9KEP3W1b/cV4lv/444/fvXFKfzI3GDfp29pMEJJxym6BhnJtrJ4gIwGVfqDM/EIPSrCUPoNfX9bH8dOhHyWfXONRfRixlXxzIX420KFvKiM3N38wMU/yI4GMPi9wISv905ypT2Z+JYNfbEqQo77AUD0ypI0dtrtOgJ02JFt9tj311FNL0EuWfPaxmx/BBXZ8SODIN/7AKzeEcDf/06ns9u3biz3yBIFshhc57KQvwb15gZ3mTHoTNMrTR0JsY7Mz++OHNnGQqYzdTz755NJe9OKTBxt448GPlAWr+BV+WOsfeDOn/dIv/dJiPxkPP/zw7lu/9VsXe/ky6fIgcLNn7svTDstkYODfKxmEJiAD/r3vfe/u7//+73d//Md/vEymKcsiZWKRFzKwTSIoA9hgZk/45AtmfPw9wWblr7ZHBj0mIpNe1Uk2WxH5ykxAAsjIjgw8+2TLIzsBZPjJzaQVnSY8d9xkJ8+52kFPlWHiamXDj/yKiXomTJO8CT3y8eEPb/x0NtnDHEUnf9gT/uTDhR3qRLZ6ZKPkOVt4yYns6CQXf2Q6y9OeJnGyUcqr7MhnB/66+Csjh85qt3Qwqfl07POTbMFp2j46f+zHfuwuht/7vd+7+7Zv+7bd13/91y+y6b2JBJvzkPrmCPPDr//6r+/+8R//8a44/UawpR9Y5N/0pjftHn300aWPwVu+4NO4Q/fff//SN/UJZG4wbgRSSFCmXT/wgQ8saQHaK17xikWmDH3BEz/BlbGDtLEnm2ykU7ngJuXq66+CS+Rf6uqvAhmk38nLzbVA5rWvfe0yJ6b81q1bu/e///13+ztf2ZDxro8JsDKOzB3mkARZ0gLvd73rXYtO9aVrYA6723eCO/Mq+zxdNS+H2MjHYEcnv3KDBivBUvwyRmChPRCd8H7iiScicvfGN75xSZtvEZ3k8QW5cYVjdKrvSe5jjz22lJs/1GU3Moc98MADS/upB4OHHnrorg142GzcBqv77rtvuY4OOvW5tBcdfH33u9+t+jLvwy465Wkv7QE7fYRfsMsaBTvzVoJqfiDBvSf0v/zLv7z7/u///sVW/x2PjEkXj8AMNi++Dc5tgUXAgDbx/MZv/MYycDOBHBJuMrEgmChMfMcIvwGfSfkYvyeEJq8efvYLZnp46WWHSbSH3125yRsvPcfIAmki65FNlsW3Bm2H5LOjBsmHeJVZvMl2PkYWNUeP3SZgCwjeBJuH5Gt7i38WkUO8bKhBxyHelAkKDtn9C7/wC7s/+qM/WgKc7/qu79p94zd+493ANTLm+TACaeef+ZmfWYIxgdkh0uZ4zup7PQE/HkduOlp9dLR0TO6+OlXGeetXWa6PycNTbdqHay3vkblPhnqVeuyq/D3X1U7BJR2H9Owrq3lVXo/+fTxkmFMSbOKpculr+9dv/dZv7X77t39798M//MPLk84ZcO5Ddtu8GWxui/fJtRlkFpEf+IEfWAIpwYw7xV6qE8OxOgZ4O6iP1RkpH5F9mSaPOvGN+HtqXgtUry3avZc3dqbOsYB9VG5vW3py5OmSp1Y//uM/vjzBim3zfBwBT7l+7ud+bnma6UbQU61KgouQG1g3XAk0tbnFvra9djs0f6jrJraO6xpE6Sdt23u12vLX/tTym/sqP/vbtKeCofiRtLObP/6Gqo3y3JRVv6XbwEcwFOJ35d+nk08VO37lZoAcNrV2uGkO7cOOTdUPvGk/1/RV/OijJwS3yk8eGyKTH+1DCfwVb32otpfyig3eKgNv62eVkX5YseFDxY79VYY6bNfff/Inf3L3i7/4i3e3DMTXed4egS+MkO11T40nQMDA+umf/um7A95ArBPdMRUGey9/O8CPycY/IruXl15+1knumC0jvCbHTLDH5Ka813Z4j8qOjmNnsi2Ea5DJ3ITf6+eoDb1y+ej4+Z//+d13fud37t72trd90WI2qvem8OsXf/M3f7MEE14tZkE3RuEpnVeeFmr5glG8IcGOsWEs6Q/4PZHGp/2yjcN2GGmHQA8v+eoLcr1qVUYvGcrZ58DvtWgCCm8ZUIIN/IhOgQz95Hgrwmb1EpTRoZxdXgdnbLghtwVAPaTctdfW6vshDvmCbWPVK2ty2I7wyHvNa16z4EEfGXDJPCNNh/ryyMOvLgzpElizm51ezSNvmiKDDrJh56jYSXuowG788OGXV+0o/pDNb2k68NIRrGFPh3LXwdCZDvh7rZ0+oW76BFnsZ6e2iE3aMAG+s3L+ps3V0QfwO2ClvnKk/7CHjfxS7tU57NjFBjIiMzjwgxxnvPDA/xM/8RO7H/mRH9m9/vWvn3PFgvDF/JnB5sXgfhKtBqQN/tnrdhKhU8gwApkkhyvOCveMwF//9V/v/KDlR3/0R3dvectblsXlnoXdgIp/9md/tvu93/u9L9oTKAjwi2nzSIILPwyxwAuIBEj2ziE8Aj1zjXJp9W19kGcMOAQItn0ggYQ0HeRb/AUB0njpEIx4Wk2mPDz2fAoa1HF4QiWNEuzKE+wIhsi0J5BNygUfyskTJOKhAz/e2CAdsj3Elp/gIG17ERmCPIFhtpDARV78EtyQJR2ZAiF7COMHPeFnJ7lkZu6GFQz4oQy29EiziR/0BDvXgkPtg98hz3oQrNRTX6AYnYJffrCTD+SSiVzTKY3fIahLn6CPnekT6ugTtjMJzOHa9gmBoXp0spEO52Ch/ZN2RuyCHbvlkZkfY7GJ7dqGXuX08pWdyvQhdqqDH/3hH/7holvgPOliEJjB5sXgfm6tJnETh83QNrvfK2WA32v9U9Vjhwmjl/g/wj/Ca8LKJNVrzwifyXENWrMtybaQw2VNPSO4WGz8+MQTC4vipP0I6M+/+qu/uhQKcJBF3piwoIcEDF5xmleQRd44S8Ck3wqI8urVmbykleGNDkGGPiOPDepXfrLpk+caCUaSzz7ljpTHvuhQR5+Uj+jEy6+MY36FXzk7IkcdgQmfgwV+PsUv/d0RGbDjV/jpUYYfH3mIDjx46Q2/MrwpTxp+0QEH/scGPPp7TbsOv/L4njzy2BO9+KsOZWkT9dlZ+4T2Z6P2c8S3yE+d4C0tYKen2gnb1GGjI+XaTlnSZEg72M0+dpDBFuTsSB18aQPl5oL0HWn1zROC0TyNlj9pWwT6V/dt7ZraDiBg0CO/TPzd3/3dL+I0KA20EeoNrLJg9MrOZN/Dz6cRu8lei8gesQV+vRim7daw3UJiwViDLCi9Po7q12d7ZcOvYpgbrTX7w6g/l4lfn/j93//9uwFHbIPhMcyVa5tQyw/z2hbhq+djPPvarcqs15Fb8+r1vnJ51QfpY3Xa8mPpViZ9x/zeJ7PmtTbT0dIoduRXHdqzlVHLjfn40upOuvInr8pUn5yzSP3Kj6+mI7/NS374a7rVxQblvr7gifeki0FgnZXpYny5UVotIj/7sz97o3yezk4EWgT+/M//fPf2t799+UyPBaUNiFr+m5a20HqiYy+fp0RuRuDkVaO9cF6bSntS5JWnp0AON1teZ3rtaKGXtpdSPcGDp0r4PeV79atfvcDqiZInW14h4yc/r2Y9fZJHn88CpZ08BaSPDV4Dk+lJNTmxU16IDPaQjd/ZkzLXfOWjvYnykTw67dmkh//8wmcORfjVl/YEL3KDmTRb+ILY4yADFuxRBhvy+QaDW7duLfrp9bqZr9GBl0zYqU8HTNlNRvzCJ5+P8mAHAyQPLzvItn1A2pNZsvnFVzrThs748JOnbtqCD/jpxKfN+OkTSukT/JIOwcg2BbjpQ7BW3+eNyCUzctInlLPT00s+6EPylLMbFsqDiz2cyvBrT/2MD3gdZKSd1VUeuQl08XsybD/upItBYAabF4P7ubQa2PbmGDwtGeAG4FpkUPdSJrEefrwjsk1Ga/m5JoZryjbBmqDXoNi9BuYWvF5iRyULqX2D/B6RU2Vcpeu0Q6/N3n78wR/8wd3gxbyBBAACurrf0qKvXBsbX3TlSZBrRz6VlUAge+eUCQrMTdmzaX4SRNg3iJ98R/b8aS+LPxuMfTIEQb46QI40O5QnaKCDLHkCEIEVOXQg/PKzZ1OaDfySj5fv9gySgwQo/BLMyPMtT2lBHhsEUOplz6b6juwDZbPATlCPH1W76YVpPvLuOnbAD8GBvuiAoaApfiWICnbGugBWOZ0OcqXJQerAIdgJJPnHNzZpHzzRITBUt/YJ2KUPsNl4Cz8d5GgDgSbZglK2kx3sYJFvr8rXhsGOTnKlQwJwOKQPkANbupE0O+lFsEfsYo/2gg8/EP300PErv/Iru+/5nu9Z+uFSOP9shsAMNjeD+nSKDKS//du/vTupVMmZ2GreoetMUod4Ukb2CI3IHuFlw6ifWVh67Df5jfCTaaLvpVHZvXJhOBKw98rFZ8LOojVSr5d3BD9+VrKAWMT8e8vrTmljfbSHLLwWbnOGxTqBYMZPghuylAt+tHMCKAu6NL2ehKkv0ELyBWiCF6SOvh0drulpdSStT3lSpu0SSJAtCBa8qCswIT/lgh96owMO5CTNTzzq0C/IqDbhFcTxM2NFsJKgmR+e1PErgSDf6YkOab7GDzo8AVSefixQ4gd/1FUefjr4DdvkKccbHQm0kuYDv8MvSBQ8pjx2w5LtsCPDdYIydspLHXbBIGnX8IkO13TyA/58bnXCWv3o8ARRIJg+wQ5tEh3wYUd08Eu/Spofgv3aB8jTFmxHbJBO++jjqOqAT9ICYNiySSBLnpueSdsiMIPNbfE+iTYTsbs0k57BjFwj6X35S+Ezfwz48KeOiWcfVd5DsjPJVrm5Tr0qv+UPjzNK3dRp+ZXjTb3wObe84XNWVmWHV73kj8hWD0VHZDyde9gWPJU/ttQ819qm9TO8VQZeB96a7zr8kR0ssuAkf6l4Bn98xLOPP3nh22dHlV/55Z/FX20PT3SQYd+m8YAvMqPnOp4FAcHkkH+w+Mu//MuFxaJesWmxqmUqwFeeYAO5bnWmLRaGZ3hy7dyWy2v1yKvUlkvXvHqt3rFyPGfNbcrOon16Ku++cnnBqOLb8lY5Z12rkyMyK2/K2rzwRmcC6vAlX7pepzz1peHmCJ+yWo5HWcqlUU3TL9gM6Ycttf2k1k8/rHlsqOlWnnQtd506P/VTP7X7vu/7vt0P/dAPLcHzvrozbx0EZrC5Dq6rSvVaw7/7yvfqDCSD0tndp7vkukgcMgavyQB/BmXLn3x3iO5C/aJPXvLDnwGdNNnuMN3F462EFyWfbE8cat6SeOZPKxuvidCddWScxX+Mr9Xpzpk9rez429qCH5lYqy2u20Uefu7EYdPyktvKZoNvzLWy6cOLIid36+Qnb2G48ye86SfKI5uNyY+81hb9Sls6WtnqVLvJ4p9+gqrsJePOH/zJT9tHbs6VN3nO8FY3CxfbLCDhSb3reI7Pvb7pE/bVaQ/jIMGHts8TIbKMf0GsJ1P4HMZt/hUgbD0BzNMuT7rwaIv0O9eecMnHb4zSoa3I13eUZY+nfHleB/OLbDLo9PQJ6Rvp/9J08QFP+MlE+pRrY8yewVD4lanDD/YEi3w+iW55eVKZccQPtjoQ+Xg9acMvXx/0RC488PVUVjmdueZndKhDF6LLPMwvMvjpcJ22ISfY8UX98OPjB/meZiL14cBO2MCSPnLU50Pm/vDzLeOIXnLhhd9BR55iqqNMG2ov/Jk32UYOv+SHpOmVpw/hZ4M+Gr3S8MLjmk68dPCDX+SzFWXdSJ+gg1yUPkEnLKTV5cukbRGYwea2eJ9Em8kq/zO3FWiSM6D8l5UeMpHbT5PJ/VAdgxj1yjaBeK2T1xmHZJswTFy9sk1MZGcv0CHZJhd7ovK/iw/xKoOfCTt7fo7xm5DtpTIhHiMTolc69bXRoTomVk/t8grpEK8JFS49si042pPsHrvxsiX7tw7ZQbajty3Jtrj08MNa+7A7i5jFTj7flU36AgLa1itJi6/DWxEYudanlCF5+qVypP0ELuGHL1nGBT780uYNwQfsE3TgkU6ecrKQusatMjLVoUO5PHLVJ1cav+voFCQkoFJf8CRPHXUFJ/yiU1qZNB3k8Uvgjd88ipyVw4JsMulzoPRndRDs9D1+RCc/ggOdwcZZfTrIx+8w35GvDjJHBd/YSU5sUg6HtBeZdLIJv4NN0mkz8sgPdvTQnTrqqxf+tEd04FVXOaLTHB0c5AVbemDHL/zREd9rOtjhd8CTTragyMBHPuzU5z+btI9rB4KTunj4QGfS+JH5JTamXZeC+WczBGawuRnUp1WUibKVavAaYGeVV34D0uBUp4dfXXV6ednRKxsfWkN2Jhyyc70oO+PPiN0RQXaP7aOy8Y/IzuQeu846a/e0Za/d6SvHMMQXu8/SX/NHMMEb2bE75ypzXj+NgIDDXjULtMU7N36CF+2fvXW4Pcm0Dw6eAgCLsjS8tanFXf0s8nnKFRkJYLOXjkx6cvNjjLuxCL8gQVrQxjYkuBB4CAzo9PTKDz9SHj+iQ1qAGb9cRwd9yvlTy6ufdPKHDbFLfQFTdLCTb0nzSUAUfmVuxOiAFcq+QxiqT15wUK6+4Cgy1NdW0ZH5sC2PDDrJCD+ZdMEugZs0HPmGYENHsCCDvUnjkRed+of2SPvwu+KCP9hFhhteeZFBJ4qd9HkgknLtyvek8WofPgS72ieUp8/gQfEjOuBd27z2Xfr4MGl7BGawuT3mq2o0sDJR9Sgy+DNBHuM3+YzIxj8ieyRoMIn1yubXCK/JasTPY7jV8hFMar2ea5iMYNgjMzyZwEdwTN1jZ322l+A3aRwBi6w2DOknbV/Rf4KvdrbIp78mXdvfIl9lRnbOdNIRGc4ClpB0gpHkCTDq2CMfX0i62kB+238qv3pVp7oCrkrSVacbtkrq8CVEZ5VBX4tDtVG9yi/N71rHddsebR14h3qww1PtpqP62WKhrOqEa4udPlEJf5XJr9oe9Fe76awy2NjiXfsh2fpExYYfVUdbX53qd/pY2ybVj3m9PgJfPKrW1zc1rIyAwTtCI/wjvCM24B2VjX9k8hjhHZXN/hH5dXJW95Q0YseIXpP7ZbF7tK+M+HndeD3Z86TIK1OLvtegyNMhi7AybevwpMzrRsGABd2BX7vDnAxPGi3kysgQbOhzDvXxJBAQBNDpaRd+5Q46UWTQQSY9yfO0K9fqJ3hQH0kLQPhHX/yiT55X5Yg90srx48XDz/RnARW59LGZj/yBDx711Qm/ND5+qKMMFvGDXnnZawi7YO2aDfidIzNYxk9yY3fkSQc7NkcnW8mhg+2wo4dP0jBAnijiUxbslAU71+ymIzaTVfsEveGPXfTAg83ZxkUPu9QnM3XUDxbxUZ34RaY6sEtQSrb25C+KDvWRfPbSwS/20BGd+NhARvop/knbIjCDzW3xvnTaruqgM2mM0IifZI/yr2XLiNy1eS2Ok64WAhZ3QYrDtYVa37b4Osu3GFuc5SVw0Nb4s8AbE9ICEtf4Hep78iRPffXIlY4MwUPqqk+H8thBhyBB4MoW/JFDvnSCMNcIr2AkOqMvgUV04GenoCvBC1uU049iG50CGzayh0xBExvkhchTR77r+OSMH7ErfsmTjl90xA820aNcfX7iZ0vy6IrO1JOnPIEXOfJSHhvIpI+vysh2aDP11UmfoCP441cWmWQok4Ylit1sThmZtU8EOzpR2pwt0e8cu/GxGXbkaudgrK5DeW5yyKQDXmnjyCWLXY7oiM3qTdoWgRlsbov36toMMAOylwy+Xn6yDepeGpGN16TQSyaiEVt6faTfQjMqe0T+iOxePPCNYjIq2yTPT211SrqXPntK/ddZlr10fkzlh2kChfyw0NMqi7OySk888cTS/y3OfpmOP/3q1q1by8fRs2fTePUDvfxIz7gR9CTtSZInVHToM/Rpaz/UQ+oLJPwwjA7kh3w+wJ4fe5Dpx3cpJ0eej7IjfkWGtGu/OqaTrgQ7+bemCVz4RQ56wxvesNicfYfy7f/LHkC/lrf38SN3PiyOYCcv2MHKPsD8AFFg5qkaHYI6af+JKR9kJ4M/9hxmD6Y5QQAVvzzNFQQGK8EYnsjIWPQ/v0PwVp+tyFi13zVpbUNHdMKO3Migj2/RASsHG9TTfwSBwZIOfvkhZbDSPq7TB+DAjvwzAX2AnOgQ9MMoaTLl6RPy9RFYpE8ol09H9mxqL9ikPfig3YOd9vHlFh/VhzvbTj2HsWvSYQT6I4fDcmbpJUHAIBoJfEbNHpE9MqBH7R6RPerjmvxr2j16MzDi55p2j8ge4R3x77rzGrf1Jke6Hcv6TyX8lafWx6ctjrVHrbOPv9XZ3nC25dJV5z4/qg94WxnVJ7ytn1W+8laHdPULTyXlrc6Wv8WiTbc6yU9w7Lrll9f6kTxn1PolTU+o1Snd1mn9aOu0dlX5VU+u8bdYtWl9osppdbCp1mltiq55vlgE5pPNi8X/ymmvg/qY8e3EdIy/ndgO8dfJ5xDfvZStKfte7Omt0y7UvfUumm+0n1y0vRepX980Bnv7qKdCni56WuQpladfSNrTMWVZ8KXxS+tLDnzS9KXcEzI2kKc8tnjqpUxQJM+TMnXsx8PvaZOnWtkTqN2Ve9qlDn1kSjtHJ/4EWmSQxQ/8dDrHbk8RPa3jFz5l8qLTNRnqR6YnX2xN0KLckzx12UBeix2eYEdmsAkW+Nkm37Vz+NlFJ0rfp8MTO3ZFJ2xb7MhAdMIy/OTED3Yj6WCpDcnLE2I60j5kIPZWv+SxnQz16SQz/MrxK6czbeyM4oezfuFcdcAfLsFmqXTnj3RsI5cNbHdmh3KygiEb6GQXfnVhkz4Bm6TxwXrS9gjMYHN7zFfVmEHfq8TgdfSQQdvLG3m9/CaPTP6pe+hs4smkdogvZSO8/Bzhp2PEz1HZ8eHYWdtnMTnGO1puoSG7188R+dq+FxO8jptKwUpb95Bv3QoGLLaO/GjCgp2FmUzXFmdBlnaOfPzaHE8W/dQV+MgLr0XfIQ9/6iQISKDi9SeZxpky18a+g27BQoLYBGjsQmxE+qM+wydy8MUPetRHrr1W9SoZP13sjVw80uwmJ2XkepWPnwxHsHON2MkO/sKY7ZnDYESvNLlsw0++a/ptR5COrAS18Yts/qrPHtfBTlogmjEZPYI5cuhwLcgjhwxYk8029chQFr+k+cJO9V3HTvyxNfzsVj/YBQdy8MIuQWLSeFACVFjSl60ZKWOnNndmC/5c80PbqCtPGg8fpeXTAx95dLMRHmwKPosh889mCMxgczOoL6cig3FNMrh7yGRxWYgtvXazeYR3hH/tthnBexSTEdl4L1P7j9q+Nb8FvrfPPfLII7vbt28vAYUgIPvaBC4W3aT5QC5egYvF2qJtf14WeXshfdRfABN+ewLzzw/stxSUJC3QEAhER4ICOlI/OhNMssleO3sg9X9+2vuYcrbQkf2TAh8y7MdD7LYXkQx1BRn0PvbYY0s5XjKUJzBUwK98j1K9ug9RoAOL7DuEncP+VkSHf45h72PaRQClPPsO/eef8KvDHwET/EJwjV9k0ps9nLDUfsFOwEjX448/nupLUKU+7DKe7IXMdyXhArvobPc2CsZglf2T8KeH3erBltyqk9/2umZf6IMPPrjsCY0OAR/Mgx1ctFn8oNM3SSs2+oByASh9gkV9IP3OfybzXc7sE2UbW/NPIbSN9gp2yl73utctMrQ929JOd8GbF6sjMIPN1SE+vQKD3obnfWSgmpjacoO2DrCk3bmaDDKZJ7+VLT93h8dkp66JxmTlfIzwkR86y46Um4hNIs7HCF74yERnyU4+e03sVXbK9unKUxITWajlT9pEaMJ1RslPvXo2yeL1dKoujGfVwYvPBI7O4pMPO/2E7Gp31V+v9as8IeiRzb/aT+hEtQ8uGXf+aHfyW2rtj4z0p9it77DtJlB8PoWv+kAl+AbjlJkbssjDOOXq7cM89ZSr21Itb8uke8qrDfU68mLnvr4WnpFzjx+t3a1dbfoYP/sqvi1/Wy6NJ3pcq19tb2W0aTIqmTfxhI/sXIcvWCftXHnor37EvvBLt3nqJ69ep06bV/VVnlwnSE56ni8GgS+dDS7Gjql1AAEBRX7t11bLE4Gzyiu/AW0icIfoDvwYCQoEYT2yyTIJkJsnBofkCzbY0ytbgOHJQP3PE2fJZzPZfoXZswDhd1fdI5tOuOB1h32MYGLxzl35MX6BI9m5GTjEr1/ws8dufII2mNRA9iz5+pXgtAdDPsLEE48e2Z5CeNrR0/ZkWzwq3vrCKYOwszC4qvkws+gneOBHm5ZnrOoX+NOGeWok31zhUIYShCatLPzK5WvblMujI2ky8Uen8swDeBxtuXGgT0UGn6pNyc+Z7KpTfnDIXMDGKiM+RIYyc0JNt37BQnlkxid5jpafD/psZNJZ0237kGtOCj/5sEgadvFLHn46YofyfTpavyIDP/mwI4tMR+XH0+KvTvBT7hrFzlYG2cFuYbzzh5/R6Wx8Rz8eOlIu3eposWv5YTJpewRmsLk95ufWaFI6K4AzkEwQZ5VX5XgFHF6B5FVLLW+vDfhe2ep6uiUg7LHF5GGh6eEl2wTVK9tEL2gjm55j5EklPHptMZnZS+V8jDx9NJn2yjaRkp2F/ZB8k6yFsUe2RYK92r7H7ixaPUFyZPcEvfGnFxN9UJ/lYxYZ9ve0a3TdpLMx+MADDyz9X/8IGQ/6ouDBfGJce5LvdW8CDmlPpxMEeU3uJgLe+iMZeL2OReTpq/L1F/WNaTq0r7M0e9Kf5CHt51rdW7duLf2yyshNC33sEYDg558+z7fY6cbFmEfqueYXfnzGN15l9EqTy0Z9io/q8Au/NAp+/IqMjB03Yvfff/9iC7u9jvZ6mI5gxG96YUeGwyeUEB3agF/0kOdaXfzO+L2mZjMdyr2ZwO/gt3xt4AwbctVXB07O2ol/5JEbbMlTJ20CC+3ltTX5xh6/YRnSJ7QZ2+HHb7LZgtSPHDbRjYcd6pCrfvpE6iiHFVuMd9iak+XjZ2ewZzcf8DqU84ts+bE7/genxcD5ZzMEvjD7bKZyKlobAQNyLRqRbZCP8I/YTHYvmeQcvTQiu1fmFnxZEHp1jWBCpslanVO36Qjeo23Zi8V15XNzYN+lb2ZalPPtQYGUxdteOKRNta/9ehZ5AYOAxz44ZdrIAm7/paACyXNDkRsQgYcAIt9xFFQICuggQxCA8l1H+uwjzPcPta3AAn90CNjs98uNBT8EEPbd4VefXbHTNYoffOYLv/EnAKl7NtmJP37Q6WZG0IYEWIKY7KcUrPDH3kVn8vPdTWl65JHJbjrZle9T4uED/KMTdoIne0XVT0DFTvyCNnhFBntgQQd+FJ2xm17yktbmdHjjoI769KRPCD6Vp0+QSUawopMf4U+5NxLwiu+u881S2JKRPZzS+hc/4heM+BFyg6NP6Evs5Ls9nQmaYeUmOftE+UGmfoJfe6kT7OSx+/adfaD4Xv/61y+6o2+et0FgBpvb4LyZFhPSKBn0PTQSFPTIqzxkmwh6yQQ2wj/CyxaLwQj1YmjiG5Xdawe7syj31unlM1lbiHr97JWLDyYj7TMi+6bzwlWfcFis0/ekXdf+kjElzzySxV6aHGl9IHX0CW2XNHm1f0urk3JtIWBp02THLgFY7NKf8SetfuaJ8CcAiUzl+qh05ObJl/qID+pHRp5oVhnBDX/yw69+9QsvvPBlfMhDqVP55cOOr5Ed7MPPr4q1OoLJyq9O+JWnfeSxJ/NB6ki37VP7BH1VJ32wC57qw6rqJDsHG+itfcJ11Yk3eOMnu+0TsEnbpR/irX7EJvl4HLGLD/wKPz/CH7nqTdoWgRlsbov3pdNmIpg0EbhoBGY/XK8FLN6hXCcoS1q5awGMtrB4W5jxyU/7JCiq/JHRypRWL+Vkql/TyYt9goKq07U6oaQjQ1qdpAVH4ZGvrkPAwR/6ko8v5DoyBD/VTmW1nE9Vp3rkOstHeMgIhvIi3zV59CRP/apDumKnrNrkuqbJjH9k4o+vVYfrpFMnafyopiNHnnI6Uo6Xv9XufXbVctcVO/zkVplVRnRWu2q5/NZuOip2+GMD+6UnbY/ARH17zFfVmLu7XiUG32UhE0Iv8XOEf4Q3k3avLfhMbr2UybGX/7LwmaT5mQX1stg17TgbAa8cH3rooeUJlfbzqZoEDJ78eI2qP3rt6LW5w+tJ48Vr1be+9a2L8Iw3edrfXkCvyB1epZOprgDKUyXkSZsgAo8gUBl9dY5iX2R64kWGf4EoONTXpNnmaRXKK1N+eDJIPlu9TueHQ73ss1TXq9u3vOUtyxM1dsrzKjxzAlyig178XovbE84XOpR7vct3MtThD78cytka373KZQN+ONOFjyyHvYvsx6csr5v5xVcY4bOtgJy0kT2biG4+wJMO2LkmVz157HFNlvraAdnnybfYow3w8wkvGfjp1TZ05ZW1suzRxQtrcl3DAD/s2AYnOtjBL7zwIY9s9vLdmW42OLSlPPVhpL46DjLosTWAz0ifkO+Mn+3k2g4h3zUc6EDy5U3aFoEZbG6L9ybaRgaSwejoIYPfQO4l/COyR+w2ua1F7F6LTKZrUSbyNeRbAC0ca1AWrR7ZWZB6eCfP09+PfPTRR5cAwGKdvXGCGIt20rC6devWsvdRe+C1t+2d73znAqOxKUjx7UJBJPKjDfv1sj9P0KIPZs+mgEEgkj1+AhUBQb7TaC4R9NgLmVeeb37zm3e3n/nGIp2ClOzppNN+QPblu43kkZP9lIIKwQq/jGPBowDN90aRgIMf9nhmDlHOr+yf9D1RAXQCLD7Aw7c4EewEXPl2Jx3syB5BPPjf9773LXiwz49ssldVuYBHYJQf0UnDIH4JsASg/NLntRW7yUR0sjfflpTHD37DFGkffiUtCDSOo1NASG72aLbtBSuBv/2VbIOtPhIb6GCT9tcuSEDOrvQBWPE/ezbp0E/SB+hnV/3Opnbhh35m/Xj44YcX7NLvtK9gM3tR0275riad8Mm3V/nBrtt3+hXZvrk5upYtzs0/50JgBpvngu9iKmeSvBjtU+tE4DgCvTcZxyVNjoqAAMz4770xs5jnqSA5ubbYkpF0yqQjX5Ag0MmTOW3qOnVc463pWh4d8siJ7PArT308iE75eOKr65Q7pw5+clFkuk59Z4GGALiW80OaHCRdZSqLjIXhzp/YL60sMqTZyS718NFJXs1rsSYj5WS4rml5ZLEdkZ1DmrzWxtYPNlSe1HdG5Fc/gkfK8dAfu/C2fki32EWP+ij1XeOtMvDWcjyp76w/4K/4k1HblI/VT9eRs1zc+SOPHkf8TNk8b4PADDa3wblLi0FgcB0jn554+9vfvvud3/mdvawZbHsLz5k5MlAzSfSqHJGdhbBX9ggfu68iefJgUl6DLDQjNGJHT5+Pbnbss8UiclPoLGzh0pZ54qY/mxOUp29nbCYdXGu+Og55jtRPneCddPiSxh+9kc++lDsnnTwya17VnzLn8Edu0u1Z/chLvaSdERkodaVdJx3+pPfpDI9zfE5e6uVMlzLU5iVtLowdlS/lzpG/CLrzp7VLfpWR68hoy1uZsQGfMkdkyAvVvFxHh4DRvJT0vnPrB7mRo8zBltQNf02rk3St71pddRAesidtj8AMNrfHfK9Gg6AOlr1Mz2SazBz7aGThTv0MxKTPOvfad1b9Q/lk99pBzmiweRZe+2xiiwlqhHptN9GNyu61g+y1gi5PaywcvX722hy+88pds2/Gxstw1o+1RS9eXpl61Zl9b14hqmtLhP6izNlrX/sHjStPjZzpwR8iwytM/VcA4fWnPK/Hkf16ZGVvoLy8/iXfq01ltR+RZ/8emXmSJU97kuVVMl0ZM179Ivn4ycd3687rXXXw8i3j3bU6/MCP2Oy1qnqwyKtc9vPZK3Kv0NlKDhlsDGZ4XMPONb9g4Dp2St9/5zW2+g718cPVwX57DvGxAfbBzhjGQ4fX73wi2+vh7FOUxy9n9fnGDtiFyFTGD7LVjy5tDAd1vCpH2oie2ifoYD9++OJPnyCLDPnZ2wk7Pnldrhy25CoPwSLfcw12eBFd+pU66RN8zD5LfsDOK3TbEBAb5dPLTvLhd+tOn3BWRr/tEfSwUd6kbRGYwea2eJ+pzSDrHQD2v/zVX/3VMvBbgSYLcgziY4TPRGFgZ7AfqkM26pGNj2x1evhNKJnM1O2hXtn8M+mwo8fP4NJjNzvxs5+OY8Tm2HKMVznZ6jj3UK9sMhF+uPcQH3swIZO9Pbz0jmDCVrLTpurT0+sD/utK+/q2/Wz2/Qk8YJZ9bRZsgYAyBD/ta6+cYEebKM9eOphb8O0ptKBLC4bMRflf6IIDdbNfTzk99s7ht+DrG/lf6a7psNdRsMR+/HTYn8cmB5sTKEqbK+XhT4CcvY58tCdQOT6BhyArfqRv8lt5fOeHAIadePgAOzrUV4ZHuaBGHhnBQZDHr8gU4EknSKMn/K4FkWQGO9jzMe0DOwEbnQhOfEl7KVcn+y3ZKU992EnDyj7T7HXUPg46lQu6jJ3IzI1D0urTmz5BX3Sqj+ypzf5WWCiXjt3aU178JE9d2OCnE3bRSWawix/alB/pA4Jh+0SzV1N7IXaSTScssseWj3Tph9qHfbF/qTj/bILADDY3gfm0SkwCuYM1iDJwnA1Mk1QGYDQrw9vyG9gmAJNQ5KROy2vQmhx6yKC2uJiYM9kdqmdCYgf7jxE7M6FYbI4RvNjdKxsmMHTnzA/1W0q+MxvYD0MEt5zZWnEll3xPKOSHt/JHtjx+3rpzh572qfzKI1u+CRZZCI8Rfm2Tpy/H+LW9AIT9leiHT+xI2VntUn3Dq5520fYwrKRsn7/wY4/y1G/7e5Vzk6/1G4s03F0LfpC8lAUfPPIFjLVNE1zCWlkW/fAnrUxedAiOqo7w5UxebEqe+uQkSIu+tjxzivr6SHRGJn6y9NlqU9LK1UXRGR3RH5nSKGl+qRN+fS866EfO+NmZ8vArJzO+SceG6GAnSlp/r1iSGR0L450/kRGdymETvbE5MsmL3WQYh+qEn04UvRmLwT5l1Q/X4VeuTrXTHNXqiF34UdLxQx6bYrfyVieelMeGpGMDGamLf9K2CMxgc1u8T6LNoMkvIRMIGURIAGGfVn75mHxlBl0GXiYid4nuOhP8yK+8riND8CjIzX+xSD6e2FH5yXb3nicE+2TLcwgGvQ7JryuPyfYajOw8RQl/fGRHZJs0YeJuOnnOaJ/dXvEINP3SNnIX5sJf8127M89kFt7YEp3y4WcSzN117FAWW6psi87tO7+iPEu2euEXhOUpQtW5Tza5FheyTc6RgRe1tuhXAkJPkM6SnXyy+b6vn+yTfajtWwzZpV/lF8p0ZiFeDJ9/9iIAtxqQS6eNU0G/hCfSH/QPfSOkLSoJBtp+06YTNKmnrAYqdOnX0YknAY7rfeVsrDr41PpR5ZGToMM1H6pN8oyZ6lv1OXVa7KoM9lQd6qBqZ+VXloDINYKDIC3EnqpzH3atzpa/yiO31dnqkK44sKm2MVxbP2Bf69BR8WNDLWdHldH6pZzO2K68vQnld8rxu65tvs+mWq7OpO0RmMHm9pifW6OBk8GWc4QanMpNFMfIJIDX5NDDT7Y6+3hbO+iOnfv4W9vWlk0fO9hUadTuffyR3ePnIUz2yR5tH/z77GhlZ0I+q+1b/rQP/mMYko1/nx2wamWTd4i/thfe+JhFrS5elXdeP/1K0ieM3CxolxxuHNw85imdBV7aTZzFXeDi6bQ00j5eo3uybbHHT6aA1B4784K0T+C4eaBH2kEHfnLpZQ9SRxnSpgJNT+Xvv7PXsX52iDz6ERmuPSFTlz1sVVd/cM0eZelXysiMX14fo/QffvLDDbc8NqpDjr4lzVY69V03dXlynz7ODjIS8PHbTRF++V7tZ1zAD9bkuAlGdNBPBzv5zAd24Hf2lqNiJy//t1wdN7L0uwlH5JMXP/niWj6b2ICfb0iesmDHN3Zl3yheDwS0jTrw1SfYpX0deeOUfZTqk8MOdeK3a36ln8QvdqS9YccW2NHlE07angz9JH6xWz4M8NMJm+SzW3s5k5P+Stek7RCYweZ2WG+iySDOxNyj0OBz9BDZbaBwqB7+tWSbOHtls3GEN5PSId/utWwEk1EdmVxH6/XwZ6EcwbFHLp4RvOHnmNSHgADA03/tpn/ke4jS2lSZ+cJhkfcWQr7Dgp5vaMI8bxIECeYBi7o8QVL6tTcCCRRZKJ8OgYGAgw3epJCfdiSDfvUETHSSozw2Z04TO9gW0gAAQABJREFU1LFdHcEHHv3HmwKU4DB+KVeHTHzKBSLSkcl+ftPPL7aRDTt12K5esJAnsKEDvzIHG9RFgk02KscvQIpN9KoPx/jJJ/rUQQI0dcnELy2QIgPRIzDEz0dpOoMdHjq1N//IgIOzOuxFwcK19o9f+BzpE3SoIx0b1YFTxU4by4tf8aPWSR8gn35y0yfIhJe2gDs5/OQ3vOAU7OAlzc/aJ+CmjF0h2AR/MvFP2haBGWxui/fq2jLZ9SoyifTSCG+vzPCRPTIB8HOEf4SXLSbCXiJ7RP6I7F4bwreWbAuASXzS1ULAwuqHEvq0Rd3WEKS/as/8iEKeJ36CG4u8IMBi7ZBWX7Dihx8WcuQJkcAiP/7AQ2Z0uFY3OvJEKj8eYY8gIDrJdK0+u41xdcgXtCCBRtWBR150uhYE2+5hLAh+bItJOZ3yBB7kIH4oTzDJT8FRghU+VOzUoSd+kUcnOzMPeBqnPqyMHX6GX31pAVWwI0MwFTsTIAYrNnlaGBn45YWfzARl2gQunubxMzcYbK462MruyFCGogM/ggv8BYnsDr8yNlQddGq7/GBLG/A/dYJl9UsAmzSZuckJdvolnGIfnWxK++irqOoQmCfN7tjEnhr4LhXnn00QmMHmJjBPJadGIJN6r1wLYS+RPcI/wsuGUf5eu9fmu6p2r43LVZCvT9cx06b5ICiolCAzebW+vJZfXttH6s2PsraOvFqn8pMnaKqkfrXDdYLGypdrslsZrQ5+1ryWn6yqE686oX1+pSznWl9e6zedFQf81aZ9frR27tNR81qd7GixqzqVC7KrXW05+cd01Ppktvxtn5CuvrU2tli18umodKy88s7r9RCYweZ62F6IZANzZHAZ+L38eOskcMzBOqn08LaTzqE6JvsRW3p9pNOEOiJbnRH5o7LJ7yFtv6ZsT1P4OdKuPXbDewS/HpmT52kEPInyatrTIE94Msa0pUAiewk9xfIU0ads8kTJUy978jJHkKGtjD117c9Tpq6zJ1LakWxpujxhUgePJ1ixR7m+6mmc7x/qu56eeUrlCV7qK2dPnmxKI7LlkUendA52Zi9k9vDZd4gfr3J+hqT5xF9+8YO98tnlDDt+ITaSC7v4qA6s8COy+EUnX/gefnU8rSPPNYIlojfjmAx2sonOyMAnTaentvBVR7mntPQh7emJnnx+04mP7Z4Swo5fZCAy6c/cSm9sIIetZIVfHTK0o3yy2OQsL36TQW7aVFqflAcDvsMmBG9YsgN+7M0+S37oA+SnPTxNlY/wk892PGx2sJMOWKkf/uic5/URmMHm+hhvrmFkII3wmizW4r8X2WsBy5a1aE3ZFhIT/Rpkkl6LRjDBO8K/ls0XJdcCahFOkHLMDguvBVjfgJvAzRhOPyELad/stXONlw78SB1HAgDyvI70upd8JM91XneSE/3ksd2r4/AnTYe6DnbR4Vq5IIc8aUQfWfLw0SFoIYO9ggy8yvCxmYzoIFMeOa6Rc+o4K0sd5fKiU5q+YEGP+vxiEz4UOc5sxBO/2Ak7NslD9KkbOwV+NR154aefDDrJd8hLmsy0e+poXxTsyGeXNAp+4adTHYfrln+pdOcP3akDh9rGeNKG+LSvNmIbeWwmP/XxSwcb+WlTNrC3lkd+/MBPLiKDT0gAG51V11I4/2yCwAw2N4F5WyUZbGtoHZFtIuklvGvJ7rVhC74RTEbtMeGa0NcgsteiEUxGeNey96LljmCA1363PFnKfjwLt6c92TPIJ0+Q7HNTJthxzt5H7W/BtqdSMIak7deTh+gQuGSvnCdW5Egb2/jxRKdAgE46EgDQSZ4Ahe0CDfVTnmA0ewLJF0Rkzx/5qWMskO/JVz6Wrpxd8ZPdnqQK3OIHmfY5Zk8gO/gVGfg9VYsf+JE0P2HliSQb2cae7DtcGO/84bugKTr5Vf3wVBJPdAjaHUnT6YhN5HpayG6+IE8bXWfPJrvoiE5Y8C0y6IRVdOAPVvBnoyfG4aeDTXX/JFzgpl8gMmCS9qGDzOhQHyXtGg/sYA4DT1LZnH7HZj4JahE/6Gjtik42kMkm/Qsm+Cdti8B6K8i2fkxtzyCQwd0LiEHXO/AM8pFgBv+IbBNBL5nAR2zptYN+E9yIbHVG5I/KJr+HRjHpkRkemGifET9T99h5tM/qVzeV4K8tesn3SBGMWzrWlqfC+ZCefTpiq7Jct7YfSrcyW/33IvOQPmWtTnlVT2uD8kM0yr9P1j6b9vHVvNE6fDxUR9mh8qo71/vqjPT5ffr2yYy+ed4GgflkcxucT65l34CiJBPcWeXVkDoAe/nV7+GNHpPmCH8vbwK2Hv7w5Bzbjp17+eNjD394cj5mg3K8Pfx5+tPDG729svHDvEd2ZPbwkosvGEofosob+TkfqnddykaDEIu0J1zmBTcjnlwhT5SklTmHz342T5DytCh7JIOfJ4X4PeXyZFSfcxOib3iqpSwUnXmiqa5rOhGd7KBDfU/dyCKHfvXxKvekE5GhvfF5TUofPnsF5Ut74qcemfjZye88KSOHzGCpHn/UiV/p6/wjk03BLk8y8bNTmWsHmfjJ8TSNneQ7lPPZAQd5fEbK6KKXDDr4hY8seip2yqX5rY666sETP+K7a7JRzvTCgkzX8YsfwZyN/FDHk0h9QpqO8LtWPzpiE3vIR/Gjto965CqjU/vENnX4QGd8wo+XfvbhlxdKXVjqE+zBG534+AoPttHJ7knbIvCFmWFbvVPbORAwcLxaMJFVMkFk4ssGeIPKAEWVX54yg9o5kx4ZBnIO9VwbvGSb4CI7vOq3stUjWz2TAx4HqrJjG9kmAxvD8UU2fhNEKPwmcmRiqrLlhT8+ssGERDYiO4SXPSg6LUSu2YMip/pYdbLFKyyyan7sIKPKNnFmgowtVXb4neFtY7tysuN/5U8emXwhH29kVx8jWzn/2F1lq1/tjk4TuH4Hy+SRVdsystlT+0nynavdydf2jpRV+cnDS65Dv5IfO/WB+Ipv0hcQgI1F11n7ZbzrI7DU152VaTPl2kKedlCO0q8SQIU/fUs5HZGVOvjI0G/0N32UPfi1mblBYEKO4AKxg5xcCzTZi9iXPqceneyMPDLZjw+5plfaHIdXX+aHa8RGdjizk/7k62fqR798PGTELzrI86o8PpBFJ78c6uBnH9+U4QnRyQc20YmHXFhFH1/THvSnvcjgG3mxXR67pckhN/aEnzxy5CtXn3100E+v9pIWbCYvNrAXLrAjJzbhSxvR7ZAXIpdfqaN+ZOKRFjTCgV/qykt7xUdyUOxPH2KTMvnq8il9gF38nrQ9AjPY3B7zc2s0CLPvphWWgZZ9Om15mzbB2PticB8jA9YxIttCkb01h+TnKUX2Gx3iVWbCMAH22JJJtIc3stndy29CZrd2OUZs4WuvbBMm2VnEDsk3kaJeDD2h6JUNb0ePbBM8THp9zKLaw2/BsUixI3hbkHJ9CJ+bWAbTp556agmEzA3+ZSuyuGujpOXB1b+L1dcSROTf3sLdr6vtpctcoT/YJ5f9dtrAkb1yAjBtEx36sv7PHiQg0PZ04kN47CutwY36KVeHfZHpV8qCiWwXIN/N8Efu/PtYwYf5SmBz+/btRb76+icb0mde97rXLX6l/ym3pzN7NhPwZZ8o7Iyd2EAHXfzIGFT+oQ99aMGKfR4OhJ8h8NSHgxXs4cpuRCY9SSdojAy4qfPEE08s/KkDB3MXH/iqfdJebIRjdGbvKTuR/gD/6CBfWnmehMpLn1DHf0myFmVegL89nNkbzAe2pn3oQOkDCRyjU5k6yvmRQFH9PC3lh7ahB/EVnvlXx2yGX3Tqy0ham9u7mXZaCuafTRCYweYmMJ9WSQbbPqkmeIMyE+U+nuQZoCZSE4WBfYzwm7h6ZJNl0JPbw88nE1EPL9meIvTKNtmY1CwmPZMMTCx2vbZY8GCYBZF9ZxE7RmSbHMnORHuWXPkmZotBj90WBYs2THrsjvweDMkms8cOcrWJwKWH38JiMWJHAvAebOi5qQRffQN26f+u5SUNG20mnUM74oGzsS94QakDd+M26ZTVdNWBNzrwJl1lVB3khD8ypY2JpNlVdSTfOUdk0InCH15pcpKO/KSVVexanfEj+p7W8rR/yYvOlLEJrtEhXXFodeCDd/idW79gFz+Uk6cNzTdIOr5J80l5ZLY641e1q/KTwS8UGXyqfimv9elkZ/ijI2my+Bk75acfhqfVgRelvO3b0Z9z+JZK889mCMxgczOot1M0MphGeE1GI1Qn6GP1yB6RT3YvjcoesaPXhvCtKdsknok3+g6dRzDMonJI3r2WjdgBvxH+e7XputTL0yk3cq69jkTSAnw3hMhCDFf5MNaXXHtChOThV9+TqvC7FvybR5QLbKIj/HTgx4uikz563IDpt/qYug75aWv8AiuUwAOP+uridZPNBtduLmtaPfzkqc8v6YwVdpKDyGBHbFUHv3rqILzy4ldsil945JHLFvLUUU6+Q3mwhY22kR+/yFc/Osjhb3TwM3ix0RG88SEy5SWtjutWxz6/yIMPm4KNutGxKLjzR1pwqIwfwT99Ij7u05E+oW78Ilea/+znY7AgO9jJU4Za7Nir/YIdeTXNJv5N2haBGWxui/fq2jIARxQZwD1kgPby9sirPJncat6haxOPyaqXRnhhmIWoV/4ILqOye20wqbrrX4PIbp+knEqPth9pn1PpvQlyBF23bt1aAoY6fi3IyrJQe2MhIBAECWzwWtCzP1s6r131Mfzqh1f/sIjbMpPAwmJvkTdWBaHOZLIHP5nOmbPIErx45eyzQPoEfnrwSuN3xkc2P5RlzCoX6CTIYatrfvCVDeySnz6Hn9+CJn2cHfQictXHqy5ij8OYz5hgCz5yEAzsh8ajnrcl7MTviPzMG+rBiD/BiR0OWMsj8/7777+LhTrBz7W3PSjblvhJT2xURh857IUhTJQjeerIQ/Syx153diBYpU9I6xN4yGB/2iVtSxZc5SPy8SNvpvgFN+V8QfEL5mxi73333Xe3T+DHyxdHrvHGLzK0XdoY/vJQfuC0JOafzRCYweZmUF9ORRngl9O6q2FVFoyrYe3ltNLiNOn0CNif9453vGP5PqKFP/vzLL4W8SeffPKuUnsXb9/Z2+hmyML8hje8Yfe+971vWbC1j2DCHkJBCHrooYeW/X/2NyI/ZBPEZQ+nwIKO6BSg2ff57ne/e+EXDPjPPtknKpOe9773vUsgYm4SZKifgCj/bSj78Xz3UcCSPX/sFgyRKdAQmDz88MOLTPLxCmb5XW/6+JVtHGyyDzFpQZx6+Y4j7OQ99thjRC4BjoAMdpkL3vSmN+0ef/zxxW5+wiz86tBhe0ywY5OgLDoEX9n3iV/QCIt3vetdkotOWNARev3rX7/4LVCHo/bM3kc82geO0Qk7+GTfpyCQzvQJdpP56KOPLu0KW8GudEifIM+2FvTa17522UuZPkAe7LKHUx+gN1jwS1Be/XjwwQcXP8jmh/ZTDh/Eb20TndJwTx/QPvxKOkEnGfqE/pF2WgTOP5sg0P8uchNzppLzIpA7uV45I/wjvL36w2fwm1h6iS0j/CNBNdkj/OwYscXktwbBcC3ZggiLxoifIz6uJXfEhqvCe69Y1fGrr9Q03wUTka3/C0y0eahdoCt/eNpxU3WQrU5Iuu1T+lmlVh7+mrfPj/gQOVWnvGqTNJ3Vt3YMtTraNH1tHXnVzhrY0qmslqtf060OZa0frc6qI/Jr++3TUeuwq+KgrhuU2MWnFjvptk61q9VJR5VBduVXXvuV8rZPKI9N+FsZ7GltavuEepO2ReALM8m2eqe2lRAwyOpAPKbGIBwZiO3EcEi+SaVXNrtHZJuAemUfsnFf2Yjd++ofyquT4CG+eykTHOQV2L3UP1SH3Wvh3S54x+xYE8NDui9DmbGtnXvHih+vZfFO8MAP19ozAYzrpJ3pyTyiT8lLveBvnKivXB6ZxmX6oDwyoj+6csbPj5QvCp6xjQx1U54ydsiLTjzVryqb/siOTerGT9dImozwRmd0xLfIaO1Wjx3KE0hFh7pVp3wkLzql9/mhbnTij1346ZROOV5UsZCWjxfR4Vod+WypMtRFeJThcUSvcvnRiVc6fkRe9CiHR9WhDF90qFv5q8zoOau8+oUnfsWP1I+v0uYa9kzaHoEZbG6P+dQ4EZgITATuGQELay/Zw+bzNF6RWpyzEHvNaB9e0uTh8UpSgECH/XnqIgu2V6JZsKW9AsWX/XhemQuEpROUuE5goa40mcodZHgFTR7yCtQrZ0GBvNiUtNewCXKV08mG6BBIJI+8lNGJXzqvdsmR55W4+tkeQAc+2wCUw0q5M3Jmd2546ZT2epZPiN1eW6svj04kjdgIf3jIo5OP2gM/rLIHUVo+fq/bEZ3qaq/o5Id8bYDYj9hJB5uc4webyVQH0aksNsiTzmtnmNDBTkQWv8gJdmzCF7+cETnspC9tKA1XdqVPxM76/V865McP9WET/6QRefjYw4f4KV9fTn19TN6kbRGYwea2eG+izSTaSwano4dMIploevl7ZRv8I3ZnguyxY5SHn2vRmpOciduEugaR3duWo/pH2hJ+a2I4avvW/MaI/tnbFvY72pMn8LHQZz+eBVzAkzR5DvvcEvRYzG/f2YeI6HRkz2b0172N9uLZV5f/i62+RZ4O/IIK/TM6yRMY2X8pX7t6EssGPx6RVu77lunXymFgL6pyfuk/+W6jfip45TedCdjih3L8MMlcJjhhg32A6giu7KfMnkBYwS57AKXZET8EaX4ok3J48TV7UQU+9NIZ3Nhob2V0Cq74mr2O6tNDhjoJ2rK/kk54K0ewEFyxIT8QkgcnvpDBRjhqM2XqkxtsBG0CMTqUq8N2fsLcNTzDH73Zs4kfH9zokNb+6uXbnvoE2fGDfgEsP6LTmR/6kms8yhPQanM+xk9+0JV9oeTV9mKnNo8fb3zjGxd++ZO2Q2AGm9thvYkmE/hlIpNAD5lUTFS9xM8R/hFetmQh6rWn10/yRmWP2DBixwgv/CxUI3V67cY30j4jcm86r/aCrT6NKs77+rm+6RAgIOf8MCNjNP03c03SdEWfunThSZ6zdPjxZBzHLjwodcOfOrEh/HiTl3o543FEf/LDHxnKHdER/qRbfnLkpZyc8KgrEHROXvSEP/Wdk4c3/PLhrl7KWxnSwQ5/KLYnXWUoa8urzujIWcCG8LAjN4UpTxmZsTPyk+ZH8vAnPzKcqw14UOrQ6ai+hj+ypMOfuuGRjh941IluZZO2Q2AGm9thfTJNBl7udFuhuXM/q7zlNxm4WyXzGJlED+lu67PFQO+xBR9benjpMQGR38PPbrx5rdLa2abZ0Ss7tpCdya+VV9OxpcfuyA42Vc6+azbDpUe2dsQbe/bJq3lk4+2RDb9eO+iIfz2yY3fFW32Ly6SzEXCjUMe4BTdPC1NLG1ccPWmrPO3NhnauMslp02RY5FOmX1Rq055e1WBAebUp7R8ZrV/Jr2f9I8QWNlUio9VZy43raoN0HevKqh8Vs8hpde7zq2InwK82KTP+Qq1O+S3W1WbldFaZfKi2Kqt+qaNPVGr9aLFr+4TyVkZuXsjd5wcZ1Xb81S5Y1HLpih3eyk+Pdk8/lJ60PQIz2Nwe83NrNHh9YgIZdHUQKfNaqE5MUYjXUSccr9Kyh6YdkAZw5SUbb51YI3vf2asg/HVywVdtzjXZAojegJBc8r1uO0bsFcj0yoaf1z37ZMfeqhOvgL1ipXwfL9le8/isR0v7+L3W0g7t5NnWlU7QtU92y08XDB944IG9sltbtI8+5bVYSy0ve8lWp8VE3ZafXLbvCzZbXml9Fm/6q/q9fbK1/bqnvXL0CaNgLA1DeAkE9EfX+m/mgrzCNr6++Zu/+S5E2hUP3MnTj73qzatgbaIdb926tfAY9/jIMfaU0Ud/yCtQMvRv/Pj0SX2HPvzqp/9nPNjjp5+Hjy2u41v6Er+8Pn7b2962vIbVH8k0ZtNngk3spYNsr7npFfywy37JzLVsC650kAkbmOLh05vf/OblWh4Z3/AN37Cc2YkXznlVTyd77MFM0KiOfLgF+4yn4M8PNgrSjTm2BAc24QvBSP34hpdOtpLvIAveiM/GO/3qZOx9y7d8y1LOT3n0qoefPbYI5F9Cqhvs6IaFPFhoI/rZKQ/hUZ8c1/zC5zNOfMEvbWsAmxC/2KFvwzR9Qt+CIb/kOZC+I2/StgjMYHNbvE+izQB85JFH9soy8A0638c7Rgao773Z67IvsGrrZyJ5z3ve0xbtTZucs39nL0PJNMGxu35vrRR/yeX9d773Rnb2An0JQ8kwkZnA6p6pUvwll/mAcP4X8pcwNBkmQvuB2rv+hm1J2g9mksy37vbx1DyTMky0eSWTpck+i58yC5MJOd/qq/wmXRN9yMRrsfTNvEzaKdt31q8skPZSVZ37eMnWPu9///u/SOc+XnnkWjBuP7M/8Cw++fzWZ+3Jiz8WzVwfqnsTy/Qz/8s6fSP72hKY6CvmAVS/s2lRv3UnaFTXoo/H4i2IyM2joNAew+zRFNThTd8WFBjXVaf+n/+tnT5c25LM7M9Tbg7R5zK29FU60sf5hS97HfU9dtpbik/fMCbyfUq85hn1lSP9yTxiDyA/6bTnMIEgrOARP/lErzGPnw4ypTM2zDn8hJW6yvkREvAIZoMV/xzxi0x6Mr/B8tYz7UEG+WQHS3r5Yc6CEbuk4ZD2oo+O6EwgGZ21vchjt2+pWksSdJtHs0+UHfxys5H1w7j3P8ujA3bwjx8CT2NdmyOBpvaqfmjD9AE85uPaB/QhbZP2ib/BF250xgbX7E77+HaotuffpO0QmMHmdlhfC00msctCmdiP2XMvNvfKPqb7FOX7bMlC2Sv/rGDMIrIWnaVzLX1T7pciILjIzYQ+k6DAoi+gSZmarh3aTTDjBkWgQoYgzThy05M6uY5MfPiTtsirh18fFkQIeFJusSdDOn1FnchIXeVko9gTGW6AyUmaHH1aOmPEdcr5hNiUvs+vihNe5akjCGNLTasTHPgW/oxVsuXxj85qY/STF5nObEga/ihpMlwnTU+wWxjv/GFjxY4NwQIPe1IuLRBEkUkHv5LWFvGBbdKtH+rDPHXCn7TAr5brAyjltQ8sBXf+kJFDuaPKUKZ+ZMABJa1vVz/0AwffyXGetD0CM9jcHvNVNRqYmWR7FWWCPMZvMhuRjX9Edib/Y3YoNzH2yu6RV3lG7FaPHb22mATXIouBybSXRmyxSIy0fa8N+PTZEfxG7B6x47rywlefTtDDz1wrC+k7+OTl0OZt/dQRgGi3pMOXNFkoZ+0WefLxVZ3JwxdZ+GOTculWJ97odE45OQ7zSi2P7+Qh6ZqnfmxQHv1nycAbv9RF8lLPOddL4Z0/+KuO1IuO1m/l1Q91YRd+cuND8tSpeslEKVdmXCftnAMffXTETmXRoRxJtzrojUxl1W75CVqflvA0FuGXV7EJf5VZy8Nfy2NjZPIBxQ82TdoegRlsbo/51HgGAiaMXjJhjPBnou2RT/YIf4/MymPyvYrE7hHMr6KP181mT6+8HrdVIYuvNpT21MnCjDzt8ZRQ3xcMWJjxeBWLX9pr8tzQhN8TOK9B8dBlLx25+J09FRTQCEyd5bFHOfIUig3qK/da9dad18WegMZOMlB4jE15bKGTXxmzru1BzJNBfZYOftDj8ApcfsZhno7yg1/ZQ+jzRuSpj4IVnep45Z9ARh32hwd2Xt2yVR6b/BtG/A7lyvIpJ/54QkcXndKePPODTfLUoTPYKXOtzMEvMmGHvCYnIzcFMEJsZys/nJUjuoOFtHzt5ZV/+oRy2wxC+gRb2ch+MtnlVTlSRo5z+kSww0+/svQJbUwn0j708ttvFDy55B+s4akcPx75fHWdtoCJfMSe+B/bloL5ZzMEZrC5GdSXU1Emrstp3dWwamJ4Ndrpulipv1lke8i+NvvfLM4W4vxPcQu3suzXI8vCn72MFmpBQ/jptFjbeyewCL/9efbsIYGHV5wCTqS+ACgyBBV0ZM8fHQIyezoT+AkUlCcAorN+ZzOBQvZo8kswl32hrmFDpzN9AqDYQCfZ0glEBFn8it2+ecmvvJYV7MAuOu3t5Gf8UEaX/ZEhMuMXHxzhDw/5wY5OwVf2hQqcBF3Z60gHmfYdImmBam0/vvGLbQj+bAqWgk928g1pGzIjQ/uoG6zwaI/aJ+SF37V+oR/lm5fwJz/7KWHHLntgEZvYEz/4qd9kDyee7D2N3ekzSbspoC864cCO9AHtDZ9gRyY/4a/N/a/1SdsjMIPN7TH/Eo0mAORs0BwjA8km6WyIrvyZtGveoetenWQYqD32Rd8IP14Tci95OjDCP8ILQxPkCPXiAu9R2b12sNtkvwaZ6C0M/Ex/PZWekT6Id59+/ecmkPYV7PW2s4VZUKMO3BJAWfQt4knDTr8U8Bhbyl07Mo71AcGIPMQGvJGRIDRp8xTemqYj6fiAJ4GEswOPMeugM+Xqp5wNdOr3kckn9qqTPlH9pFN95ZkryZCODH28+iVQabGr5exgFxnpm2TTw7fWZvyo2q1e1aGc3tjE7ood3prGH33qKMNTsRJc1rRgFr7R0dqpDwQvGMHROfx0wqFiJw+Fhw9VB3m1T0jXcnWrHa7TPs5I+1Q/WuzYXWVKp730CXUnbY9A/+q+vW03RqPBY1BlcjzmuAXkLW95y5lsBtpadFlk92J1LziYvK4iZfG8arafoi1PIeMq4DbaNw/h0pZl0YZDyqo+eTVdr/dhZ1Fvedp0Wy96k9/y99jQ8rQyjZMqt+WvZewQqByjVkcro0238vaV1/Hcyle/rVP9cL2vTtXblpNXZWo/NrR8VUaLpbLKX+XVerlWXvnlVzuUtTL25UVezq3M5M/zxSGwzmOQi/Pnymo2aAWcPeR1T16FtPwC1zWpHfiHdK1tyyHdN7EM3iPtM4LRZW9LT0huApknPDHsXUw9YfJa0uvQipEnTskjS0DlybXXueYh7e21q9fcSNorbLoFIQ78eLIfz+tL+jwBQ8q9RpWOfE+Z7Pkjz42ruj6fwwZpT9/IyFMs5fl/7WSyGanPTjrVy02wPDJC4fMmSFktp9PhVTwb87TTEz/jKK+AYaVe/FKuDK7ag252RQfd0h4KpJyO6HPmFyycERzpZy+STy+8ydB2+OlE7FFOZ3ykg92eHCI2ak/15eNHZJLHDz6xJ/nxObbi1T4VOzpDXmHzNU+nXaur7eFCp3TaRzkdbNInyOdr/CJXHTr1MXr5hTd9gt2wgBkijw59lT/kOasbwqPfwYG84JzyeV4fgZsxQ6+P46Ya7H/5i7/4i706DWoDb4QMwB4alW1Aj8g2AfWSybJXNpkjvCapEf4R+SOY9GIRPhOsSXkNgncWrVPLH8Ebfjd9oRjpm+YCgUACjQQiFmtypJ21rcXcYZxrb+fwB3MBgDz8zkkrd63/pY6AIzrk4xFQKXcd+dLs1A8ceBN4KUu5fscuJA9v5jp206VcfenIdB1+5XRHpjrsiN3BK2k6YJU6dMNSPhlwINN1/McTOcrxxlf5Djbhj5/BhRy6jGV65ONnZ3jIj/7wk69e7MbjOviTwc60mzP59JCByETS6uEJduSrHz8Wxjt/8NHDtsiWVo896sQGdQSXsR0fok99/DWtHG/8IpMs59iFn8zks0F7Rcci8M6fYB6f8E/aFoEZbG6L9+raDKYRMgh7aYQ3MkcG9SjvKH9sOnYmd8TXETvoHpF9zNZabvEaoRE7yM5iNKKjl3cEwxHeXv3Xlc8vk/2gQ5BgEc6PXCzgjvpjD09/fAg7C7YnWH7Aou3V9yQpHw2Hl7QfguRHLeQJAvIxbcGCen64oc3I92QrP+TQnwQK6ifwuHXr1mIju9UVENUfCHlShzd+kCFgyo9BEqTRoX+r70lW+JVXP/nhiRib8yMWNvErP95hu6ApMvgJy2DnWh124qXDU01vnwRS6rIh/HSyyxuq6MQD5+jI2CQTeVrH7sigs7YnHk8ZYZkfOmkf8vJjHTywS3vBt2JJPzuig0/sh4N2la5YkkcH7PKmzVNH/NHBJhS/6OB7dOQpZPoEXn0ELnRrX/2QvPwgiB10JI0HXtGRdk8aTvpT+lHwoWvSdgjMYHM7rE+myYRggjTpJbg04Ex0BrLB6jUEMqGElDvUcyCfoUAmk5ovLxNeZJgYzpId3irD5CjNppofO+iI7EN2R3blN6nJN/FU2Xjk17wsMMFEWSi2xA75sZvsmq8sttR8r/IsLtGLD0V2tcXkTG5eMz3N+fTfyE5byoW3CduiUHXuk80Okzl/q05yIjsynMn2S1BlVec+fu1T5R7CkCztE7yjk1zU2qJfkY+/tbv1UznZ9RWlxaTV8bSm+TcIwDG4y3OtT1XSbrVd9SX1Quaamm7bKnw5tzr28dNZ6ZhN2rnWoaPaRFb1Qdp8GcLb6mhltH2J3zWPDHVCrV+tPfgyT9c6VWYrA39bp/rR8kdHq7vaSV/FptXR+iUN6yqztQmWrY7aPpERv2Nn0uypfslv67f9kB8VO3Vqmj3VJtfVb/yTtkfgC6Nwe91T4z0iYAC7U2sHkHx5ggh3hahOFJU/+QKrvJJInnr7eOULTkdkm4zwV9lVfs0XcPTKxhfZ5FU5sT15giQBjVc1Z/HWfLJNUK0tkbsIufMn8k2GMGRP8sKTOslnhwm7lY0/vK7DTybZdNR81+EPr0nb0SPbhE6mg44qO3LbPHUOyY4d+GrbtHIWZXf+hF9aAN4j26IS/JzJ0FZVVuTP8+5u0C9ANw58MxEZa9pJgA9TZfZkpq8pc7ipha0+oQ4eeCtzo6K/CfbxmBvw6ePpQ7mJwCffkzFPJxEe+yu1I5n6DFvwOJTTJz99lE669Bd55jp17OvEz4/c6OCjnyz79SLDjV5u1iOL7fxQ342MemQrZzd9fEDqS8Mu/tNBPl+Q+p7IyeMb2fxmq4MfkUsHP2NL8KWHDFjT50Y12JFHhvZSzzhmuzy2yMNvTJnjkTKy6cUPJ3Kyl5EOR3SQR5Y0fnbLCz+ZZNEFK1i4MWY3PvnxURqRER3y6KcjTynZFyxh5yBXngPxgw46EezIhRM7YU+2PiHfwQ62sclNefrnImD+2QSBGWxuAvNplZjQ8tqilZyBn9czbXlNG3AmJK8k8qmKWr7v2qTQI1tdg7q+KtonL3l8MiH0ys4E1cNvQjMxwQw+xwgmI36a7Mg20R0jdgh6e+wmy2JBtkXlGGUi75FtMiaz1+7g1oMh2SM+ZjHusZuP+hU7LEQIRrHvGEY3rdwYtwiftbimLPhlcQ5O6qVMHn6UfOcc6obXWVqZc2hfWln4w+ccubWOa4Q/+eGT7zpllTd5scVZv0sdaUFNyuW7Vg9fZMmXh4LdknjmT+qHH2/ynJOP3XXKpPE65Fe+6MMbfuXJV5ftSLm5NPWdU2dheOZP244pC3/OdESvs/yqV5qs6FAmL4f86KJDfuRV3tTPGV90u0aVP3LkV3m5lh8ZuVYWmfImbYvADDa3xXt1bRlQayiqA7xHfh3sx/hHeMnC30t4R/lNSr00KrtX7iifST0LaE9dfaWX8I742SsX34hcvCN2j9hxHXnt1/M9Xk/r3HTl49lu1jzxqt/qTblgxdMnPPgTbN13333Lfss8gfYEyb647NHE5wYmaU/OkA+LG0/06aPR6doTqqeeeurujYOnT+pnzyYeHxnPjZz2Z18+PJ6ni2QgNzqeBipnDxs9PY3fgjK+4ScHucml0003osONT9KepLkZzz5DuFQ/+MA/fiWYcQMqDSs6YRu/o8MNbbAiD2/2LsKqtg8b6YkM1+rELzLxsxF2iJ/aJ2k3Z3zOXkbYyYsM9WEVHeS7OU77wJYd4adDn+BD9oXS6UYwOmBlvGZPLR3kRAf52ilpMvUbOuGhrjrq580UHjqiU1qbpQ/wAT76HeIHu/QJ/mvbkfl9ETL/nBuB/tXm3KqmgC0QMOhGBhLeXn6yTQy9hL+X8Gby76ljAh+xpddHuk1wI7LVGZE/Kpv8HjKprinbwjTiZ4/NeO4F717Zk+9pBIwX/SME85qWnyfFro1HC7Z6SbuuY1pfO9QfyBdY1DrtGG/7q6Cg5a868Nc6dLR+1PpsT3Bc/XAdYiM8Qq2NLVbSwUUd9lXsWpzwVP7U+f/s3cvOJNlV9nHfhgcW3bbbB3y2sJHFgI8BWAKBhAQDEMwYMOc6uAcP4QawZAkhg0AIsABhbLftttsHQEhMEDfw1S/tf3n17sw3I6oqs6q6Y0nxRuy913rWYR9iZcTOfFe/1EdsWmVKuPGQnXFQh3/6oW7GZpURJ3oi5ckPj19hatc/k1adYjft0j77Y9XJpjXeM5b4S6zTC3+N3cTgA71RNkw7ajvO94vAz3rkfjoPTS9QBFpIXiCTNpmyd+GYi9M1BbfEpnuPLddsvWf7Le3eG/N7+v0i6dobp7aQOEssPOlDyhIHT5b0q6N21yV9+Ny86VXnyZY1A4+buHZ12iUFKB3OyUgG8JKhE8Ghk5x2GHSRk1Aoa4dfMqFMDo9zmOmEn18wXIcZnjr8MKffkrnK0y/XYbBbOR3xK7MTsQE/v9g4bcLPLn7AKRbk2ccuZ7LZQEaZzOSHGz8ZGMWSHfiV6UPa19ipK3b0ZROd0w9YHfHDxK8sQZx+NSa0q0/GmU5+qNdOT37BVGZ3scvP/MgvNqJ8hE1G2ZFO+sg0jpS3kn486NlE4Eg2n00cXxiUJuBWg/BbqLbQk2BvwcWzxw78Fp6tduPfw+smZNHaSrD34O/B3moDPjG8FbaY7Fmk99iNd0/89o7DaUt9ZS+x13N79E6c53Xt5udVtZvnFvJj2V5Nu5mT9VpT/JTdjPvShGRBnVeQ+Bxu8r4409yUGHg9TD9+N+8SBnG0l5ZdZBE8Ml5Dk5EAkKETGavphEMfHHum8aJexZdsplMbXfUhvxDdMOnMbjLa4TvYxE868cDpC0LqYLKt5MWZXenQbi7wo7WCDjobT+yHqZ1NdOCHX6zZkZ9i5zUxe/Crd5DBT14sil1+somt6cgPsWBTupTpgy8Gxc45v7InO9kqljDhpyN+mGysvyTrbBSD/Jr9hV97scAvjnTkFx7xFQuxw0svG2CyH4brnlgrq4+fTnLGqnr26EP9U//WT/RdIjy2CPjZJePloKeLwJFsPl38Xjhpk+lWCYeJa+JvpSb6Fv692BbRLQtGuvfw7rE7/K3nW2K3eG+1ZQ9f40oc+fAsyU1iKz0L3fbffelLX3rPF77whff8wi/8wq5xtNXOW/HVD9fwG+/2uv3gBz843Xjd2NsbJ0FwU/6vn+5rg+cmr6w/JCT47YMT89YUv1UocVQnQXIjbn+ePYBk+21IN3g3aZj4JQwSC/Yga8n73//+t+zJZAOd+ohOCdCPfvSjx3s2fcOYDph8lECwNT/YTO6HP/zhSaekBA9M/HitHeLQuGOnvZL9/iK7JBn2BZLhA7n2U4qducYPfpEnw05lJAHCL2kiqz1+7ey0Z7O9jPY+Sp7yC6ZYwIDpWvyKHb98K7x9iuzkN/m+7IlHe0mZb+CzW/8UO/ENg814xYbOeOwDJccPFL9rOvsNTDLG1BwTbOZL/UOHxLJY8EtimF8w6w+xYwO99onmh1jqm/bU9gsL7MK/6hQHBx3mj/FaP9F3iWCR+epXv/qeP/qjPzoSzkuB2li//fHNRsCD7Z0dAZP1ZSMLy5bF5WXz62ntfbfGxA3S8c1vfvNxwvG0sbyXvPnXTf8hnfWtG3/Xk9+N1KGto3ZlbciNHakTs65PFz+tT955koQKrfXxX2o7CY0/8TuzIdvC7bzizfra1rqh5i1xiG89x6++NnXsqs652Gqb9crRtXqxxzPpIRk6iw17HGGEs54ntutpN9nWe3ITf5ULd2KoS3/8bEKTv7I6x9TT9eTvOv4T4E//zLbq1eVX7bU5aztHeCXjEtsS8HN8R922CBxPNrfF6aXhmgvEVqPPTcBzspcm5TledS3Al9pnPewWtll/6bpF61L7rIe9x/a9tojfrWI4/bh2LQnpac01Xu17YrIlwdmi8xzPLfvynD51/NnTb5dwXvR6sfW0qVekrpEnPeoqqxMPT5WMIfHRLmF0GCvO2q0xkadSYcD09KmyNvyeZsIm71w7HLh48KKeQqln+9qOh21hZE9lONlkPaHTufb8Um6uFJvK9JJLRnuY2UjvbFevzD9ED1/46HAd/4nh0Z+JSSe+eMRs2gBv+qFNbOKHqY5dETx12XTOr2kX2akzHP7TP2NXG3lyrd10OLIL3izjnzpho/hds1c9/+p/7fSj/EpGGVVe/aC/WLMz7JPQoz/Fp/J6Jn/Q00fgSDafPoYvNcK1iTadM/H38E/ZLdctWFt4LTB7+PfwWlz2+Ckue6ib2h6ZLbzs2OPnFszJ41XanrhM2Yeub233Q7rf6W1eAX/oQx86vdbVd92w3Zi9bvQq3JiRJHrF6dVsCYK9ee0j1Ed+3JuM8ateQuTG3Y+Aw/QqGg9+eOq8KvVqtxv+a6+9dmoXe7rMZbZJQugk6xUzu2BkI35zU72EAr92da7Vu4ahXpmtfOYXW12zr/WDXq//2SgGtgjggwcLH11evTsj9jjY3pYCbeTUsd+rdj/BxAZ19g/ChGMelYDTjfDQr56N7M9WsWaHOn2J6FDHL2extV2AHWKH2MDObOSrg/9shUfWgchqI4OPPeroYDvSzodI34s3XnbChM2v+kWbejaLc+PGmOAj7PyCKxZI7LSJHf/8hJM6Y0pd6yj7XdPLXjIw8OGnF792fonTQfePwJFs3j/mT63RJDaRkMmE1CGTzORrcaheW7wmX4dJbBKiydvCNOvx4dmCTQ62A3/61J/DxtPCg2fakt2zno98XbHxxJ9OdmcH3RP7nC1ww546z2Gry26L8Dns7MALlz3snrzasrt6Z34W9+rxIvwTmx14tmDHKy50bMEuJlMnO4phGLPftVfvGq1+8u8SdrzpZKuDj8Xb9UHnI2B/2r/8y7+cEh8xfvPNN0+MbrheD37ve997LPjqq6+e9h2Kqz755Cc/eWqXrOhD9fbOSSqQ/ZZe0zuQxANvvx0pMbE/jw79KNGwb/Db3/72iV8/2m9nrx1s9PnPf/60vUHCRKf29j5qJ4+3faESOmPZHk1k7NnXqUyn5IOd3/nOd05l7crf/e53Hycr4sIvv79onJG3H7A9gX6jlI72u4qdum984xsnnWIluWrPJryPfOQjJ78lWmQ/+MEPvudb3/rWid8fOiRPxU5ZEtq+UAmceLWXUbLG12JHp1i8+dP+hPmxj33sxC/h58cHPvCB0+9u9nuUbNY//fME8hI/sUCSTEnZ97///VOZDl8wo4Nt/JIUvv7666d2f/SFfafGErL3lP728dLJln6jtCS82NFvjNAR6R9jQuyMkU984hOn/iuJFgd90x5bfliD+u1V/QO32PHDWDAO2SvW+A+6bwSOZPO+8X4m2iyYFoFuwE0cZwubRcMkjWq3eJMx8arD2ydAddoi/PE5m7Qm8ST1MFdSD9siadFAYbmeMur55MZgQYviX3m1u5FJMizKKN5pc/ViwY5r2PHDZsuKzQ5HujpbQMV9xhXWtCVe8fO0qU381T+Era/rl/jPYetH7fDzxRk2/omhTv9IMGY9frwoXc76R7zdAGeb69UW2GLipjEx8J7zE7a4OKNkXK/Y6vSPsYgv2+AedDkCnvzUz7jEbZbV1e+ukQRjkhv17BvzapVZyz19gqNtrkvVTR2rTjIrxtShbZYnVtfNzcoTTx2d+eW8jqVVh7iJRYR/+jXx4ll1snnqUZ4Y7Fhl+BGtOtWzKz+0T3ztdMxY4Z86yK5jYuqEMfmVp07l6YMymnbgX/t41aE8ZWasw5vtrmd59SsZ54OeXwR+Nnqfnw2H5p0RkLzNT8lTXFLlCUOfVmfbem2CenLgk2nJz8ozy5ITnyov6Z68rr1+8am6T9Jr+yyz2yfcPlXPtnPXkiSfbvsEfY6nOomJmPQN1eovnX069ym6b4pe4qveEwTY6yJa+zyLnydDPf2Zbeeu3Rz0pScS10iSiX9LTPS9Rd2Tki1263sJeE8oHrLFDaenSQ/x1SaB9UTlzfF0o7b1zD/jaj4NkwR3k1353+1lfeFDVjfjngKLo8ShNu3alLWRc5N3rT75PhBM/hL/kobZH3SohwMbrzNSj9dRIutMtzoy8U/9tevz6vG5Zl8+SzroMm6zSVv1jRk2JgMDv/Uwv7QVB3Yrk4WNH3a+wUbZrt11OpWT4WuxyP7sxE9H9fxiV/zpw4/wmsfFVB292alcbMhkp/YwyMafnfSTU3YWq/hhrrHTNmMH71LsihHc/IKZb67J86uYqWOTo4cYxSi/inf1ZFDj0Pmg+0fgiPr9Y35TjSaaibmV8G8luHv4t+LGdytsdu+JSfa8jOetC2kL7x4fyYijG8BDtHcMPoR1ru3d0pfnfN9b50OC14ZuxG7iPf12I9aPJVLaPMmXPPgwpA/xvvLKKyeVeGHgL3Hy4UZZvXYfGowRT54RLE+s1Uko8GnrNSYdnoDrT5g+UNHpQ2djjU3a+kCkDeHDLwEj7wyPHF/oRup9kOUHDHaKSQkUHjaSVU/ea1i2+sAJp7hpR3i1++CYX3zHK4FEMH0oUsd+ZfzwxYzffNAPSCzZpi7btdFTMkYHDMQmMj4YkxML9sFuftDBZ/rV8cu1eOCHTUc2FBP+OeiAwQ+JnTo2iCWiFw+c3jbor+zOH+3kkuGjMYCPPLuNOfwIlmu2spOsbQr5li5+IH5lL36YeMU8GRi9bvfBthidAB74U188wHI0bYzAkWxuDNTLwmZymaR7qEl+TcaE3jP58O/B3mM3P29Fe/3k41Y/ty5yT+KbRbab3ZPIPyTjRtTN+iG+J2nTl3vid8sYPon9L7KMPYHeFrghGx/tO5SouBnP/3Otf9989HTZHJcUSQp6iyHm7Z/siZI+s3eyfYfrnk2Jnht7OtzwYfT2on6317FxK4Fgo6dj5qFkijzbEN30tj+vL6L0O47GqYQMpvWEDY784BcbtLeW2YdIvr2NEhZvY9qzKYEi135KCdjcZyiZ4rs9go1jfngjwV5+8kNsIwmcZLY3HGzBmw6xl4Tlp7K3OWFI1Mi88cYbQZ5s9MS/t1TeuLT3EVPJc28++AC3vY1slsiRifQBP+gS28q180P/t39SP/KpMSFWYtdbIjrs42wMGIP6sDJcerwpapx9+MMfPo2ByhJVfTP7y/jMbmNbnzfWYdozy09jwtuZ+knbQ9S4fIjnaNsWge2PtbbhHVxHBJ44AnuTzT38e3gtqHtob/LTTW6Pjnc679bF/1Ic9vTvJYyXod5Y2xMrCSZy7lpZAuCmPmmOSwmSG3Yy9Epw5lgvAZwY85qsRGzOp6kD7+rLOf6VZ2Kwc/Vj2khHSYprbfmkjJThRBNfnVg5ojV27JvjD970+ZxOMtOvKU+POIj3pDXeq534px9kp6+rnXhnO5tnGZ5kK0x+sGsS/trVr8mZ9tkfdEyM1SYY0y/YxuGM/yqjvMpMm/hB7+wTevbQ08ju0fNO5t13V30nR+Jd6ttcCN6lITjcfgEi8LTj8GnlX4AQbDLBTdeTt63Ua9d5MyYruVkTHDftqPaZ4Kz8eKdMsvNMb3JrkoBvtUvd5F/b1/I5zGkT/lmGf6681s2kKXvIorW81okZvMm34mub7Ws5jJPCn/5ZMc6VZ928DmfWuT4Xz3iNMzzTzto6a5uY1Xfe4seKDy9MbWyc/XHO5vjpdT0x+XFuHGTjtbPE1Wv+iXlN5mh/ewR+9nHt7W1HzUsYAZNqz43XxNzKv3ey4d+DvefTowVkD/8e3vlpfusQ2OqneM9P3Vvxt/CJyXwysUVmK4+bhicS/JwL+1b5h/j2jEG858bh1vg/ZMfL0GZ+z6c812zG7zWk15XziZzXp5749JRJTL3yVCeW5otXnl4/InVeJ3vKVALRq/h+3ga/MejVOYJFrzEJ3xNIr4bDd/ZqnS2tFfi9LqajdjL1Of3GAFvZSN5ZPTK32NFYVYfXb3vicyQbJny/+MB2dTDxZAMssWMbosvrZnHFX5t6+Owm70ty2tWJHX62O+iATydis7KYIlji5pwObbCQM5meHNJJh3OY+oF8iRo/YHl9Tr4x0XqkHb9+y84w4ZIplicjHv3RXr/D1i6edJCBh/IL9oydMcGO+PC2J9PYTadY5gd9rvNTmW568cPSJ8ZVZBsJXfxqvNZ27ZzcNb6j/eEIHMnmw/F5KVtN8ltRC9Mt8C0Ut6AWzltgH5hPHwE3ij10y/G9x47nwStW5qAxvYXsT7PnURLgptl+PTdoN357BEsk3KTxS3rcrB3tGcTjBm8/XkmYJMHeRvvz2CPBkCD06xMSIYkDHeY2fjrtpcMP354/OsnxTYJg/yRddOJRLrHwJQ989gA68wsPv+JXnw4JlISIH3Syg/1sKobiSd6eRu3w+GRPIB4+iF37EPnh1bx9n3SKmzMd/EDq7GctVnD0Q2ucs9/ZFE9t9iGSbc+mONGjHTY/9BmdSJndYoNgOPhRrPjBJrbSV//wgy4JIBzxzw86K5ORwM0xQUdjwjUc+yf5gp/dfnMzv2bs8NPHPvsr8YuTc37xBYbY4SOjXX8WW2OATv2lr5Xx1MfiVH/xC4mF+MNjn/NB943AkWzeN96HtucQAQtOi85zUH+oPCLw3CLghu2m7KbuBtuXKiQqDklCFK9Ezw3f2evDEiaJnS+ftAdSvTJ8hFdC0JdFJBp4a5cQaK8sAUgnLJTOviCU/Gx3nR+S06lTkkEvvyQijslPpzIbSl6U2V4sus5OCRK70ilu9MafDn6XxOAnz378dMTPT/UzdtrVFTu26YPKZMQqjKlTG1IHE0+xnnoljjDyQ2JpXUwH2+lMhw8L5GGSU2ZX8nRKWIuXMh8cxY6OOe7YVWzwa5t+qaODDfSKHf5s0J5N2U0eZZc+nn41lmGKEfsOun8EbvMo6f5+HBp/GgGT04TaQy2Q12RawK7x1Y7/VtgWlK3Y7NnDu9dP2FvxLYJbeYvj1rObgYX5FuQmbpG/he3G7FZc8XMctC8CxrQjWsvq13VDvxRr5ymPfx1r8WqLJoa6Erza9fvse/yT2DT1Kk/+c3ZNedd0Tox5rX3aCG/ia1c37VrL+Kdf8PFErledZKae1a9pE5xVh7qpU3nK0Elm2rHq1GYdvUTa1zGx+rGWVz9gTxuUz8moj4yrGRt+TZnVJryzjr5VJ+xzdek8zrePwOWRdnvdh4YbRGBOui3we/jx7uGnfy4aD9mzLhgP8da2FRv/Ht7wb3XeE8M9cVkX6Wv2s2O9YV2SgT1vuJf4nrR+T//sid+T2vNOkfOUz15BT7XcbPuQZs+gOk88xdMHCU+h/EQPHn1tn5snVNrd7P28Dx5jwdMh1/GJl9eXnh6pp4sOdcqeTHlC6PBTQ9odnhD2H7I8gbLP0E/20GtMZGPj1Acq9jjj5x/bXKtnOwx6lBHe/Kqdbph0+OkdcfCEjm9sJmNvH//Yjw+msye89GoTN0TGvkIfytij3U8swQuLbjrJaBcfMUbiIKb8gMtv13Srh8tGfYnoYA+/8MPmh3NPFdlJhjy7tTnDZhMbqoPJBjLO+NhOh60O+MVMbMUp8gW0nnjzi0941bERVjEgT7eDzXDw8rExAVe5bQXa6wdjSPzocMBFs++LmXP1dImzM7/27tk8KTn+PHUEjmTzqUN4fwALj4XMYtoibCI1uS0wFh5UvWuT04Q34aq34Ci3MMNAYeNX54BrIYCtDCNiBxl1ZFpYnMnN+hayiW1Rc5zDzpap0+JOp/m8bz4AAEAASURBVMUoX7IbPx0WUjrEK7vxqI/EBO/EtlCiFTsftU2dbLEfit50wsTvzIZ0eu0El69TZz6ew7Y4wpo6sxt2seWjBZ+/U+fETqdzMdE+saef+WPhZjfcqfOcnxObP+l0PW1Jp1jMMZtO/NNP9bCMWX7SjdzQ2HTQ2yPg1aL9bm7s4tyeTf0ghtoi8bVXTlyNIUlBv48ovuS1S16Q8WD/W69d3dAlBCU7JW/9/qE+1n/tM3QteWETe5D9ldq9GqUTjz2gbEXmj/HZb2AaH+zOTtfGVfv3+MHu2psrUydMeyV7LcsW1yVV4mD8Fzv6UX7RgdpvyWY67VtknzL5GWv8fEynOODtf4yLo4SqWNEh3mHwU6zoiMxnNmS3eLMZFuJHvinrRzxhKGtPBx46GxN08iN+7eTZnB/i67ox0P2l/mKbfk0HPNQ+UNcS2GKHl93i0BjAw6f80n9inF3Wb3bX5/jZCYN/x55NEbk//eyue3/dh8YnjICbgUlrgpmMyu1bUe6TKfjqXeNH+C1seC1QSFm9A2nDb3JqQ8oWQDwW3Dn5w8ZLBtWO3/XEzm446pUtCA9hT53w6MQ/dcJxIL5rZ4+YZFef9PFk98TWbtFcsSf/9Acfck7n5FWfTu3T92KE/5xOdiEYU2d+qi+GbgbFZPYb+fwUq3TiyZY5TsImx25EHj59ExvvqjM/yGV3OrNDWzph1Pfq0zntSCf5/O1cbMke9NYIiJuEs/HfvjY3Y/GtTMqHGomjMSIJcDNXFmdxt+bMJAy/PgyjDzuVydBTmY7scW2cSBQkJnQifUkn3eQlVOQbP9Yf9oRJp0SssmvJCTvpMq6mn9rp0A4H8YHOMCQreCrzYdqtPNslluk03hF7YeLj5+TXTod4poM8mcr0mW+V+Qm7sv4Ru8ow6y/x5DM8dfEYA1PHGhsYs7/YDYcf+kfbtBk/v8QyHT50zzEhNjP+ricGP/mePEx1M3aNu9YLY2D61T0pDH08+0scs0k9mw+6fwSOZPP+MX9qjSb+/NQ2AU1cE7xP2bNtvTbxLTjz0+/KM8s+pVr0tmCTg20B6NupE2u99nTQIrEV2wLj03JPG1a8WbYww+4T+mw7d81HC/alGK8y4oLXQn6NWrD7FH6N3w0ddgvtQ/xunltjaAG2iIvJFruNK/hbYsgGMfEt1i2kL93YtvS9BMRNkx0lKMb7QQ9HQN+VXOF07cY7Sb9F2oy5eCQ64l0yhQ+//oi0zbL6+si1NuM/sv7AcI7WcW5cTIIxbeDHlMe7lqfO/JiY00/15sYkMmvs1jmz+j1thDXjoMyv6RudxVo7+RmLc7Fb7aQjDPKOaSd904+1XXm2w5p9rH3axM51TNAxY0H/nJ8wJ4a+mnGAqVwfssc6NWm2xz/b6SgOtbP9oOcbgbfOqudry6H9GUTAJN0zsZrUz0D12yD2YO/hpWgPP949/PD3xBD/Vtprx1ZcfHORvya3Nyb4X4SY3DJ+12L2Mra70XvaJKGfSZcPgpIVbWIqqfAhy75MT360+ZDmZ2UQHu297tXuA4ibupu/seFpnTMsZDz6YECHOtdtOdFOTplOSYvEAp8ndrDIs9vr+ZI19Yg96sjjg+HMLna2F5IPfPVqFj45ZfyNZ/xwxYpN6cDHP3bDgY1cO/hVnHy48sGwJIeMLUHZXT+wkQ78fGUP6sOcdjLayBRPfcceOhH9fOcXnQ78+oeMA6YPzflNJz5YksDGBIwwtTUm+Fb/4WebcvxklDvjp4NPeNnARrYqI76HmY/szC887Cp2YsFvT7jhOuiAAxcpw+cnfvhsgeGMd46JbDwJH3/uFoEj2bxbqC8rMin3kEl1iZrkl9rP1W/VD7vF9BzOWmdh2IqN9yG/VmyLyB5bttpBj8VpDzaZPfh7seFvITHp5raFfw9P2Hv83Ir/JONqK/Y7jc88MX6ct5CbrERBvzl6quRGDUObszZjR9mB9Lk56cCjn+Jhg2tHmPhWHcmoL8kJP2zycGCae+qVyWaPMqqNTPriyw845OiEhzd+ZfzK2pFyMs6S7VnGp0wGSZLg0KGeXvZVxqNeHRn42eicD/mGP9l0l4iqpz95ZRROfsCsjl42sQGRUcbjmgweuOrzi0/1kfp8zA/jYfLDDhdGMUoP/DV2c9xpowN+fsFMXh1MPIiO9GlLJn+1kyWDT7syn+hy7cB/0P0jcCSb94/52zSaGMhEaGK9jWlU+HLQr/3ar73nK1/5yqh9sst0P5n085Paa7fFZivdEpsNe2zZavPLzrc35qu/75YbiCTETbWnOmsc1rKndLaxeNpj3M2tIWI+t7jg0W4dKinwA+D0SWQ8EbJ1pdeanlr5skUYnqzhbYsIfph4JAASKetb/K5h2ApT/9FjD6Ancq491cJfu7IkIj+U2dt2GvFh+9TpqVj82j39YyM55OktfdnFD9t/+lKLZIX+MMhI4uOnjy9iJcb4+comZ0kaG+Inj8e+w+r6UJAOfRMmfnEsFsp0sjN+db7BzW7xQ54Q8qu9jH1g7Mfp4dERhieMeLKJDhiNATZ7Ihw/HfqYDvFG/BC3dJDRngwdZNLBLzZUhuG62GnzbXg+wEEw6assDigdZPRD45AfjVX9SO5Yg08hu+ufn224uavaQ9mMQAvLnhvuJd69kwj/Jaxpo+u92Kv8Q+W92G4UW+2mdw9vn4wfsne2wd6D7yZ6C9pr9x4bYN/Kbnbsid8lu/eOITr3ylzSfa96iZab7VbqW7/6bxK/V9/XPtBeQjZlu94yHshPPavMqhP25D9n9zmZbFrP5Cfeiq98TsesW+VXHWu5mD0kt449vJNfUjTLqw7la3E4Jz/rpo/n8Ou7KbPyrW3Ks65YTLnZrn61Y2J0PXnmNfk1Dit+fuA96PlF4Hiy+fxi/1izyWNCrAvxY4blwpcj/v7v/36p/UkR1lacswAPVJrEe7DZsi4El+Bh+0S6lcRrKzbMPby3juEeW7bGA58b1J5EZA+2eOsftq+L+R6cc7zivZXoPqe/V3zn2i5h471VX1zS+bT1bDYHt/qJ1344T5w8AbKPDbVfz1M+MRA/T520S2j1tbr2PuLxhMh+ytrxJxsmuzw9ROTphMEOT9I8YVr359nraHw17zyNZR9sOoxr7bC1FQP88GDDyBa+0onPfFDmV3L8mPsr2ehpG58ddLCdXDrwsAEVSzrw00HeU0w6EH5+sp19eJTZmF/sECsy/Mx/Z/LiRYa88owdvPqLPNvgsZ19SAw9hSaL9F18ztrpaEy4zm6YfEtnfc7e+GHiZwd72CkOeBoDbHGtDeFjZ365JqOM+A6PPocyeTyNCT7C8VQUaUNsxk8n3OzkB15Pl/NbHxx03wgcyeZ9431W296BbwHrtcVZwBtW7rV1jym3wrYIOQ56ugjcKoa3wn06b98Z0pImSYQbtptuN2w3a/PNjVkioF2bV4xk1Lkxu/FH5GGRxS8R0XfWI2c3eHJwld34k9FWYgIjol9SQZczLHxwHPRLmNQjNsLGr46tymyhy8E+OtTDkoyUwMCAS2/rDT7+qIOHF4/X0SU71eNNpwTGNR30ix27EDvYqgwDsUk9GW2uix3dCL46+rXDxc8nMsVOOZ3kyNDDlnhcO8gj/PCRWKsXA7jOynSSV06nV9htpSDbmKCPnfo2fm3Tr/qdXHFgAx3aHGS6n+FhJ/s61Ik1HfSxdxJ+9WLQFhM21D/a5phwfdD9I3Akm/eP+U01mlgtKM9akcnegrEFG/9WW/C2UG/B5udWgr2H9ti9BxfvXlv24Ftg98RwL7a+39qfe7D39uUtY7jH7peB1038hz/84elJn5tsr9V7AtYPk/NFP/zgBz843bS7OX/ve987jSkxt1fcz1N5gockaMrtl/QkyQ2/siRAIpFOSZ/xwx4kuZFsvPnmm6fEQp1Ewo9v28/IHv+V50c/+tHjdjx0hOnpIpx+FJxNvi1NxniV1Hii953vfIfoiZcNP/7xjx/PFf+xiB/tbdTOh/ZseiJmbnmjhMROXX7QYb8kP5offP3+979/ihVZ/yUpfhj+84/ktH2GfJUo8R3BhJFfYsnPMCSRZN54440Tvz/ayfuNSv31wQ9+8CSvjEre0il2cMQC0UFnYwIeO4wJssYEX6ZOfttjyRfEJvs1i5Un52T6WTP9a43KDzr1V2UYxoxx50MGPH3KRvFBYkfnTFD5q8+R/jGu+uk1frz66quPx4S+rZ9OAsefu0Rg+x37LuYcSp42AibdnomEdyv/Xmz8W2kvtgVkT+K71Uf2WuD2YJPZg78XG/4WsqjvsWMLZjxPEpNkr531/a1ick33u6Vd/00S84fmpzbjyRGtGNXP8+QhO8v41vG5lqe+c/zGyZRZbSSz+jU/gGlbbYIxZSY+PDRlXE878V8bv1MeHn1Tz7yufepY+fGsOqcP6VsxyEX446tulpOduNXFbx2eMvyYvmib7avOlR/ulMe/6lzHwLSP/KqD/MTEc9D9I3A82bx/zJ9ao8nrE+c58imwT6Tn2medSYnXp8B1wk6+rmHju6Q7vs4mOZkt/D41s8UnbTTtmQtF9WJAZuWfvOHwLz+rc0aTP2x2Ox7CjhcGW9Ix689h1z8r9rRlYhRDOmb9OWztW2OIL37X14gdPe26xpuPW/odFv6t44QdYiF+JRHF8ppds50srBnT2f5OudZnnlZ5TWuM9rTOE6WeZBlL3cB7nSs22sk7xFzZUydPNvE7tKkTR7La8CFnT7LoF2/6ycQPE3ndqR5GMo1J9T0Nw9s8wJdN2ardOKKHDn4peyoXP1zXjsaPazroz47plzaYfQsftsPTTTroh+tJYeOJT+TSi98+0WKNX3v+mCtw2kNLnqyneWziB1468xO/2NLp8ETP09kwyaQ/O6sjS7+5gwc560OY+B2eIrPNMWN3Enj0B7/40lk8Z+zEjW1TB/zGBFx6xKfY8Td9cOnQ3p5Yddrj5wuZfOWX9p5Us5WfdOLbu16wjx8HPV0Ert9lng7/kL5BBEx6P9fRZKPChEAmusnWD+9Wr23lVzaJyVgwUPwrrzYTzoK28mo7xw/bpG+RPodNVj0bLKQtIufw1OF1WJR/+Zd/+bQYwrAAodpd4+/40Ic+dIpL9c4o/vjUWYwsShbPWR8vnlmP32s/7dmBJ/7JK4ZuIFuwLaJeR33jG98A9xad7Iumzq9//etvWWTpZsdKZPSPV6OwHHhRZ9fJslsftehWf44XtoV/yxikoxugaxS26xVf2U1DbObNbfKRe4j4yo9PfvKTJ5yHeF/2NmPTvNLX1g2vlMXXDdxRwiSWYlJsxZcsfiS+EiBl41cSgl8/O2t3Ta7xWMJFB/7GjzL+MOlkUzp7DUovDHiNd7oi/NY65+x0Pf3Ca3xp1yYGMOmASW9+s08c+NG8YKM4fOITn0jtyQ94Xk+Td3zsYx97/CUljDBrD8O6iZcOdqhXRnxU71DPZnUlWGx/89FreuuBejxeXXtlrU0d+ta3vnWScc0GZfbTwz9nuh1ip67Y4eO7/hGb5kljhx6Y8dMh1jDV6+Opi41irT6Cr64xwc/K+BEMOumvv+gsFvjpc47fOX5+1ecnhkd/3Ffyi83pqv3SmY5f+qVfOm3n4P9BTx6BI9l88tg9N0mLvT0t58hktndq7qs5x6fOhLPnxh6eEsJLvOpNYhN6CzZ+2DbZt7dG3SWyAFj47MVp4bzEywaLh71WFudrZDH83Oc+d9rrc41XewsgObqyZ17j0+6wCDlXJ64rb2V8c6FTrzzrwrHQfu1rXzvdtFxfI334j//4j5vizSfxbi/bNWyLv5tAe68e4hcP/mwdJ8aVG4G9YdeI3RIBe/a6iXWDuyZbuxvV7/3e751ulNW9U8+eZNo7aE0Qp/a1ibcPSDPmxpj9euaUOaBf4tef+tWewNYKPJIdcxbRIaHq9w0lkXjTYW2i481HSROCt/alp4N0so1Oa4h9i/W1D9mu2xPodx9htu+QTeYYDHPLOmFtyY/m0dyzyS7jqae+r7zyyinpss7CMuaMf/MFJh2S1ZIdvrz22mun34N0jejJZmUYZLdS60HriljBUw/L2draXFOW3NKhHekLfkvSkCer6voNTP3Fh2Kjv/lcf8E0ZsSmMSEG8cOkX38XO7o9UWwMiJN41V8lkcYkop9djQl19unq8+zWf2xiG9LnfHdUZquxiTyIMMfb16tNmU7x+fmf//nH6/VJ4IE/+tWDioOePgLX72BPr+NAuGMETPYWmy1qW6y28MLFv5Xwm+hbCN9W28O1AG5JNvGjLbz4LPAW1T38W3nZsuemkz3hs+1cTNXvxYXtRuAGtIXw0t0N8JJM/XOp/Vz9OZ/O8amrPy+1P1Rf/CQh7zaa/WysNKaKgxty/SDGEkXzPT4ys+8lIut6sJanTm10RHSZZ+lUXyLrWv20Sd3Kz7Z1PEw8MmtfT5u0K0+/JIpshQN7xkrdOs/UrX7DnbTK0KGu+vSVoE574LCjRDnc/MxOsaiv4pnndFZHd/rU0TnlxVoyyDb19KyxU58PMMhMO8musZkY2shMMq7yTXtJZzzGRF96UmddmsSmGT/46xiZ/JeuJ8YlnqN+ewSOZHN7rF4KTpNzTv4tRm+dVBaAuRhdwzbB92BvtRvfHmx2brUjn/b4mcwtzuzOX/gtwquuvf5dwllxK7uBuDHt1ZP8Q2djdisuu/fa/pDul63NuDc2t948PV0swSPTdQlB5eLgxq0/tON3dhTzeWOvPQxtEoPKMGFVXnVqQ+SmP9lJp+s1WZiYrvGlA5YyGWOKzpXffJrjTTznfHftKVpJDjwyJaXwXE+ZiTevTw5e+LOVL3HzzyEmbKqsnZ+V4WpHPQ10zd6ps3Wl2K39A8Oh3pnfKP5T4dEfMa9u7Y9srT3MyrDr7/CcYWZrY4Ascta/Yaw6L/kBE9V+Klz5kw1X2I7mDRE4ks0NQTpYfhKBJvst4rEXey//LWy+F+YWXy3ItyQ23HLhvSX2LeNyb2w3VkmFm+0W8q/+/FSMp3tusl6fi3U3XvXGjqdJXqPC7WeHJKof+chHTmokJtrwJ+91pSdf7bkkD6skTXIDt0Ny4JU1e2Dg9dochjI5WGxmnzEHk88ldvjx8sNTUNhwvK515qNj+gf/wx/+8CnxIus17f/7f//vhMM5Or2ep4NO+wPpYQ+/4b3y6NV689AZfjbR60fJs1N7ttCHlCWotSkjfYnUO2Agel0nr43d/CarrK1X565h2S7kGg/7fuVXfuWE5484vP7666e9nsVOuf7jJ9zGhP7y2ttPKM0xAQc1JvBIavWFflAOE5Z68YTNRvJ8g29MGRPFEi5ebfDZCZNs9nmtbr9qe0fFRJuxos9g8l89PWTpFBeHvlJ30H0jcCSb9433M9E2J+bTAh6T7mkj+GLIW0RfZjrG4bbe25NoQvzud7972qtmX5wbePvtShQri3/7J60vbthu3n05zc3bb0XaS9erbmX7sduTbQ+gm317OMlLCPoNRUkCO9qvJxGAZR9wSZfEwn5KOHRKAv1eYu2SK/b1W57278HptyElgeywX0+yItFx9kUZJCmxZ0/Cqx7B8CUQZfOIjHY62SA26lt3q9PeuJ3tMGFpVx+P+vhgheusrC1SByMbtYtliZd6dkRk+ebsIC+5/fSnPx3LKWGUpEkckT7+p3/6p8d7q9f+wiPBtV+SfrElUyy1v/IoCdcXffO7/2PeGJDwofZw0qFPGwOSUcll4xAv++2/lMDqWzzGEH+QMcQPB+rcvlBjWx82JvDY3w+DH3v2bJI96NlE4Eg2n00c74piAl4ik8lCs5VamLbwW+Ae0r1i4N9qy7p4rlizbJHd6+dWO9LDTzqeN7F7i+1beKYv+n0PWegt4PTslb2mZ09f0v2s9V+z70Vq5/uePpDM6Tty5lg37JK3ynysXX+YY+ly06+Mf8rgrQxzll0jZ9iV41fHF+XsodOhjs5sql3ZdRgwwzgpe/QnebwSsDBqV3ZkjzM8Z7Lmfjpgd5BBeOYapIznHKnXHnVdfXLV45t48zp745ky6rSzO0z95oiK84pTLMnOWPlwQkd12Rw/3OJYXTZUJu+oTMcsS2DDz07l4u8a0R1G8pW1Twyy7Ki9p6TqO8gcdN8IHMnmfeN9F20tNndR9g5V0iJnYXte8aQbPS/979CufVe5JXHyNMoYcrjxIkkYcrOvrSdXbsg9JUvGOX5zQ1nChQ++sZpMOuiuHj98MvFrrxwvftcw0pH99NOhXjte8o501l4So6wdJiIjESnhkozxR30EX7vzSiuf9uxszZgy+CdO12zSViyrv8Sv3ZEO1zAqpzOc7Kp+nvNdMua62JClX+yQa/FzdK2+WLsmQ372rev6mI14kgmrPnVOHh7Cox4Vp4mBX3uJNB5HY0J7ZRhkHXA7qz/ovhE4ks37xvvQ9pJEwGJ16YZzLxcsjCutN6Pa15tO9cf53R0BrzG9EnYjdtgfh9ysjaVuzMpe03p67WloN+v5sy943LCNNdf2vtmb52dvYHlFCs9rTiRppZN+uI65P8/4xkvOXJP8kPdzR9mljVwJEn/Y5lWpV+3wldsHyD6v0f3GK5vY+YUvfOE9v/Vbv3WyR4Ji/6YtAPTzhU1w8cOiT8LEfu3qHM3Hznysjb34s1M9W2DG13pSm3Lt+Zt8ep1rc24LAwy+9fQOH7vwINf019/q9JXfJvYana18FD+voeGR+fd///dT7ODAL66NCeU5JmA4enVtDDm8RuebV+B0eFWuzE51jQk6bK+gH+GxrUEdG/UXHmOCP/iMCa/tiwXd6uk1JtiDFwY/HHTSjY49m6cw3P3PkWzePeS3VWhiNam2amrBu8ZvQrcYXuPVjn8P9la78fFzKzZb9vDi3+Mn/lsRu9li8UTzRvc0OvfiWMDd2PbGcYuNe/qS3Xtt32LDO5XHPja/pepm76bdbw/a+ycR6fcp+e/LQPZ4usmXxNmfp8/F3J5O+yvd0NFHP/rRU7n9k5I8c7O9c5IbN/x0Kkvy+m1XYxr2m49+d7Ok6eMf//ip3BdSXn30P63nfj020BFmX8zpf4izuwS2serH++3Ta33hu2MSnxtXzj01w2P+XVoPYIY7MdQpR8mzSX0ytaufOpWzP/1TJvypc+qDa17NZFO8P/OZz6TydJbElbSpsP92lu2RtW+XDdYASaIxEtmj6Xc7+81LiahEs9/jlQDqk/qHPfqn34mWONrD2ZiAS489nezgQ/tGi8+6Vzh72/epbyWX/e4m/ez2u7/ixsZimx/H+fYROJLN28f4rhrmIrVF8VzArvHD3su/dVKHvQU/Xuct+Fswr/n+vNqz/ZqfbpDFI5mHbMaPbwsvHDcbC/8taKsN6d7Ln9y7+ay/ffiL1rL6EqJ49Lcbfzf5KY9nHZMwV4KhPt6175RrI7tFx+Q/58e0Ab7E1ZF/kg9P6CI6p12rDfimD8pTJr87a19pyruOd/qyYk6Zh/Bqm/LVzTP/+Tl9lahJ9OlSP+0h24cA19NuZURnviiTnxgS3NmOf9LKH8bkMYbWtWfqYPfU4XrVA2/yTPzj+j4ROJLN+8T5mWpxA/Dpbi4OTUaLqMMnVlS96xbbJqOzT554LCpz4TiH7dOiT6ZbsOnzesPTFJ9e06neQgEfpRM2W/im7pzd+NWT96qFn/mk7RKR6cngxMVPftqmjg34wk6W3urIhMXe4uXagfC2KOIlk66eQoSNvzrXLdJe6YlNurRdIjdRn+rTkcyMN9ls8dRJHFEyrvNx1os1v8Rm8k5s7drg6/OHxgns7OMfP3tKU/zwZEs6tfGxvlAmq/2gyxEQp+KNy/WMszprQOPVeDZ3SzSTmXH2hLP+0Y7WMj1hauupKF71E1+dMRxplwwlr578LPNh+qGN7ex07gjTeeVXxhfNa3ja4a16+VO9sat9xgdedTBmbNIR5mwjByfsMCYP+eqnHteXCH/6zvGkMz36rm//4ydrTExKpjr9mby6mazGMzH4MccEHuXiA8taWLn2qcP19Gv2L342TXl1B90/Akeyef+YP7VGE6vXTE0si10Tys2763kDsXhYHJAJCEcS4Yx/YsANe2JIIkxuOJN/Ys/F41Of+tRbkqhLzpP/4z/+4/e8+ui12RayAGU7/hY1NsNa6yxwxeTU+MAfGGLinJ+xh62d/6g6/HSkR9mBWhzj7RwGnupcV+/VptdIcPIxXnWrHV/84hffwof3HEnQvvzlL59eb4llYwAv3MZJdovfvAk0fvBlN14HeQlhcZjjRJsDVQ9DkhH/xJ62qMfrA09xpo/tB52PgPnqZ1+c501bWRzrC2PL7yN6Td2HLa+9vSZF4u6VNQwxjx+vD5XaYdr/50MMSgcZfYeXzsYzGWsVG/ShdjbQWZLZq/j6GI9r4xeuvZZey/pgo95Y9Nq8tYFe+zcbM3Rqi5Qbv+pgOIwvbXQ4V4eHDcVNLBAeMvhR7eoddMQz+U7M40/zPr1zzoc92E9ziC4HHdNOdXQiOqP0azNPJZRI2f+A1wdwlPsZqj4E6I/+NSUZWyf0t7XBoV3fwKVfrPmgDhkT+swYUN+YYHv9gId+sbXuGF/iwk71+tKDidaPsPGKEfmu+coPOp2VbSlxfdB9I3Akm/eN9zPRZpK1L2oFbKK1X2Vtn2UTzmIPS/J6jSxCFpb231zjtyBYgOaCeUnGImFxskjMhfESP15HvORWOle38lRucVUO0/WsV+7m4jrC01Gd88SpXl2864J3DhtPi/A5f7RXD/vcDSnd84wPvz1a4c/29dqCbrHfMq5gu+ls4aXHmOXHFn59bswag92Y2SamB709ApK2fsdSwtDvHer7uY4oi6v9d2JZH8avf8x95T504PdFjfbrGb/a+t1NutXR70xeX7V2GXcSWDq161tlOqxHdOL/n//5n8d9LWlgKx7tMH7zN3/z8T5DOL/7u7972qPXPGusiw4Z5bkmwXOsY0gZHhlHJG4wtK0y6lbCA3+2zeuVX1n71BnPObnsxDPtmfXJ1x6+xKt5hOfXf/3XT7HBZ135i7/4i1O5uIm7I9Kn+tsY4KP+ct2YcM8g2/9jl/zrM2MgfmV9HElA7fvUR8YEDPzGE1LnuiSZD7DYpY0/xvrEtMbA4LcxWxzSeZxvH4Ej2bx9jO+q4dwC9ZABe/jx7uV/SPdsa/I7dz3bn8U13Ev2z3qLX4v6rL9kwxaeZPE+ZEd8nffEAm9H8pfO4W61HV9Hspewt2Jekj/qL0egm6kxuoU8BXJzdfN18+4HsN3Q9ZO2CLYbeDdrbWR6oqxNnYQSSbi0heEplpt+OrRr60mYMrvjV5ZcSixL/iQp5HtzY6ypq71kMx21zTHZOGWja36xC+EL61Tx6M9axh+ec9fxrxh08GvFid95JnTKrTFhK8OJL3vxRtOWczqTPcevjowjHOdVj7r49I9Y6GN9q9/1S7GH6Vp/llziL6HTLvnkWzKu8TcG8FeHH6lLlzbY+NmBjBnJZhieoqKpQywqN/aNQ/42fk9Cx5+7ReCtu3XvpvZQdKsImJwWjK3U4rOFv4VkCy8e/FuphW0rP751obwky0fU+RLfu61e/LbGUF9awPeMra3x3DNmuxFuxX6n8emHrX3G914Znxv7a1/Octd96IK16o1HWzR5yK48azm5zmv7ufLUQU7Z2CzZIrPKhf+inFcfntSuc/36ENZefnFkq0T63Dxd44x31q1lbdMG5TnG2D5lJlZ+qTtXX3sYs3yNf/Ie17eJwPFk8zZxPVDfhRGwoM2F9N4h2JPc39u2Q9+ziYAbs9ebW2+engDZs+mVtw90XnsaozA83XSWRBg79sbBpUPZVgiySL2npHBq95QRRk+WvKpE6hFcT7YkvPBc4w1THV7nEgyvTH35MR19gVEZpdM+Tcklm+wbLNGEla8wERtnvPAoV8fO8PGLU3jK4uUIT92U0QbTWT0+ZdeR8iV5doSRjDLKRtf8iFZ+9ed0xM8/fqGwXZ+TSSc+TxFf/ek+erzotddeO8m5Np70u6eO2r3SFn/9iPQ9nyo3BvE6jD/yMzb6HLGZLcrZrGwM6fdeqxsT5I0v1JhOJ/3GMlkHn8I7CRx/7hKBI9m8S5hfXCUm31bawwtzD/8e3q32Pinfk9ryTl/AbuXfk8b7Sfv3ZZbbGyuvvr0+dGMnax+bczdsbfrVjd25vXVu0JI4/CVPbuZeXUrEHBIH5V5LkqGvV6pu9m78dMAn72yPH10lHOkg78s8+Esk2EpHiYe++/3f//1TF2qTRPzBH/zBW7oU7nylLREiH2mfySS9sEp45jUZfmoLAz+qzBcy1cGf/PmKf7ZNObLTJm30pOME/uhP5WQra8dPb7Ykk1/h1776wTaJonYHOT+I/9nPfvYEJdm1h9PvbJb4ShS/+c1vnl6v55/X1/qPjeqcjSv4fWAxBthjTDjbo6kdGTPGhHo2SiaNCeOMXTD1aeX8sWcTv7HNPr//ygd1jUO8tgIcdP8IHMnm/WN+U41N+D1KLAZbyERtgdrC3yK3hZfde/hhtuBew28xusZX+7SD7Nb4JP+8ztPuLTZY3Fvgr/HDdtPdGvNreLMd9tYY64+9/Tl1vduu3Vh9McK8dWOfyaSY94Ps4iJxc8M2F+1zkzBIClpTPGEiXyKoLLGYmJIAiQPST8ZMCa7ExJMwZZRNJR7q0ilpLTkp8dAuaSiRZBc+42eOiXlNBt+kOU/wrvKzPfk5PqdM82HqID/nVfwr1rRz1Yk3u9K96pjyYZOJvzrnlVcdmnqTnXpW20vykuWn/pYMIn08xwTMeLRLIOcY8OTTWJvjEEbJJVkfQIyRkkQJsfb2ZEos2dm4owduX2QyBiWsyvT7MHQpHmQPuk0Etm+qu43+A/WIwCkCc4HcGpJLMucWkku86TonU9stznv07eG9ha0H5osfgWvjeyY/vMF/bVxpn4nHGoVrOvFLNqaeVWYtk5l181rb0xJbztkz667pKEFj2x45uKs/1+RX/mxb658UJ7xsy7dZv16vutf2Wd7ycOIhvNrm+FVXPV3zeurumg3XeOI9zreLwPFk83axfS7IJtW1hedJDduLvXeC7+W/5OclHPyX2ma9xamb7Kx/0ridk9uDu4f3nK5LdeJxKYarDBvWxGHledLyHv/28D6pPS+j3KV+9ITHHjVPjzwV9K8BxbB9je1f8/THnk1PDT29MgdgeqqEXHuC5GmmuaHd0yLnnix5bY6PLiRBcG1/JT62kFfGp07Z0yaYHZ6wwmIn+xAe5HdAyTQWYbouGSHjuqTJNd/4RWfjR70ywqu+dnaFXx2+ZF23PsBRT4e4ReqmjnSFgZ+OcJS15Wc4zuod7OqprrK4V8ZHB52R6/DVkUf55oxgzfP0mV0OOPjE2z+C0K/42Ku/lPEZQ64bE55i1kZH8TIG8GszjnpKiUcZboc648ETTzZoN5aNYWQ8hMtONsJurPNbHTk2N7ZOwsefu0XgSDbvFur7KDLpTKitZPJu5cfbArUFny1byYIAfw/tsRvuXvw9tryMvOK3J4bzxvUs/X2SMfss9b+TsfSZm/bs5/rdXNbmxlydszpUUlJ8lOE56jP8ytocSB2qDG/ylyBNnfGrS06dROYXf/EXHydVEovf/u3ffrz/07qxrjPpJ58O19FsV0eeD5NWnmvr5Mq/6m3tUd/11Od6xZh8q4/n+K/hwZixXflnOTuNjfbakv/c5z53+tH9bPM/zb/+9a+fxkxrOB2Nieycvrk2BvDX3pjLBjzJrNfw8Scz28nP8amMP5vwZru2g+4XgSPZvF+sn5kmk8UnR9SEbAJ1tkigyq6baJ1rwxsevmjFttioO4dNZuUPZ8vZYoCy6ZrMylc5G5Kv3vncgh3fPO/hpW8PvwXWYujM5602ZV/+nPOzxR5vfMmtZ+3scL7GS5at+M71/bQFj7HEr3O8sOJPr/NW7OIFO/lzY5eeg37yr//sqRQvN/h+OL8vCLXfUqw88Zk/AO/pkx/Pb4yLs71zfSEIhn1w7bfzlEoC0J5MiaL+au+csidM6WST5JHOElBPo9qfp3/9Z6DmChvZQo8EqHGkvvGpjs5sdu7Ahyo3fswDdbXBWsunxjN/4iMTVddZPR2R+qlD/bQ/vmTwi6s4ROq0J6d+2qA89SvP5OxcO/5iUnt2iqk2Y8BTxWxRtn9SnyFfALJ3sjEBU1/1j0C0k28MKBsHlWHYU9mPuNNjnGlv3KWzfaIw6Jlj21PPdBovyuwSM7ausaH3oNtG4Eg2bxvfm6CbbF4noRYYk9IEMrFMvhYWC0QLiHbXLVCu++Ze/NPgsLvBw3ZD6n9eV08Gdvjpw/cbv/Ebj/VP7PXaguOVnYUIpdv1vHlUH5/2Semeda59Y/KHP/zhqRpPts7z1OMTe6/F0kk4n/PX4iWGNq/jqx4vPdmjXjvez3/+82+5+eA9R7D1s28FhxteZ3La0uVVk77MznO46sT7Yx/72OkpUTeOZKa/4Wr7u7/7u9PNprqwp221sePcOCETfvr0pSRk+rFiK+OHL4bO+GG5kSgfdDkC+lifR8r1e3WN98qSBDE3DsXXujPjjF/bpPq2On07+6qEQbv+g+Ec0Tl1VN95XafY55gYeCfGahP+WScO/AijcziwHMmkU4KsHv+Mw9Sd3emoPPnJh137qlP9tEuZzNS16sAzaZWv/7MFFt/EONxLMuEaU2QiMZkydMwyXn0caeuDRnUTQ7v7ztTBvhmvtUznHOv8y590HOf7R+Bnq8/9dR8anzACJmOJ0wphj4wnEv6n7RYyUT156BumD8lIYtFWbImSn87YMtHxSFBaVDqv9qi3AM3FZuU5V3799dff87Wvfe1c09m6P/uzP3v8DcuzDKPS7wL+53/+5+MEfzS97fJDH/rQ6dWg5NSiuMbGwthNQN+4WUs283cu3BNcPSwL86VEfPKLo/75zGc+81jfbF+vYX/lK1/Z1PewLfZbx4lxZT/VFv76f8bbzetSXFY/3m1l8eqJorHhGom5taLE3fjSZ+2LMwYll815/S/OPmz6YGCc4ndNh3a8xvXUoV1Z/5CHSSd8csYqTHiV4TQH6JjJCL5JZFZS13zRNsvshD3b8ahvDM1rbfhrixcmvmjqqK5zOqft/GKDQ/s5+dXOqS9Ma0SUndM3delNfvqSbGc88amb18rsnKRdH7ODHmX93D5KfUnfHBM+HGpn5zomYBsTxqE2+oxbOK1r6mGqD2PqIDvHOkxl4wwee1e/8Bx02wgcyeZt47sZfc/gN+lM1l5XrUpgtcCsbbOMr0VuCz9Z/Ft59/g07bp2HW62X+PXbjFy7KGtfmbHVn43GjcBtNoEa63bY3OYxWiv7EP8FvYtPvIBbeHFB5fPW/jxxRt/Z1jvdNo7PnyZw4cViaUxJ9FDym7KfVnHE0d1fcDB6wYdP5kSBzzxs4ec8aa9sa3s5i6xoAO/dUvZD3+Tw6Pckyztjve///2npFU/+3D2h3/4h4/HBjkyiI3Fw9k4gum6+YVPuXPtzvCrd64Ov+sovsrO6aAT4Z86xcG4nLLalRvvUyadZFw7EJnqJv6p8ad/4CTjPG2iLzl86VaXTPNH+7QpvenSJmnUR5EPD/rHE2rjgj4fSkvoJIbTHmNCnS9+kREn4wbBR/oXHzxjMP5+5gp/CS59eBA9ro1HuD15d62uN0RkD7p/BI5k8/4xf5tGk96EMLmcr5FJY6P2l7/85bexzsXmbY1PWWExaOHYAsUWi0GLyEMyW3imvMVyjy1Tdsv1LbFb3LfYIYZ7aW8s9+I/a/7GyRZcvp3zrxvdFoyXncf4KYG45gveb3/726cbLRlPhJEk0k17Pk12k//Rj370+CaP7z/+4z9O5WJuH1yvwt207a1rf551ib4+BEtM6ICBlCUOfhQcWeteeeWVkw36D8H0zWSJAqJXclqZD9YURJd5Wlmda1hz/mZ7datMyS75KN7K87zqDZ/erp2zyzn7J85qR/zqV/3K9DoQ/C2xiD+Z7AursvaH9GpH+GeyqQ+rK+nT/40J306XkLZ/UhKp7vvf//4Jz/jgh21L0Uc/+tHT/sv59ufNN998HMOf+7mfO+3hbM+mNzRsMHaRsW0st4eTXXS88cYbJx8/+MEPPu6bdB7n20dg/53s9ja9azXMif9QECz25xYvMlsxwsffIlfdpfMeXhh7+LfakG17sJPZc95rzx7+9UbykF38vAU9SRJ7CztgPisfnxXOrfx8FrjGjpv3Vvrv//7vs6znYrXWGdOzbs8YT+kqM/HwKM86/KtMSZDz2raWL+mt3nmVWcuT99L1KjN9uCQz68+tAXvmZPqn3uqmnvV65VnLK/9axj8P7SW91U+bzvk028lfs2FtX+XXMsyDXrwIXH+M9uLZ/I6zyMLj07VJu4U8nfjLv/zLLazPnefcYvPcjXqJDJhPJl4is+9u6pY3Anc36kYK15vvQ2o8herVpfXFq3PkyY+njNrcrI0z7V43IteeCOFx4HFuLx1+SS+c9uOR9UE4HeQ9qaSDza6tB/G7hkEOHh1kPCHUZl3Ur84lFHM9mdclb/jU0+d6yiqHE3++xpec+nid1TuqVxeG+uRPDI/+KE/7qp9ncpNHDMiJfbrTQU5dRzhhVA8jUlcs1HVNJn71dEwcdcrVacefbemAl63OyTXmyLjG15gwBvSxMQDP+NHHjUM6jQl8PTXFr70n6trhwUfayXlKSpdzPCeGR39mmc6D7h+BI9m8f8yfWmMT+xxQC8O5tnN1JmmT9lz7rINtMm8l/I6H7N2KtfJZ8NgC/xa01+atMWSrRXR+6eEW9l/D1O8vCunDrfFj94tk+4sSw0t2uGnbt+nmPOeLBK868XQjd0P2itP4NP5d9y8A8dQmGfRmBQ8MN2/959q+OjhImR568Us88HndjlxLFPqxbXrt1/zwhz98wqHztddeO+ktwSGTH84ONN/0VKcehgOpJ8/uEhf19BqDk1c9wksGNWfV+WUGr4rT5QFAP/GEV4zaLoDHvlWvl+lx6BdnfEiCJAHz6lhSL6Y///M/f9Kf77ZOiVVlsWNbMWEXqr36U+WjP/RFeLNd7MLRd+TxFg/n+MUqfPW+O+DXNYqNV9t80+8wXfMx2/jpNTeMxgSdxmikDBcPfbZRsMeXWJ3Fx1iiA4mDeuPTtXoY9KtHxiIdbHat7aD7RuBINu8b75trM5luOZH2YLOlBe1ZOw7b8TLSnhjeyr8XKXYvki23ivfzwpUstmfTTfoHP/jByRQ3Znsj33y0Fy4yLu3hdJN3s5Yo4Nc/5rGEQVLVL1fg9/uHJaRu5hKIki7Jk+Ro7s/DUxIGz8+d2VtX0vWJT3zilHhJGuiVGEg45pwpgSDDLgdePM7q4+Fb2CVJ+euMX308sw1GuFO/OnHy+6Ctb/YDtjcVrzh89atfPcnjkUTnNx3iIDFv36EEvC9GaRd7MXAgNkrCJVL0I7glytrV8yNb2Z/P+XESfPQHXwmgOu34JY3nYld80p0MfImx5A8eefsz/VYmkjSqbx+vJ5RkjEnET8nk/HWVV1999RTLkmDjVnz7gCB2//d///f4vw4ps6stI8Y2mdkfxvP3vve9k24fYKYfJ0OOPzePwPbHVDc35VDwrCJwy4k0F6JnZe+T4rTQP6n8IfdiRODox9v3Q4nY1FRSUp2koLr6xE06qq3ymgRWP88wwyLfdTwwLpF17Nx6s9qBZ62bmKvOuT4m15lc150nVtfaihd8SaGzQ1vt+NXhnSSus055HtomftcTY15na+fZ5jqbal9jW/sqx3Y0Y7by1ObsSAbf6qe62af0zjhoL4bzeo6T2R7POQxtqFf5+f6T2uPvvSNweabf25JD3zOJgEnX5N8KuJXfJN/KSzd+C8u6EJyzC+8esvj0aXuP3Fbenghs5d8Tlz12b4ndVhsn3954T9lnfe0msDV+l26Kz9qmdxqeMTf73PjuCWW+mlP1g3ZP3jxdQuo9WZqJAv6JGU5nsv1cjTq8PalT1pcwZhLQ/8imJ1vwRvhn27QnnvVM7+Rb5/Y6H9lj3s16SdMkmB3qH5qnxW7K458y/KKD/3DZ6Clh+wvZJHaV0zn9mvjXruGxa8ZCeY15fdN58tNBv7rsmD5pNwY8ZYzwNaaq4/skcZj6jKHZF3SIUbTqZE9PQeNRt/pW23G+TwTe2sv30XlouWEEzi0YD6nbMwH3YtPbotF52gKv+q4rT75z1/i28pLfyhvfnrics++hunQ4dx1/cVBuAa/tWZ7pgX9LP5+lvRPrZbR52n/Pa68UvZ51w3cT9xoTedqD1Ltxa/M6041bEmpc4vUzNI1JMviNG9f2IUp+vC7Hg598v90JH58kyUHWa1X24KfX7y3SDZNeZb+t2R5Ar5fnHCHjkDw4XGsn7xpVds0e+PQ13tfkRJk+PLXZHpAN6v7hH/7h9MobtsM/iLBdQKLkwCtRhIG8HvbauyRHnF599HoYLzz7FvlrmwDid/rZKSHzqjl/yaQnPv8wwz+UkIg57IekNypOlfUFbAe7YPIlm10jWK7Jix3Cr44N5CP6/PQQDPhel/Pba3R1+p0MfxFZWwGMgcaG8TOTSbEgo05cjav3ve99j+2FJW72tyLjja1w8cPlm7GWzeykm0348/UEcOFPMbjQfFTvjMCRbO4M2IvAbgHwW2NNHjY1MSzoLQCz3iSbi4TJSaY9NXNhJTexlU1eC6YJbXFB6XRtMYrUI4sI3HTV3plN8eLxaXQuOvGdO7MH9vTpHJ862NO+S3zxtiCxH9GFJsb03WLoXzNqz9dz8YYh3m4kePFMomfKicXUOXnPXWcTua7jCyf7nC3K+tTCfo3gSVzq+3CmvTD4oM3NIN7qnbPDdTb2xKa2S9jqHW429MbPB1hbCJ9x861vfes9H/jAB043wy1yLyuPpMn+QuNOnPu9Q2Nb3CoXP3s0xVU/WkfslUPiLvHzpZieTKmTcLVHU72xRyeyFtHTXjrzxHzttz3psJb5fUR90nywtpVISKCqh4mPrc37Of4aD+xSH9+cR/GTz2fX6XCN3z5SOEjbn//5nz/+jVJ+iVv7X8XRvsH2t5KRpNuHaE3jp72p7SHUbm54Ylfs2EJnsaqvKtNh72sYbDNv9VHroDO5S6QdFbvO+T7l1Iknu4qrOrGZ/HyTvCHXdEg09V/x9Vus7dlkrw81jQH3E7HLLzh4jImevPNTbLJfLO11bV8oP8QjDONMHOhF7HjllVdO/YdXzKcPJ6Yzf+qT7rf5c4b1qNoQget3mQ0gB8t9I2CiWKhM7qgFwWJgsjqj6k2UuXiadOosYnjwq2sS4m1yVe9sYehmEzY9qy1wLDh/9Vd/9Xhxw3eJyDvCvsSnHrbFxILTAvQQv7Z//ud/Pj2NIMuPqJgoV++TtfpiOF/J5OfEcUPFKx6z/lwM3az/9E//9PHm9nTSny3VwfuTP/mT05MCcakeb/059bFN3yP1s3/UwQ9Duy9vfOpTn9J0lci5yfJz6swOAHi00VNMZr3r4uc6+5zDnvUTO53q3KCKN53q9hB9/suJJzBf/OIXH8d9D8bLwis+xo6465fml3i6iVfmj5u7sviYXw585hhZN11xT8a8cFQmh7eytcUHGnVw8KaDPjYpq4eLSi7xo86nwk/Ls07fw0k+vsYE3rlGqO/Aq10cxKnxC2vVwfcw6RObdPKXD/kZr3oHfHXFhd5kqku+sjEu5tlOXqyyiy3ph4fwkOHHOVrr8SL9FrGVznxddZBRV7tYkGeXgw4+pAuf9vwyz42JyvS5T1Rmh7J4qINvHKF4nGtX7xrV7pqdlRvH7O7Ac43440PF3/7t377nd37nd04fTovZNdmj/e0ROJLNt8fkha8xYfrUthrriZLJ2ROLtX2WLQQmok+dJvg18olRkvu///u/11hPC4/Fka0tkA8JtTjhbyF7iL9FYy6Ul/jhsUXMttjihueVWJ/GL+FWL+a+mdqNofpzZzcEse7pzzmeWWfBbBGf9epW32fduRgWYziuJ//EPndNl28dbxlXbiDGyhZeusSPzBZ+i72E2hMfYwC5gfFlK8Ego8/49TLdQNiq78717zn/faAQW/xkXSM3cVTZNZ54tSuLqzqytSejbcWcZdd40tU5+cqd2YAam3v69CeS1/8WhzkXVil2Gx94EV51DtT19KPYsDm78eFxdH0CePQHz6zLrjDTWVmM8BSr9FlPXMOrLR17z3BQ50vyD7XXd8myC//0Q9ssz/bk+IInv2eskg+D/Gx3PcvaHcVH21YixwcPNpwPevIIHMnmk8fuhZQ0OfbQ3om3FbsJ3mJzTW7aPa/PyW3FTBbeLReKa/ZmR+e9/MldO+vLW2HD3TpW8O6xo5vANf+O9p9EwA19a8y8Pv/4xz9+emJI2lMlfSNhl+R7Ao18AGrPX4mW7Qp+JibyxB+/BN2HN/I+VNg3aGz4kOum7DUpHb3OJINfckCvnzfCzw9lCTHS7lW97Ro+1CLtJRynikd/zGU2lIyoh+WgV73riC4f2sLRTr51JFtaI7ye/Zu/+ZtTrMiEV8zxs7MndOT4zk/JHxKbV1555aRDHZ/w+EDKFk8uJ9GhXszp0RfwlcWOzuqS89r4r//6rx/PS0/qvdKGg8is87A40afdIRYIbz4qq2f7jGWx047wwyj2bPb7oOS0iY3tBfyAzweHhxz8wqOPtcNBdBiDMJ2N4Y985COnMcGmxoT2+tC1mOMXZ/rFOLuMXWU2vPe9731bXE6KH/izxvEB1qPpQgSOZPNCYF7W6ib4VvtNohbZazIWg628sF6kCWrR2UrrgrpFbmtcxKTFfQvuHh4+Olq0H5LFs6d/8PYk8SHcJ23bE789dj+pPS+qnP5dE4CHbPXbgt/4xjdOCZ1EoKfHEiM3ZU/vGzf2sL756Hc3xdfx6qMvtCgbr8oSUk+3vbZU539M2xYiwdQuydTWU3s3955w61/JgL3Nr7/++uNE5NOf/vQpqeKDRIwtEgOJCDJO1Tc+5vpmPGb7ifnRH3zVV2c+o+YdmfDUs7nklj5Pzb/0pS+dbNQubn5f1JNwxA8JsmQPpsRJkmefIfuQJN2eTbarEzsY9JJpz6bYIQkQO9IhIZNUVXbNDn2JXMPxn+T4R8+v/uqvvuezn/3sqd0ffuazsj5yoObyXCvYJlGdsSE/MWBOKrElA5tdxk1Ez7/+678+/h1NY0L/ig0sZVuzjNNiR14sxYN9rzxK2sVaGRlD4iamMMgj8UXGtqSz/a5sYp+xDI/89PEkdPy5eQSOZPPmIX73KpiL2zs5Ci/KwmUhnTePh2L+otj8kI1H2/kI7Ok7vBICN31jo+SghKwkiya8khZtEihJRmVz2Y3dDb6bPn686pB6POnoSV78eMlUliThVxcWna5LcGo7KVj+aCO/l7bISHwk9XSIG3vyy7Wj2DXntONHdPBXHazJP9vDCDMdYiphqqw/YFemMxudtZVUnQzY+GfGItsfEp38+M7JGDORccO37OaT9j5MNM4aE2EWu2KvPQxtMGbsyNWuzdiqPG1gP3sOun8Etm9euL9th8Y7RODcYnFJrYlq4j5vehIbuiFssf3Wfro5PG96khg+b5sP/U8Wgfq6MxTzvnGufra51oa6Mc+6lVe54yT00z8lHZNf0+TNjuqdJROXKHu0T9x1HVvLK95sn9fxwRaD4rDyTB/IrLHEn33OlasjE4ZzemY9Xyf/bKs+u5KvHm8Uj/K8rn3r+ZrsOd2NgXRcspNsB550OTtqg9N157Brc17HyYoxZY7r+0TgeLJ5nzjfTYtJtiexYphJu5X2YM8JvwU/7BaGSzLaW7Qu8cz6a3iT1zXsbFnbzpXPLXrn+NSx5UWguaCczcjdAABAAElEQVRvsYfdvY7cwr+H59xN9ZI8O16UGF6y8UWq90rx1UevJb36nR9ylNs7x15PjjwZ87My+hmv1+Je9zYfvOr1OlcC4akRfq+TYZkDXpn7Yp16ZfjaPM2C7ykW7FcevRZtztTOBv3qdbQnij2VWuehcnPftQNWSY3r6SdcdZ1dr0+9YPQ6W7s9m8780MZ+ezTD5ad9hOylF6+nuO1dpUvc+WJs00celjIZr4/h8h+JlRjhwa9dvOCKhWv26EuEL1/Y1T5GfrTukoFb+ST46A+7yYcxY0d3/OJMBz6UPnZGbMIPM1462dQaIxZeXWvnl9i5bsyJwys/HRNwlYsdH4qdJ5n0wOevfbBIjNTTwR7t/HCdr3QiNpGj/6D7RuBINu8b75deWwv9LRwJ+9pCoL0FcIsd1/C2YLxMPC38L5PNh623iYDkr2/uu4n3G4PGiPnWvjbXEoHa3ajdoPtFBnNIYqTsFSh+N3mJmQRHuzpt/VqFJ5TpkJBIAiQPdDaHffFDksYe5Isi88lmiU/RKbFRJtNYn2c6w8M38ZJJXlLE/n/7t3872cou+yT9DitSFgfJS7+JqT4/6JIcayeHH/HD/laJHB0SVH7Tn4xky//4RvxypEOsYMDEL9b6r/6iE9nLSKdDHL/5zW+e/CXDbl/Gco2yzXXx6awumnXFm6x65Uh5HuqVS+zIiL0xmF/iMWPHJ/FpTMAQy2IHQ7IqDiW51n7bDNq+IXnko/3D2iTn4qUcGbt04BNzdh503wgcyeZ9431zbS0KN1e0QYGJb1Kz6VnSkywULbjP0o4nwXrWsZg2iMst4p2OJ4l7sg+d3Wz20K3s2GPDy8LbzV6yY+x1g3bT19a+N/4oa5dQuDZnXLt5m8tu9vjbb1dbGG7ocNMhYZXA9kRKGWb8+n3OS/iN4eL7UF/HOzHIVR9Gcy6szur5QD4Zda7Zog15ioYnv7Q5JFFIW7EjKxEUh/gkT2IYfzIToyQ7HZIwMmuswtCezpMRj/4od6jTZ44ov5Vds7vYTJ6VL/55jv9c7CYfrDkmik1+1Af5SVbci11jZGJoNwbDMO7gNC4lmvwulpLbYuUsrgfdPwI/G4n3131ovEEETLK5WFxT0eJ6jU/7k2Cvi9kWPbfg2RMTN4duNFtt2YO/F3urDXv49MuevsF7S7u3xo8d8wa6x+d3M6+brBt25Hq96UoEGhP6w82aHFImM/vJTTz+cOe5pCAZvOZWpLx+0EhfPGtfK6919DxkR08Bw5QgRat+9eqmDnGasaNPMhStfq1x4v8a61XHWoa/ykjWJ61+rbHDO31l54yTttmOn2/1l/Ian8kPa/KTi9+1A//Uqe6h2NFpjCSD3zicetdY4Z/jCu/sL3HJFvgHPZ8I/GzmPx/9h9ZnHAGTf07Ma/D4t9Ie3HhbfK7psLhbMJK7xt/iQq6F6ZIMG67xTFk27ImLhexFID5u9XMrX35t7Zf49573xPAc77kb7V4b3on8npjZd+lpj+TQEzHkXELV3LNHUxwlOerI+B/W9b2nlOrNDfPPfk0Jjyd/+sTTU+1eeyJyZIw1iRK89oFqNy/xsos8WVRycCo8+sOebMhu/A68c41pXEtotLOPrOsSkJmkrfM8W72Sxk+W3ez3BA25ZrO4wlIWZ7yNQ7Hwbzcrey2On60Or37FDTYSF6SOTWIBF6+zQ6xgIPrJ4KVXjMiS0zf8bY08CTz6U3nGrXjF46wdTocyHUjdKsOG9IkH26oj46eJyOBxFht+8Amv2PUUEr/X8Hgd+tEYsoeTLP3axQ0O0oboFgdt4tZYcY23nzwiv/pwAjj+3DQCR7J50/DeBtwk9Rt358jkteiYYFGTvPI8W8BM5hZFbfjROiFhm8gturM9meQsTtr9Lhxs7S1Y6i0aSJ02CyG7ezVisYqmL9VbPOy96dVJ+qdN5NW3QLpx1q6+6/iU1Vv8xAT2Q7jZ58bB/nxRP7HjgyXe8P3W3GpDfJ35asEUv9k/tZ876x92zJid41MHuwU7P9VP26t3dtOY4+6S/eQlIpMXLjonY1yxxbiOzvFpgy2GeBtP5GcCEcY78Tz7Zot/xo1xbHwaE80Xc6IyTPFzY+9oPPd6E4+Ya4ep3Y0dXvPE/EWV6Ui/vlImnw30+69e9n3qb6TOHsr6vwSivm58wzU/8KfHmZ3ObEOuzWV+hMEP7dqQ6/ZowkOw2erMV7zZrZ1dyj3FhCFhwo/UV+YLu/HDdxTnMJXxJVN/wWW3tmIJX7lY1mY9/Pa3v32yQR1s/6M9Uic+zqhzfVO7tmJVPNRF2sJxjshrcxQH13xgi3Z4+RFO7eGInTpH/cxXuhxr7PAjOvCLHUrGtbGpTCeeg+4fgSPZvH/Mn1qjyeVHcVGTvYXDwiqR8aO4SL2jiXqqHPW+fWozdotBMpN/Yrv+7ne/e4KpXiE7kneWOPpBXzePWe86/jDY7ZN6flU/eSeGpwYW135AOv5w8SL1khHfaOxHldU5zvmo3oIkHn1ZIl544YdR3X/913+dFjGy1cWrHL+EzSIq5upqu2QL/9yALJTXyA1QHOG22D8kY1HGj7LF9Wq3On6J9zqutHXTDkPZMXnxReHjd3jqIzn98Y9/fGKpfsZEg3p1nlDY7O+moU6i6vxuIP4bP/p6C/lg6Es9+lqM+uFrc622cMwTP/pu7LgWZ1/MEGf9qc54NDeQBEq5OUgH2/oyCHwyvqhBdx9S+9KRxEOiCVt7cwdG45fu+plOPHhrFwcxKbFwrQ5GBN8cmjTnEzw+kcVLn/GVTPjmOPLhkl/54Zo9YgVLHODDYIeyD3Xxw8j3YgfDug4D+UDKlsqSJUlyGPj5WX+SYTcMZ3GaMajdeaUZT3Yp8zkM5Ul81Y7wR/GzgUwHm7NTHMz3/LD+wKsMy4dJsRZDMbB2u4f0wQePsrGDxJc9s3+MzcriRKdxKTbWsdWnE9Dx56YROJLNm4b3NuAmyrqQpKkb71xMa1vPLRiwtvCbwOiS7hXf4mMhsfhcI3xoCy++PdgWI/x83LLI4GXHlpiwpf7YYnvx2IrNlmdF7KzPwzwXD3XneC3UW+y2uJPfwssOuOKyhd/Np74kh9S9m2iPv70pIHOt79exsMqsele8tQ+Sxxf2OYy1Xbm6rmGH4Vp953g60+E4x08mG1YMiZO1rfqTgkd/wr1UVj9lXNO91iXvrH3aN9tcrzrVrfwTX/v0a+VVXvnPlVe9Kw49U25ea0PJrH3wk9af2Rlv/LXPMnz9MvVonzz0zHUS7+QvLuEf5+cTgSPZfD5xv5nWdeI9S0UmcEnhFlz8c1F4SGYvdp/AH8KcbVvtILPH7qljy/Ve7BL8Ldh4+EnHObpUv4UX7lzQz8k8ad18OnINY48P17BexnZ94MPT1vEsIbenzRMlct56IE+PPC1rvxu83i649oHB0f45cfd0yBNRCRkeYxMOPuRpnLb6Ez8dZOInk058ZKc/1pc+fNBZmbxDnaMPGpVbl5Stgdrxu/YhMH52uhZH7QgPG5AnhnzwpL3Es9j1YZLPYpUfZPmqHCY/xY5d/DwXa757Wok89YWfj+TVearHVnbN2JFV1p98JkdH6z+d7FJ2hNuZzmIHPwz1+KNZrw4uDEdyEz+95BA+8WrcNSaKFb9mLMkoi79+4gM/jS3+IXHhP77KbBFreumD68Nr/jYO8fWE/SR8/LlbBI5k826hvo+iJvlWbeti8pDck2A/hDfb9thBrkVvYjx0bdHZSrAtSntoD/6tsdm/lVqMt/Dv8XEL3uTZg713HE4977br5lU33saGMVjSWEIi8dEu6dHu1bKbvWs4MBq7+CQBMLze1H/xpUOykA51JQ71tbPXoW+88capWyQL9nB6dQyLXZIUdSWLJa62oeCXOOCD40yPZMNrWfh8euWVV046sk8S6LdAs0Ni4xUr/8jTSa6kVDzCZqj6GU9+4ceTnbDVI/XFQRzpwM+ebIi3M9/IkCXj3FsrmOrEHxaC5bWyI1y2wE8HXm0ORIe62tUl6xqxJxzl2smwAQYKg52Oytr4mp34bU/Qrg7+9Au/smQSDn29PlenDK944ldfXOH3oYB87c7Zrh7/QfeNwJFs3jfeh7ZnFIG5mG2B3LO47MXey7/Hli2+PQ3Pi2TL0/hxyJ6PgNfokjVj1E3ankzkSZGnTNoiSZp9hm7YbuB47Hsja5xIDOy/lGghSZtyP57tJi4xqexpEqx0wFdXGZ5kkU0lCBI/ZQkJPIe9vLXTS0f78SSGkpb8Yre9pmQkFxIymG+++SbRxwmgdrYh8my2lw/BUJbAIvISnuwWF3ZVpoMMG1oLPJHUXgLrSVv8MCVUEsP2KoqLBCq/YPJZfyBP8cQ7DPJ48hsPG8WGX44S4mzSph8rk1GHqut8qnz0B444RvFXro1cCSW7w3HNx+w05vDlh7JxWRmuDxQ+cLSPlu/axQfh92Ghfx4gFigddM7YiD0edrB3ftA4CR5/7hKBnz0vv4u6Q8mtI2Ay7UkgLApb+fFaZLfSXuwWqy34Fr09tmz1kW4L7F7sPfh7sC2wt8LeEud42LDH7uS2nJ9kzG7BPXguR+DSmKpeXzsqQ1r7f7alafJIwFY6J7PyvBPKz8LPuR7OuBafVcdaju8e56l7tdWHigjf5J3X8cwzrBVvth/XL08EfjYKXh6bD0sfiMCeBO8BmLNNe7Hxb6VbYm+1YfJdWwQn757rPTGBuz5JuKaL3VtiudcOel+EmDyJ3ddi9k5u12ee8jh6wsPfnoypj4w1PJJECYInSp4iITf8ZFzrB/z4wtDuiaQz0ma/o1fePlAoe9oWPxwf7OiQWLHVk07y8GtnE1mkHh8eZ08EyaYz28NQpjN+OGSU6Ub8ZBN/4DvwJePMxp584vVEzhkvHbDwIbLqyLBROR3ayeBnd7FQl1942neYDrHwwTN++GKaTrLaihkMNBPWn9T87G9txQGGuofWHO3xQ+KbMvuRp4rzwyP+6RcbxT+/ks8vGPQ37siLHRm+IbrUJzNjR1f4xYaMeOFnm+uD7h+BI9m8f8xfao0tKrdwYg+2ReXdQBbjW9CLFL8XyZZbxPp5YkrevFaW9JWwsEe9ozknkZFAeS3tZuxm7qbtdXA3c69xYUgoHCUAcNQ7ezXsJq9PlSUK9MOXQFTGj6cEQBKgnayfB2ufHgzJJhtKriQ35gV+SRlbtTlce83dmErGF1LyS7tXtCVNdMCHJdHpVW+vy9mMYCF84umHyfHThYdP7Movr4PpoBf/+973vhM/GWV4sJA4iCn5Yslv19XTASMiw6/08oMuvlQXHhl2aUPaHeqKg+vq8bCvOmXX8OJXhx8VG/FnQ6SdjxJ+8mwsdurwqjNGwuKnGNEjBvrjve997+mDDD34HXj4Yxw4w2+MOdfOlnQWc7wH3TcCt7mT3deHQ9uIQAvvqLp62QJ0jdEEbVG5xqvd4rEHey5i1/Atents2WoHvS9SDFtIr8Wj9v/P3r3z2pZlBx2vjwHINLe623a3u9vY2AbZWJiHbQiQeAQgiIzIHPJBCMghQiQIiYAAJCJLvAJkNw+7311tbBBkJMTc367+nx41az/WOnX2rntvrSGtM9cc7znma+y15t5HTFq0w71EKX574r3H5t5xcmwU26Pr3OH3vve9UwJnLPVbpn4rUkL3gx/84EmZcf+Hf/iHT5u8Tb/fShVziYHfS5SoAf3m/Jsnl0CSKIHotyNt8PO8pASBHv4A9vzOL53Nffxs8q1x4SyexAFIfvF21lESYi3IzxIddeNV8iopq93R55lNfmp3ZwD55ClmTzLFSuw6T+npLd19sUlCJOmj0zzRRjj8kmztZLffJ9aOkqdip66NnV2UYEnua5c2TB30i3ftovP9998/Jab0iJHSdW7ewq3ziO8rv/o1oIctsvrLveQYvrq+yk+x1tZi5wMLmX5fma1Xr159JHba3phA12590896ib22dL5Vf80+13fq3//+90/t+8mf/MnN+xJ7B7xMBI5k82Xi+JnQsi5OL9no5+i2wG2FcwvuNdk9uvfy7vFlD6/27PEl/q2x36v7WnwP2uMiYAyVNDSe1EsK8qQPNnhcEkeJEj5jROIkMUiHRE4yWx0NX/V0VGdHklRdMsImCNcTx+oSLOOuOn8mP99mHV/83Us0kuejdqiHW9u12iQzYzV1sM0ev7IXLj+KXfbQ2RDfcMlXX/uHDvGOTjcd1ekUu1mH42tAx+yfScNDp2sCvybfvMfXuEqGT31IgMM/Hwzwb7Ybz9qOOSb4i78+w8+n2Q7yoLbrq2mzfuArnrWNJ+Hjz90jcCSbdw/xbQN7B7/J7NM3uWThgKcRFlef/kD4yTvxPmmagG0oJjFo4rqHc9HtWnWv/Nmk2z1/QPjpS7rx5MvkdT99oYO8T/0WJZ9i6bAAAbQWRLwuC48nJl6LtTCdmC/88SrRE4c2sgtsT2g+8IftW8AHn8j36NY2baiNbLCl3doafvIU62v+kMen3AJeh9X3ZFz8qN3h+OMp1srLxuTPx85YxR9+8qZbSXdPuNRtwslsacfbzKO9e8B4F1+lS+yAmKmbz0D8zKeeNOnDYovXPZx5apyp41dPBz4bOhv6Dl826E82/mx6ilcikM1pA3/zpUSEDesC/fTQQXbaROdT45FPtUM7A/KSYHbQ3fO1dYTNGTt0MrUDb/JsADbRyWYz/dmgPx3k+V7s1OmoXerFkn7tojt+bSXPL/oBefXAff5NXOtrcpOHDHq46smTiVaJll0+FDt0PvNTu/HM2JFjq1iSU2dDfxVL9MYpGXU8jYliVezoKXbpJ3fAYyNwJJuPjfdZayaKCWgiNEnPMv4QKWH5uZ/7uff+/b//9x9jo8sEbnH+GMNA4PWp0aK3ld+E3sLLTJ+0t/Dz5atf/ep7/g3lLfApVwx+9md/9mlDIB/MRS/8r/7qr7736tWrWK6WZKaOq8yviXv49/Cymx+VbYDGS2DcNHYs7m3c0S+Vxhq96b7EBx/Plr6kFx+f8veabjQbxFbd2oc33bXjlo13gW78aL9+3gJf+tKXTuf8bNQu80Zftt7YhOmyeZvbYtnPDsH1/+31JT79RF7Z60qJAxx5+pr3+gefxEiZffoDH+zQ6LcWWbt8kOaftvaBtbGBH94HH3ZKQLSLf+xrAx4g4aDjC1/4wtOTWbiSHX6zSZYN+rSLfq9qxbo29Buf9LLjnCF+dDob9+jkvdbWLnrx8ImctolV7SXnw3BybIod3fhmwswmoIc//NYGsdBOdgC72TwhXv9hFy9aY4hP7INixl84VzL40dXJT+ArvWj8EU9rNFAvTur0oNM1E2b8cPSIRXaNlWKrzUBM9I32gs6t6lN62HQ1JtyLRX6KW20+KTj+PCQCP9qxHmLuMHIuAgZ+E+0cfcXZBEzafs9u0k1Ak/gcbfK5b8L7QWOL1S2g20TfopsufnrN1lmoa/otFFt8oMNih9eiaAHRDhewWE2AF1/xcl0CcumYPJfwk8dixo8twMbq4zW5VXc+rvYmfovP12yeo9Hpyx9b+t6m4Elv/9f5nL6JM6ZsrFt060vjqv9zTI/xbiw8B/b0xXP0v7SMsd9GvEW385Hf/OY3T0+ZxbizcRIqcf/gh78/SZfkCN3Ysjn78Pf1r3/9NN/E/dXrD2vzzObnP//5j/xvdE+mbfb6Bki4jAPnQsWZPef1vvWtb53oxrZ57Dxfc/Pnf/7nT2c6S3h9CYfN6JIM/jW22BSPzgQae5LVzmxKbCTM//W//teTTXQfaJ3faw791E/91EfObLJp3XIByQk5ZzCB2MHVDrHypJ1N7RQrOHQJJf/EKn46JGDOpXa+Vd0Yrl1iJXb1lzH/uc997kkH/eS1I+C3eIqVtqFPKAFszBtLfC0OeNXR0eaFBo+X/tYxcQnQ2PfmJht4v/3tbz+dDbaHGAPGJNAuyeIHYxzSoz/Fjh3j0DimG5A3DqxHoH7qdzb1D72dd9UmHzbooPvHf/zHT20z/g54XAR+9Iz9cTYPS0sETEyT0qTYAibVf/7P//kia4nHRYZBMOG28m/lS732bJXZypduJZnVBty8Jv+1+2l/9sPEX5PfSntpfefs3sOGMdoGcs7mJ8HNeD9Xz3M2Du25R6ye24Z7yPUlCjGecdbuWWd77V90iVKw8oe/VpLfE2M29tg5x7/akzRNWMcK/ilzLg6T7n7VMfXPmIVf2zT1xTPLmcSFX9sRvpKNS3q1qWvyu5/tXXWcs5mNyvStJfrabjzXYoe++oN/ytA7eVY/1rpYwq14tg54XAR+tJI8zuZhaYlAi8DWySAx7RPwouo0KedEXOlrPdsr/lzdwrFHNx1b+VvktvL75LoHzi2al+S39sMl+XcVvyeGe2Ig3lv7He+5Dew5ffYcmT3tehN4i5e+c9+m7V7Mm3d8jR6ejCdBZCb/KlN/KOOnr3p600FfNpTVyQTZ5AM92cCfDF460fCDysm/4umMD40OQMa9a7YjX6cM/urk4sfrXkmPxBPf9JksHpCOYo0frzU+P+mBmzqmzZOi13/wezqKP3o0uEsQTUnHVuDPCnTkazS+1E73QIlXiT98MmjJoBcL9PiTwQviV5/yYkkGjkxyJ6Hjz8MicCSbDwv1m2nomHhvZr8cXh0ReIkIeBXrtxl9OPOEx+tcm65X6ua+V69Kda+GJTteX8K59/oxcFzBa2uJEl1efzpP5wJekdLhdWcJAhr79Lu8Wvc6t4SBDq+66ZQoSRi8kmbfxX+vjDsmQT9ZeH46fqM9778+ApAMP/G46KaPvAuOjFfS+AEeZ0H5r11eaaN7lc+vfO81NDnnCp2b5y+6NtKdn17l9jpZoqQNXvuSFVc26ev8qjhphzbRQ4Yv7MOT0Yf95JO6V+3ZYJff+pO8S5vyWTvpo4tuCVhQ3NSju9c2dviAHw2v8hzAi4W28Udd6VgD2+zCiYV4KfFrB38DYwKNTRcer87J8kk/eY1e7DrHS4/26n9+s4mfHFpfqjV24A54bASOZPOx8T6sXYiAhWguOBfYDvQDI6A/5qI87x/oxmHqE0TAryo48yg5smk7gqMfbdg25X6bEM7G7Jyb5MJmLSn74Idn6dAlbc7VlsDYzJ3P7IwmOckFm8YO/XinTckKfwB7kgo2JRVkJAXe2pTw4nNWkl7AD2sFv/FLHPhBBo3f/CSTD74ooh3qJR98UAfOcPp9y44ciNWf+lN/6ilpppNuPgL3Ejt+AHRfVmQ3nXgm3MLzK33kzvHjyQc80wZ+dX0Q4J/17tOtTkY9XLJK/uDJJp6SyMmXbPQSZnWy+r/zrMYUveLPtgTaB5jOw9JrDHRmkw79S0e2xd73ACScQeMKv7FtrEvMi9GrV69OOthufCZ7lI+JwJFsPibOD7NicTDxtoLJ2YS8JWOiWsC2Av6turfqjM/h9z2698SkRTlbL1HuiXP2yHyaMOPrfk8M9/jdprdFRkw+7bhs8fNN4TEHbdJi3D3fJAH6tCQODh3epa+Ls4QRrwstmbXOBpmSUYkEXPxK9Oru8ykcP5Lhw0ong56NqYOsuoufZCWCYOVHpwekMx/g0xO9unLGBp1csRMTwC4bATzZoOQyXHL5FN9asgPw84PtZFfetc7W6kc8+VFdCTfx7te2T3736GzwM1vK4g/vKtaSQnqr06EudmTab8QlHvLos04mG3jZjO4DTTbI3ooxHw54+QgcyebLx/TQ+BZGwGJkgVrhEn7lu1U/p/seMrd0HvTPZgQkP23cIuB+1uFs1sZ7IBEoYTJ+8c9x7HW5zXvCWi/Zw4PmqVfA1jmb0ZUShukTf/IJnU/TBtzkV++JpXsgIZpQghSOT3wtWdFm17SLt6SFPP4Zm3RV4ol/yuYr+e7RswkfzHu8JVXo6mIxeZKrnPrhand+sQmnnbVl6jtHr+3pJpuMcm03u8ZVQG6OCfjiH49kMX/O0fM/fnFwBXzKv3BH+fgIHMnm42N+d4v3nFjrxL7WmDnhr/E9l/aS7ZyLGb9r58Q/1893QU6s20Reuj17x8lL9vtLt+VN0+c82y/8wi+cNnhxdjZQ/Dx19LoR3WZsw/eK0+XMnSTB+covf/nLJ37zwFk6F37n5fDS4VwnutfmXm16nayOJlFQ9yaCfTxeUc8+78wnmjOZX/va157OIvKTzQnmJj662cjXkhuv1slop8TFeT/8neFDk4B25s/5QYmlGNDhvOX7r8+ASqb5WdJNF1D36ref4mFHLGbSS46ufCLDRrjJS2dJm9iSVRdD/OHItC6RAWh4XdrHx3jS8SHnhwksfeh0JRc/e/BKAE8nGRA9fjjtqk1K/MZPgNdrbzjy+rpL/NnT72LOH6D9PY1Ec6zBONBnbNBFzr3Y0+tev6O56HJ8gn33dLjwO9daG/PzKO8fgSPZvH+MH2rBRDWh9sBW/haDrbrp3aPbArCV3+KzByxGB3yyCGztm+dY2arbGNk7Dp/jz7si42zbN77xjdNmbgPv9yhtxDZv/xNc7F2Sss5wShr8PuUH48ymOeRsY0mZTZt+X3zRLxI6CURn6SQV7DifR1YSILnNB2sVGectJQV0SF78HiI96hJV50RLcCQUdPl9SuOAvMSjc6DuJVzO+NWuX/mVX3nv1esze9nwO4u+ANSaIKmWPAbwkriAH6742XXhadwqpwzZ+KNNuns6k6cvfn66nzbh8MaTb9lZ+cNPGfoC9tmcuPws1njxZXPyTj3o2S9pr13q+tc4A8aEPvX7oGQkk/q0cYfHF3nUyfJRfxmHPQFtnPVhoSTSOMFvzBlHxkDAFh+U+v6Ax0fgSDYfH/PPjMW50N1qNN42MZvQNbBgeKrQk4JrvGj0kbk3aMO5Bfnedj+J/nv4LAZvWxw+SQwfKWsz3QMSL8mfD2fmS6+UJZN0lRjSqW4Dl2BITPGakyVGnk7ib9PHT2c/rs2GRCUbEj+0bKibi7MucaCXDUDWxQ/6jU91dkBPq7IhWaG3unZpM7vmPJqxSL6Ejb0SFTr54wlpwO6t9YJOvgH3ZC4BvtoXz7k1Ca5Ej0z6k5lzKpvx42FjlbnWDrSpk+zUl91K9LUdxTQe8QbpVuKpf7TRfWOgdlQnK5bW954s49ef+hUYM2jJ+LAApg0fbKr3VBk/f8iucTopOP7cNQJHsnnX8N5HuY3gK1/5yscmjIlrsfVKBw9oMVGaaEF4i6zJ2iJyaaGFp9sk9h83toCnGH/6T//ps4tg9pv0No1f/MVfPH3ShZuL9/QbHt03Fi060SxiYC6WbMTvqY2FMHvX/KeL7BZeevbw8yefrvkQba9ucsUkHZdKfrQ5XOIJj9cTh/r+UnzwAWNqxnvtbzzhbAb637gN3xiYbSluxizeaCUcJ+HPwB9ztfF+q7nvv34dLM7Fqv6p/+oDJZrLfXRy4dxHW8v6DT4b+bbyqsefTaU+n35GS37qix+N3NS5ztt44OeVTDbTXzn1hqu8ZCOdl/jCrzbJrbLxXirx5+Pqzy2Z6Lfkpg0yK391pT6ZbWi8WJPRkg+PN/yUwwefPronb/Vk0qGMlo61nHS0PUD2gOdH4Eg2nx+7T03SJ7zvfOc7Z+3bhCV5H/zw9ddZpoGUQPjpEp/2bgHdkrbvfve7t1hPdMnpn/tzf+50b6K2wM6FAw4Nr/9f7tVcfBlZF4jqStcWwFdCfYu/xXD145xcPmzhJb9HN36xWp8ewJ+D5+o+p2vF0W2cbOl7iVD/EnBL/3gi5sxW/15utT3rNhRj0CuyPlhINrf27dT1Nt6LZ5vrFv893THHfTjrw6IxJcEH6RNDTw31W+cr9Uu/s6n/OwvnnrzXn/qaLD0+YKj3pEn/0MGeD7/40JzhA9pBB8DriSkbzlT6oELOK1JPJetfaxug15rltawPncYE2+S8Ev/Jn/zJp7Zpg/HV01H6fWBpbPKNrWJBD9+ad+ro2h2g80mJpsQXD5x6NuKHd/GTfhcIjw+Qm/ryYfJPOrvTHh3q8avr//xT5ns+8gGQyZ904p9+nxh/+Cd5+lzGhtjUBuOPHvJw+swYEHeXvsAT3Thkjx/2OvuOPk2/MUSOHqBv6WfXGDLOxNcYIQPI0MG+McXWVpix2ipz8H08Akey+fGYvPEYE6ZXWauzJqHJcYk++U04vCb0Fv42lS287PDTAq+8BRYFflik5gJ5TY4M/7cAXn5cWmQmzX0+T/wWO7d4ivktvujTl3DXyvy+xvNcmr7c0vc2NX245QMMX9qctuiuzxsr5C/1Kdq7Bvq3sbylbc6x+V1BMTJ/O8dmQ1ePhu5yVk7f6UObc79/iCYh8CpSP6nb4L3edG4TkEHr9abE0abvfCV+m7/52v8DL0FwDpRNbWPD/7o21sjA8bFkk750oBk73p6USML9tb/2155+3JxfJSfu0df48aPkiG52lXjBxKnjD9CAMj51snMdozM82rousl978eVD+smsds2BfExGPZlpH70YRmfDFZ+4uAA96Yp/reMraXaPb+4l8fuQ2plMY8DVmDAG+aWPg35rtRhJJo2x/OevD1E+FAFx4bff1WTT2LYPOisaGCd08NGYxbcVtGkmrlvlDr6PRuBINj8aj7e+1iK1pyF7Jl4L0xb9fNkLW33Zq9sic01m0ixetXPiz7UF/RbPObm3Dadf2nRe2nfx3tPvn4V4v1SM25glXDZrGy2wyUsUOtcGZ1NXJ2OzVtrQ9bvNvHofIiQDzj6mQ5JgY86GfmUzun7LH/bQ6UAvkYCnA47Nle4pGFw2JLfqrmTDNabo1lbQ2OFHEK76pIW7VbK16iFzDb/qzN8Vn54Zo3O8cNfm6Dna1DPv82HaDHetpKMrv42R+qtx1JjgkyeU1cnof+NOP7Y2NA7QjQH0ZIw7kI2ewFc3lsnzQ3vo3Qt747BX/2eB/8OPMZ+Fln5G2mgy3wv26t7Lz+9zC+K59liEtvLaBJ7jyzm713DnFutr/G8b7V1v39vWH3v8XefKS/XlFj0lYXi3+BHPOf5o19pubbgEdJ7zecWt9fSt8pf44r9VPle+mKY/PZXh95Zb4pvO1VZ1pWv18ZLcajN5/GiS//kBYOXHl+31Xl2iOXXCHfD4CBxPNh8f88PilQjYKObCcoX1jSNdWlzfOEcPh97JCBh/c9PVSOfdnFH0tMcTHmcbw3vtjQY8+et8pM3ZPKQPv83dPX5PPz3l8eHNWUlyXlGCzkGyA9DcO2dJn1eRbGQTjr4SCiX/neP0KpTN6D1ZogtPr1891WIfL9DefD8hXv/By9+SlDVG+Caup6DZTI+SnWxVp5tNcZswbU68e7Gs3er5fM5mdDye+gE+qMefT7Ps/iTw+s9qM/wsZxzgeypY7Cbvql+dDf0RP33GSX6ju4wB/huX+run5fQbI/YA8aQHn/EA2DAm9Km+BvQD8SYHrw8b6+SNPXz8MU5X308KrvxZ43KF9SBdiMCRbF4IzNuKNtn2TCSTaCv/Hl7xa8G5Ryzp5veWRWCv31t03qNNb7pOi/k9YG//3MOHd0HnuXFbn62l9saP5rIpx4feh76JmzLmH9qch1MH3vjjRZ+QvNKcdnWvLPFLRv03f/M3T1X+SYb+/J//809rGJmSXUzqkpuSsvTAT6gN8O5bR/mvnv9kZrvin7rcrzLRwxeXiXefX61vExdvpVjiA0o6k4dja4XaET96MvHXdvXpZ/T4yWZ/6kFPf7Eim3wy+OCmPnr0MVx68E8e7U4X/nTHn8/hK/GCKfsh5vLfdbxe5jwotyJwJJu3IvQW0vdMpj2862J2j9C0EF3TzY8tfOnYwo+nWEzdE5++lyjvpZdv99AtNsXnJdo/dcx4T/y5e21zHbAtAr6s44sSYuyJUz9+7kmRs3LzSxSeCPlCkMRMwoYH3RMmfW/j9YWjzrw5B+pLGXAAj0QFDniCxG428HsiVV1SwQdfWuqpoCeX9DlfJ3nA7wtE0fFLHks++Dm/vNEYLWEyVvgwx5j7OUdWGt/DJQ93DvCxmd14yPFhBfhsK4PuswvffWW8lfTXzskfffWphDsfVr35RT4e+uNT5mc2ZhldX5HDy6YvfDXujAl91xjQn8ZBdfo8gfSFImPAmCNjTPV01Dj2BaO+mNaHi3443rg1bvoyHP7GER/JXWvHbBPfDniZCHz0493L6Dy0fMoR2DqRnuPmPXVv9adFtA3nlhx+vNd8Tydd8/6W7ufS72njnrqf295rcnv83cN7zeZnjWbTnhunumtCyUg4rzibM+JOfsZfUlEiQgZtrdvkk0Gbr0vppiMbdEgc4leXYEw6HyUygD407VC6sj91THly1oJJn3FBn4DPta41q0zJ1ZSd92usV34+1i5y52xOfbV1tmO1MfnX+9o1Zda4kJmxIzP50dcxMfsHnc4+KKgDyV9Af0lkuHVcGUMz3vhnrNzPOh8nP7234pntc+UnkT2n77OKO9L2d6znTe65QNxqHt6t/CZdi/ktvej47wXPaedWf+hu8doqc692vil6jZFi8tI+7e3Lo0+294CE0b8HdA7OBty5NU8ZnXcs+dO3kgDn4fSHyxPDeVbOEyaJgEtS4QkjnATR+MBLH1mA5mIfv6TB5SeVgH7kH9+sK/zjEx/7WRt0P4fU2OvJZjaV7M11KftszPUtvGRk5YdrHazk37ySwUtXdvG7x5sN94H79OfPOb70kUuf++xmB25CPpLBE//0Bz9agJdPoNi61wfq+QkH8AMykz+b6UZ3ZVtiaAzoU6B/jT1jgh79Z0yoB8ahc5zGDH/0uTHiyTs7xiV8ZzbDs8F2Y9IT+Pwi46m52KDvAeNcO8jSf8DzInAkm8+L2xsrZZLvgT38e3j5sJefTIuD+2tgkbMYbQF+uKZu98/x75q99L+03ms2PyntHnH4pD4d8pcj0KZ/meOjFJujjdaGWbKnz23yLjSbaBs7HjbI2fQle+jGNB3qNnoJp7oLzUUfPUo6yGcj/fB0gOzg4RO9Lj6wCef/Yv+dv/N3PjJ3/a9zfGwqJ8DRG0ho1GtDvkZXwmlvNuHYBumqHi47Ex9Nib5CfpBJ7+SZ61n0ZPCFmzK1C221mY/xiwVc9i/xoxeLeM7ZpjcbyWRDv+SbMdKY0PeNCQmcMYLXOAzibwyqN2bYIYPmAuolru7xJgOPT72x3tjJ3q1S2+k54JNF4KMz9ZPpOqQfFAGTpU+CJiwwyUxEn/JMtv4zB3xgMTPxlCYf8KlxfgKMly4bionGHjBZ6e9TKlp6Osdl8WEDzSdYTztagFq46HYBOBcbfFVumdhk2EjPSdmFP3jFSXu28NPryUq8Fs0ALQifH+yQSU59xeGduHjpTHd60fSPzdc9uXjU40snHXi2wtR3Swav/vd0QP/U7/wwnpT6vb5vDPINLr/w6QfQmKXXdWnMaic9xgY9xqBxlU62ur/VjneB3jze0hYx/f73v3/qN/HuXJvzcM5z/sEf/MGTGnFUr3+NO/ziL7760Tm45rqx6Qe7XaAnmJ3h1E9sZLMnTvwB+tN/LOqcKBwe/0mKf8B/AmK/NUEbGmPoaMaUi49K8YFfAR40h6Ibj5M/errwpVvZ+IXHgx8eZEPbgvRoQ3qyF645ghewES9c9/Rnq5IueuhwH3/4/Ih/6q+tcOSsk/mQ3CV++MaCe/rpY7f+46/zlY0BTzbJNAaMIX5Xp+cnfuInTmc2PSWnU5//4Ac/eHrdzoZzl86CAv+NCF82jHljuXOi9Etw2eCbf7l7ro0nZRf+FNcL5AO9IQI/mhEbmA+WNyMCJopJbEEzEYE6vEXK5Jr4vG4BRMcPTCL4Flx1YEJPHXRbiCQbJi6Yi9ecvPAWv89//vPv/e2//befFveVh46JszmR2wIt0lP+mtzv/M7vvPftb3/7GsuJlu//9J/+06cfDZ42zrXZJmuD5dMtXq+DxNoPDk9extMdXvkbv/Eb7/2tv/W3nhbaaw2QAPba8xrfc2n089H4aTNUL/HUfuOqDWyOn2yeG7PGlb7Hr82NTTKNWeMSnj33bCqzmf53vRQfMWmM3GqvRA7okynTPJ/y9DYG8YstnP45B3jjj17fq69+4m2sTP6pY/oFT8c5QNOe2jR1nOOHiyeZ+KbNcGtJJvlJC6e8xIOfjckLt/LPdTm6Mrn1fvLjqR2Tn8w5iCcZPGtcptw5/kl3j4dPSlf64AL4aVN9jhl86zic/OjZcA9WeXazjT71qe+F5gFfD3h+BM7P5OfrOyQfEAGDv6cHqzkbsicS/XuwlT7rJo9Pln37c9LO3ftUynaJxjmecPgsEjaXdYOJZ5YWh3VRmfR5j3fvxPcp2VOWuTCd00OvzdWn4P6t3rR97l7MPY0Rl1vgt998su9p0C1+38IUy5mAXZLhuzada9c5mXjP0c7hJMjzW6PneOD0t6cLW8YgfuNKormFX/9JTH1DuZj05Jeudx302R7AL7bGhk23DwDuZ51Omzi6GLsvSUieDn2bD83tdKobq9VXG+h0R6cfDzzdID89mZqQTfLxxq+MPmnJr7jqU6b7dOIJt/Lj4cdKnzhrmfZNnu6zgb81D6/xDBdMH+DEaurAu/Ljiye/4cCl+spf/ZLMOfqKy5ZyjjPtdDUG6v/qbGpTY6n6pNOJHo4OMOvTJjwZpXjHfxLa8Me63jGADewHy4UIHMnmhcAc6I9HYC4gH6d+MgzdFiGb1S2YfsxF7pbcSk/Pit9b36NnDy8/LKp7Ya+NLfrF+ZPE+pqNuWFe40PTtj38t/S963THE3zBxodKY0nsxFAyV5Kurm9tqJ7SuzcXPSX3ihLgUbdRS4rw0OdDBT3AK3Abc3rpYzebNnsy/AHwePvheInAF7/4xff+4l/8i08fJNR//ud//ikpI1+yMMeCdUMd8H0CO66gNkx+thvfeN1HT7bEEN5bEh9eAbpjN706VvcB/lvf+tZJj7q2O6JAh/g5YiRWfWDSH9rgAx3/xcXldTGeYt3/EKeTjA/E+NWdb3316tXTh15990u/9EtPT6b5XZv4TU49H6LXztpGN0AnE390sSpeSjyuwIdJvqBpk7bTQZ++ME4aE2TU/eh7e4G3QfjrY2NKPJWAfpAOH0bFq/axY2waZ3yYR3BOghv+zJhsYD9YzkTgSDbPBOVtRplgJtRWwLuVfy4gW/S3SG3htSDsmdBtGFt049naxvTt8WWP/r3ttGju8d2CvLefavOtcm9MbumLvjcmyR3l7QhIiH7/93//tHlLTtwD3zq3WXsiH+gH596MIRu+TdlZOYBmPjsH1zfY1SU//d6hb5l7at8bARu8twTZlAQYy9WNU0mEV/0lFhLLH/uxHzvpwevYTt8izs85DvnV+FEGk2c9V4hW4sKGdiiTqUwXWjbg+O0pvISyueb8YHGwNmnjf/pP/+mkm6x4/rt/9+9OKumTGElOSx7FTvLpTQZ+sZJk6R/8PjRI2L7zne+cdEi2fDAolmT+0l/6S6d406MN0+/uT8I//EPGFa84aM9s/7kjFJNOZsrrTzLsAb54C5GfxgSZ6tqFpzoZdOMs28apcVlduyXl/W90dT6wA8SN3nkeWbvEEp9+y7+TwPHnIRE4ks2HhPnNNWJi3wssZFsBrwXg3KK4VcdL8t1zMdqre08cXzIGj9T1WWjjI+M5bdlgxVfpAo3B6vHHo7Q2uCQQSjLR8bd2pEMZD7r7Oa/hQPxoUy8ameTSF165Al6wdfzs5V/t3aoXE3zu+XUuBvHlj/rESVhBdPfpcQ9KdN3Hlz04EP7D2sf/RicHqn+c8+OYlXet08lH+Pq8Pp11mqtnJRnyxSae4jDrcNXJJk+fD+y1Dw/aAY+PwJFsPj7md7XYhNtqZA//3km6V7cFoUVhq/9vCt8ev9tU3hTft/qxp41bdcZ3T93Z+CyW4uqJJpj3NnHzMxq6V5zqnvpJdjxJslG3WeP3hK6+cp8MeU/bQDqNc2sGHqCc/Hwgg19CS7+npsrWmnWu5Hd0ensq6v4c8N/Ts4D+oLZMHBsr8HP6Qqe2lBSKVU984cSGHvpd/C0udKPzO1xxrV7sqhe36vhd1emqDfmpDJcfynCVs60rTlv0zTmYuqJrM7uzT+pjPPSxkd/K2pYOdRc9bLBPbzJo+jMb4jDjy8as0+Pih35T0nvAYyNwJJuPjffdrZlkJtZWMOm2TjyT+9xCfMkWX7aCBcgisQXo7WnLujhekt/axuT3tDOZLSXf9/jSj1tv0Y1nq997+oZePu8ZV2S2QpvGFn5+7/V9i953lcfZN78KYYN1qZszxonS61r3Xju6d/7N60l9rf61r33tKTmB80pT/G34zmt6ZelVcLrY6HWn19fq9OB3Tx5vPngFmk/G+uc+97nTOUPz25ijf0JrhDHTGrCOS+3p1Tl+CQafG2foU8a9i0/4lf2MDtv88ArckYTmrvOYXuUCMaPTcYDGpnhKjuiSGKG///77T8k7Ga/RtY+MWLLtXGFt47ejDPSQ75Uzm2LpJ+jqD7Gjs8SrPiIXkIHnU7GrPXi6528x4QM8nJK++NJbXIs1P40BtuC+8IUvnM5pkoPnB1xjwviY/eGIgdft/BQj9GJHB/1iX3LvSAg7xhF+PtKn3r12FAtjbm1DbTnK+0Vg2+5+P/uH5rcsAi0sL+22yW9x2QItFBazAz4eAXEpRh+nfoi5Rb8kd+Dfrgg4WygxkszY5PvGvy9p2Oyra5UEoN8itDm/evXq6efCjBeJ0Pwf1b6Qot4ZzX6DtV9akBRIgLLh3rnDb37zm6cglgg472jMSoAkDX5bU9IA+DzXHEkPaK0gs0I0+OiVcOlwvwJbEiJnBpsjfPtX/+pfnRJQOAmd3xvtPKs4SpDErjVJku5LRBIi7ZREzzOEf/yP//FTUl+snFNlt197oFO8Ooco4fShoZ9v44MYfe9733tqgvjDaYNLAjpjRz/Ix0l7UvLDGzF04Y3PfTpWfnV8rmlXrJ0zLVbGhCS5M5oSScnfbAdd6D4wiPer1+NQ7Oo3sZb49wWtzm72u5ol3cYmMIbE94MPPji1yTjXtpLPE9Px5+4ROJLNu4f48QbmYvuS1uenz5fUmy76W9jCXSotFFt56WiBvaRvxd8rhm1gq71LdZvOHuD3PfpJ/PbGcKvfe/wVv70x3OrH28Kn/Xv6wiYtxuZMGzZ5CWV1bZdISMrMK/wSGpC8RBAtmfirG3vkq5NlA449JZno+Oe9urYpXYC9mRSEPxFf/+EnmWtrwUojkx5+aZd6MY0fH6BfLLSle0nThGTg8JFNHxkJT23F437GQn3GThI2+4u8xDUd0apPu9OXGbv8wQvOxQ4/P/gMitOp8voPGfqj45+xI5sMe/hnu+DEO7/RZhzYkWSiu+jXdjBlosNnMzocuer1Bb/xzvjgPeAxETiSzcfE+aqVFgETuPtrAiarT299spu8JtkeYG+LTTpbYLbqN8m3At4WqS0ye33ZonPybI1JMnv49yx2LZTZuVXu8eOWrpW+p39W2Wt1fXkv3Zfs3jNOl2y+BN54sDlbA7ZASRI5awM58XavlBgB8XCh440/HF44/MYvvD6bOsiiZSNdSvx4yWSTD+nIZrKzbeSSz9foaCs92lpe4oMHle75xieQnDo/8nW2A586ekBOe1z0xY8nPeHIwOEN3KeTPHr8xS5+tuJx35UusnATVh71c3xkomn7XL/SWUnetcrkp7J24SmmtSs5bcFHr3tlOuiHSyZ78cO7j78xlh7lHqA/XXvkDt6PRuBHI/uj+KP2wAiYcCaASez+Fnhd8su//Mvv/dt/+28/xtqEaiJ+jGFBsGcibeGn28R1gemrCdmkDx/fYvLFqnsWAL77hNyieMkJvmsH/i0xoaeF8JZuvPSysVV3+pVbYIsPW/SsPHzeGhP9sqeN+LfqptdFpra6LwFa/T5X178SNv8Wj923DZpnW/z2+vb912cFne0Tp+akuqdncMXDq/XGMrxzc14/Anhn43pC56kRfnXnDtF9APZKk171bIixeBvzeF69fi2Krh87z8cHlz7B19Msfqx91BoEn//05Sdc7TQu6GOfPXzk0NlTV3p9jVfdq+1/82/+zUk3Gb542kYHICsW4upJGRltZicb2u51b/bFCD9ZMujiRw/wpJT+zmeie6vBV7HWJrGjA7CDzvfi0FEJ/HAuoJxt5QN9/KaHP0C92OHnu7oSH6ArfvXw7ulFF6/weLWx2GqXc6jakZ9w9Tc9YumnoOiDx+/fmjoiAIdfW8kDH6j4q8SPzm8+5Dt+7SPfeD0JX/mDn16/9WoeqB/w/AgcyebzY/dikgaxiWFgbwGLmjM//sfrBPJoFiyLV5MDvvuVv4lrEgbuWyzCKek28baCBcLkb9G7JlcMLA5bwdmv6fclOTzf/e533/vd3/3dzTF2Pspixq9L8ci2TcMCCcTadS5++PFpY+eRkln7h442JbrWGMK55sKPRx+tuk6Onfmz6jzD8oQSC5vnl770pae2aQ9bqz11G2ObwEp/Uvr6RjuNEZfkJoA/JwdPt3EbkG3zRL8F2v3rv/7rp7OB5/rplvynSRdz7d3STn46L+ey4euPzrXZfI3FeY7Q2PFbhManeIpTZ+v0BbwzhMYu4IffLOzcobN3EqbOcFqHbOx92Ua/kTEXARt+V/OrX/3qqU6/L3UAvoDG+BwP9Rl+1wR85kRzE617eO1ozuDlg9/HdK4VoPuizz/6R//oKcbGmsSu85OSH+3qnKG4Os/qXGL9wn96xEoc+fDB6zODgeRFYl6srOdek2fD+i1enXdVd/U7m/xx/nX+TiofJO9iwp52zhhpmwsUA/fFlkwJNTyAc9EzY/ch9cOjF93rF7zWCiUgp035KZaSRudbgTFIrnbB+cBR7NTZFdt8027nfHuzp91i3FjuQ1CxpEM/dx6Z/voJ7RLgsQ/YZ+k/4JNF4Eg2P1n8XkS6Cbp1QFvc/WCw5GkFC5JFv8m80mfdJDZR6eubfZO+3tP9a7/2a08Tz0IS5LsJ2kJjUXa/ZWLT02KVzkslvy1Yv/3bv/20AF3ihWffU2BPK7b4IkkWjzbRa7rR8NvE+6R9jd8ndrr7MedrvGg2QjGcsYZf63Didw6PdgnmpnOJB17cbHzf+MY3rrGdaMaCmLQZ3xIwruaXBq7xa6Ok1xc08r0nPNfkommHjceXUOh610F7jZ/mVnPTOHFfXRzEJf4SCzibvLpryujn+MmjZSd92VEHk44/nfTUnx9yfvQvPsCf6fNHua7X0hFXtqvzAY6PkkVrDNDO2e7upx/x0AHSjcf9jBM6G/HEP2Mjbtfo9E5+OrK93qtfA3YmFIeJW3kmbd7rH37R0bX2WfFLbrYTTiwBvuI6ZeiPrsweHsDujI0PA9nAg74F8PWkeQv/wXM9AkeyeT0+byTVzz58/etfP+tbE3xL4tMCYpHfwj8nfBM7J9Y6/N7Ehwz/80v9HERXWlSqn+OFs2C1gF3iWfF83xITcnzGu4Wf3j26e4q0+vdp1Pf4XUy2+GnsbNXdxiLWJSd7+3aLT+8ajxiL3YR1zrZ24IlWjOH0EZ5g3odLTp3sOZ54ldmsnLT1Hg8fbs339F7jo2vS3buMJXGac1k75hjTxtlO9tY6/RPW+qS5P0fX1mDVf07mHE/ytTc71aPPcsZl4rfc53N2yMwxBD/9XOv40ZN3P/lXuvo5mDL6ch2752TO4WrPOdqB2xeBI9ncF683nttCMSfaLYdN6ib2Ld51s7rFv5fO7z0L3dZ2WjC28vL5nu3c0z6+eOq3B7R1box7ZK/xntsUrvHvoe3xV/z2xnCPL+8ar7cLX/7yl5+OeXgKbHx7YuM1rVeO5oYPNV5xOkvnVTceT5vnhx2vuOmTPNjA8ePr1Td9Xm0q4ZXskPF01NNC9udTZUcn8AXqW5oncQAAQABJREFUxkPJgXu6VuBzT9GMh/x0Hz4ZOkoY0dXjpxu/Nw1sonub4KwrPF4+w/MNTz5rmzigaYOfgiIDvGb3qhy/eIolfnUy6RA7c8s855OncOLk9TI5/VPs8OhLwG9+vXr16uQjP73RgtNW8aEHPp/IscUHtOLa62l1eHTyLvKV2Y1fnb/orQ/4+Z1+beJXssaMWGkLPfjFwqtt9wC92NHvOwr4+0klMZlnNrU5H9nGq6RXrOn1RilfxVyfHfDYCBzJ5mPjfXdrLSBbDb0pk47fFizXLYiH71v8t9gmc0s3Ol8suHtgj/69uvf4cU/ePW3c68c9de/15V3it0E74iHZsQE7YwlKMjvDKf7ofpvQvWTBZt1vFZpnkiXn4CQQeMwryWW/c8iGV8/92Llkgh3n7yQD5OlxBAJIAthxXhHQKRmRLLkH7tc5Ho1OsK558C58rviqT31ktemf/JN/8jTntcuZQP7jlSzzszOA9KmLHZ3ulcWOjATIMRxzXTu1fcaa3/QXK2dqJUYSXfKSTbFzdIVuiZIrHWxKuDrqQ0ayK170kKndyu7xAfXuT4jXf8gUe/eg+ip/Ir7+k5342TY+0q0ukc9PNPEoduJEtt8XpbejXWzrH8mnOMyjXu475iAOdDj/yq7+EqvOu9IpATXu9Icxm79oBzwmAkey+Zg4v7FWWhTeWAfPOJbPlWdY3inUsTC+U9350MZIaCQwNlsbrSQK2IwlLGiBp3E2YnzoEgUbutKmL1Eg36aPHz0dEir2smF+SibQjWGXBCp+SV3JTGOcne75lVw+zrIEKD728MNPWveVbATh+KGdrSmzHcWidknKZ7vRxbd2iitdEn0x005l7WZbIi9JDyfJJpONEvHo9NeX5NmUkMYPx4b2uPShC9RG98UWrrbCAzS45OCSrZwyM9bui+vkpct4mX5qe+0Sd+OmOpsSb7HRHnEQF/U+1Gj3/JCjzmY2xH/WxYoudPZKUtk64HER+NGse5zNw9IdIzAXii1mWhhemneLvsnDjxarib92b4Fz3YK5EN7iRRdDi9wemIvwNTm+7NEtLlt1s7tH9zU/z9H29s85HedwYrKnjed0HLjrETCm59rg3sY7wSY9+8EG3fxSrvw28XVMTHm6JRrpQJN4TZjjFZ/EYsI5/SuOX6vdqWO12ZpHhi7yc57hn/rQ19hNP9d2TRo/LrVrtt39tClu0yaa/gnWOnztiEe56pixmzS8dK646SOe+vISP/30xFcdfzDjgz7bhWcdh5Ls9KHrn9kO9qaf2lAf4wd4Dvh0I/DRmf/p+nJYf6EIzIl4S6VJ+KZMxHWBuOR7fFv9vrUZrXbmwrbSHl3vKdKj7a727jlO6s/V5rm6vnmT+uecj28SzpNEPxXj6Y/ksI3cvQ0azXrhaZ3X4PpCkmlDx+NXBQJP14DNnB5n35Tw+oQtOr3GVKfXk01AlydYnWWEM6Y8xSKHXxKCh47mtnv4+py97vnqHs8EdhtT7rUFX/z8b02Ad/EPrvaIi3bg1T7x8fQRr3vtwuOerFe59OMHeMVOnYz4O4fIV/709E57gdgDcmSKnbOjfMoGHUC98574JWR08Yc9vuChJ2AXiG021Nf4oeEpdngmrr6BBzPWfOVHfYa3dvNLXTzh+MdfY6J1Do/Y4NMmdsW6c5Z8Ems2jBuAVrzI0MsPV/H2Kt7r+an/JHz8eVgEjmTzYaE+DN2KgAWjTeAaL749YNF5W2Fd2N/Wdhx+fzoR8LrRZc7YuPtdRxu+TRnNGEOX6DhfJ1GwSdugO2uX9/ijex2q3itQ84wNOFDd60v62JQ49LpT8kOHs4aSAMAn+oN1/EtsuvCQY3NCusJNHvr46zyfNvPLT3T93u/93inJJuMMKR6vbdmyJvErv7UBXjvpUNdWscu2pKdYsskO+WItyfKaPZ1iLcmvf8RGu+ggy74EK3518dQ/fGGXPF+ri6P7CerFa6XNWBezxg0dcOGnzu7pc2U3W9rUONJubdMO7dImsatddIkL/saBdhZb/pAX+16ro/OdjLYZx1MnO8Wf//Qf8PgIHMnm42N+V4sm3bqIXDPYAnKNJ5qJfk+wUMwF75ItPoOt7aR3Ky+9FqZsqL8kaN8e3RbjPaCt/H9p4POeGO6xvyfe4rdljOyx/zbxloRsnYs2Xhu5hEgflsy0ac9N3hMjm7oxJJnRL5Iu/Y7fkz5faJHUAE+g1NNh05dkZcOTJ+NXYsA2vZLL+LXFxi9BCtxLFAIyc76gz/5vPFwam/AlLXROXdmQAHmyVpLMP/f5iQ5qlydxsx1i68JPv1ixKXY9JRar9NGlX2bsxIpMNuhPJ36xZTcdaBLU+PFoa3EWN/UZqxln/NGKSb5Xx0PPNdDWGXttYIcOF5p25iefZ+yMl5lEsyWJLHZ89ERS//T0UyzorL88NcaXDeNq1o1jY5uM9jizOdt4rX0H7eUicN/s4eX8PDTdKQLPmXRzcXkptywOrtWftc4evj2wJ5mhl809bcR/zs9LPu7RfUnHS+H3+L2Hd69/e3Tv4d3rx5vOXyKz1U+vGIE5YxMOmm/Vleu4XOeN+px7kopVZupzz9/6S7kmL6v89JF8su6DiePPtBHPLG/ZmG0it/LDsRG4F4tgbdf0L54pD3cuDtMuHatfM1lcbdJZkuU+yC7+rkmbdPjq8Uyfws0Sf37Sv8KqD+/s43PtmLEhj3/qdj/9WutsTLtTdvXvqD8uAj9afR5n87D0CSNgoeuMz6rKpz6fFC/RV36fCi1i89P/ylOdXpOY/TnZo6+lJwImfovRSp/1eOYigR5+5YW3CPGjezwWlhbl6StfPF3YAmIiHnNDuSYnLp46bImJJxp8zOfZvvqAr3hcfMCzxuWcP3jxTZ3n+CZui178dGtn56mmjvUerycve8bg1jGrbfnRpuQp3NZ2rL6+bXVjW2yNjS3g3036nUJPzuYc8HTJWoEGjF16jWOgD/FXF3f8+t/TKPzq+qDkgQ1PKht/+slcYoO/9HlqWQKcjdl3ZOHrW/fn5hV9eOd1cvyHvs/40CFu+YWPzXjgtbO4alf+onkax+/WD7HTttql/XO8021M4uM7+8WaXhd5OoudOHkK2vyyTmSDDrxs1F/ZjJ+f6EoXH5QgXHX6wp0YFp74+MlOfZGuZKrHn85sqxsr4pCf2lks+GFMzHbRqe4puj4TO3EgTxef0Ispfjrh8bDNHr3WH3jAZnWxPeDxETiSzcfH/BNbbFIrLQYmVAkWnIXJBcK7NxFNUpO8BUTdxCQHhwbg8a+6TWw24zsxn/lDjl5A9xZgM7+u8dPNN69VLED0wwXZmzj8/IFjI5q2BDNWFid8E4dPXMlOPB10r/zawxexKl7qXgt5lRONXveu7umSfFpoxbz+PDFc+MMP7UzPBbYTWhumzWu8aPyxyM8YJlMMaye9jas1VmTOxRCuNs7YFkN6+KB97OFFw7ulvfn6tpeNo63tEKNiRVasxNIF9KkYGmv6VnyTwS/WM8Z46DD3JFRKsvVJYwFPvGwY72glr+zQL5EzxgO+zjbS4wrINRbCz3bBoUcjt97zt/nnXpLHLj/da5d1Rbu1QTymT3ygM/7uldqIH497evKZXmMYzj1+JajuVS98OrKtxKOk18U+wJ+N7uEnLr76Hd8aJzzF0n10vJdg8uOr/cULjs+Be3q1RR+s7cKHxvdkxUz/6KtkK+PPHn2u5PGRVdeXwP0Bj4/Aj3bax9s+LD4zAhbBfmB4VeFTncn1v17/kPItMJklVX5Q18S/BTYGk7dr8sPRF5j8LvgWgmiXyq18FosWbQvQhNUPNPyeuIgJ+i0QE+eG+kHrW/ziIoY2kVtgweOPTeUWaNvc6G/xoxfv2RfnYjJ5t+jF47zYlnFl/BmH/QD1Lf3ix98tusXOJusLHvW9+taxc8uXd41uXusHY9PYa0ybP+L3B3/wB09N9uTHj74bc2LqQ45zcGRbK/wwtoQM+M8wztb1Q/Hk6K1Ov2S0ceDJJ12dtaOzsdm8rE9zSr/OvtX/8U58/GjnZNDRXGy46JKYuNeu5qR2O7uqbUCCjK92aSM9/+N//I8TvVhZk+GBJ3O+sCJWZCXUM9bGPHv1hyQNbzasP3T0A/j49U91+vRn/GyKa33AR9eMhXi7wKXY1bbJBzfrJwU//BO/qnYCuPD80c78NB5AsdAu623tQoMT/5JRTyLRG3foxmX90z8FmDbEpz1S8tp6xK/OvbJ1wOMicKT4j4v1G2mpxXGLcy0453iv0c7xn8PNjeQcfQvuJfzYYmfysLknjnt4p51b9/S61his9Vt6LtHv5fce//C67uXLpba/i/g1hrMuGVGfScmki8ekqaNPnpWOZ87xyYu2BZ4j8xy90865dkz6lvE7+bf6M2XmPXn11e7Kc87OFp5V71pf9aKf4wk3bc7+rx2TDpdc9Fl2v8rAT1jp6itu8h/394/A8WTz/jF+qIV1Mm8xvnUSzkVgi16+7AGL+hYb+XtuE7hkzyfareAT+h7d9ObTLRvat0e3p4SfNmiba4/fe3zeO2a3jJE99t9lXk/dnGXzlMzTs95geNLjiVJPi8wP497TR/3hcu8pEhBz9z0VjN9TwOY5fvp98xfQz66nmfg9bTKGknHPJ/LoSj64n2OtJ2YnpeMPn9CMTTIAjh7lOmbDZzNV6p5e8pddTww9TTP36OGve0/pgHa6PGnEj0ZH5xLxiLsYk+GjODhvyU9+sUEv/aBXx2LHT76gi10+0cMmGfcu/Oou/QNHvzo9LrjiczL2+g8cwFe73MOrkzvXB5Of/LTHLkiPEk4sGhPiKi7awSftLnbZpFNbyLkXa/0jFvThp4OsuliyVezIwjW26TX29A/gA/4DHhuBI9l8bLzvbm3vJDIR7wV7fOGHhcN1C9JLZl1Eb8luodO/xY907eFNZmu5p3/4XWy26t/Cdw+dW+wePJ88ApIWX8ixwdq4bdj6Ex6usWtjtnnbsG3UeNE7Y4lPwmQ8Skbit7HjAyWRkgF8aHBk8ZckSBQAPFszqcETDf3cmIYHfHSBuQ40XpV4m0PpksTwDY28188SEbGRTKPzSbv4I1Ygu/Bi4ZWwWMCLnVjhZ4cOSRK/tFGb6cefDTLiAyRD9NFFBxvoQOxKaPtyVTb5oQ1kJHB+aL6kjD+1Gb04k4UvLicjr/+Em7x44kdH04ZAHZ1uJSBTv7jXRr6gi4O4FGs6tV0inj/Fq2RUX2mbDzLslIgXe7GhWyzErH4jD88GnNipF/PacJSPicCRbD4mzg+zYjLtgSbjFpnn6N6iF09+7LGxh9eCsxXobeHbIkP3Hv1bdMbTglr9XS33xG9Pv7+r8draLucG/WD5H/kjf+S0Ef/gBz84idq8beLf//73n1S9evXqdA6xBMnG/cEHH5wSJvNBH/3hH/7hKSkihN/ZOhdgQxLBJpBUSOLY0Gc2fOc8nUekS+JQYoRfXSI2kxm+XAJ8ZPhGP51KMvABGyBdaHMMqfth987ySdgkoNUlQhKazp5qEz/FFYiTRMY5RHolWl/+8pff80sAbEvI+PaNb3zjxO8PG+JQ7P7YH/tjJ52dMxQ7yVP9VcL7rW9966SDTbFkI/jCF77wkXZrlza3hvAhgCshDFfsihO8dsIXz8pk8Lrw6Af8xRsPO85X1w7JprYXO+0yFmc73n///dM4o4dOyed3v/vdp6fyvmCpb8QPqPOLHaB/JLCdCxV/evQxX+nn7wGPjcD9Hms9th2HtR9GwKQzse4BeyfoujBd8wnvXAxv8aJv5ce7JyYWpD266d8KYrgu8tdk7+nLNbsrTTz2+L3KX6vvGSd7x+A1u58lmrjNOLufdbGQUDXulZ6ozT4vaSlu+Ccdfp1nJStodJLBM+10j2eFVR97K+7WHFl95NNsO/k5riQnE/DiCfCKRcD/KYMfbrZr8pPDP/1SnzrwT5vaLMEM6BbLCZN/4t3nz/TpHP+MAzk+Thm4CXSsMvFXrn6Kf4BHMjlBvT5Gx18d3zoG1KcN8Z/9e6sN0/Zxf78IfHRW3c/OofmIwNUIWFTmAnGNeS481/g+qzSLfwv92xCDdbN6G3z+tHzc268SGE95bLiunpDZnMUdDZhTXv2qS3TwopcEobskPEp+4E2GDjrRsoFHHV/89CVPhnxtYq8EKJzS1RhRTlx4upJxH8CxZ22JN/ligsZ3fuavV9olRcWgduGlo3Zpg7ioZ4Me/Gy4B+iALH5xDleCRYaOErBpAy5+8ux6WozfxU5tY4ftCej5p8Sr7cogXempTG7lT66ydqQHnh+XYgdf7NJRPX/pmjq021PPEvhsFrvGYbHTBvLk+F9ss3eUj4nAkWw+Js4Ps2KCmlD3gLko3UP/PXW2WG6xce923qt/6NXOe/g/N48tMdzDY8xuBW27R/u22v+0+SQ+kiDlFvgTf+JPnF5T2nht4iUg7sXRmBF/G7TX6l6F95MzZLyiBHjVjQMy8auXFHhFSj8+gOZ8HP4SJXRJAn3K7Kc3Op14lHiC/E8+HklqNLzJkIenv0SWnyWQaJ7g/vIv//LTK29JyX/7b//tlJyQUdcmJdB2917XuhdLr729Si8Bkvh4za2v2Fb3upg9Fx9KktDVARqb/GaDn3Bs0MEmUP/pn/7p937xF3/x1FbJl/qf/bN/9mQPj0Q0f9TpKS7wxZh9V7EWUxd+F0hP9RPyh3/4mzw57Yofns+zrh0dTSh26vnWcQuxI4ffWWK26e+cakljNLbww8/+Jde5US4b5/Qc8NgIbFuxHuvTYe0TRGDvJDJBXVtgr+5zC9M1O1v9SEebR/VrZQvZNZ5o/N6jm9xW38VwKy+9FuOt0OaxlX8v354Y7tEtJvfSvcePt4FXrIzNrcmmNvk9SImPxKhzbBIAm3p1fMals3Xpl0A5KweMrc997nOn30KVnAXOZ/Y/qW30kp55ZlPC0O9RsieBcrauxMbZSPbWOdH8wzdp9E0wbho7JTRkAnrELBq8+S2Bge9eMsm/zgmKQ9/c9+UWsetMoLr4FTtzVHy1M18lQN/5zndOdtl49fp8a3Hgg9+GdOawWJHTNr/XCyRHdGSDv3iqs/kLv/ALT8knvyVsnV+kY13H6J9zTWwmjziiA7bErHLFq6PNWJM3NvqiU7LO+XZmU4zJdEZTu3zAqc62MSJWjTN9879e/0ayNgJt9Nudxg5oDPRbnfqHjs7Y4vniF794OgeK1+9x8u2Ax0bgSDYfG+8XsWaiW2xMmCZNk17psjiC8JOXfItHvC3K4c/x04mezqnfJA7Sn2/hr5XpzI9rvJPG7vS5+3M8/N/iEx0W4TWGdNbO2gjnvtioXwPtnD7k78SRD2/BXWnX9H9SGlvZnrrgion7ePDnX/iexlyLH931+eRPB/o53WRcxRv/noSc3rcZJAw20mJ+qy0li/puJqjFcco3tuHwe0LkapMnX7/jmfzq50DfsBWvBEYdsAF/rS3JndMNVztmMrnyThr/yVhnzoFxtdIan/GTb2yHm20QMzzaxzab5/inTHoqxY38hNUvsaE7PbN/p1z3+OKFW/XTBVdSiufaehz/6hc5UAw+rH34F058Jqx9POv8Md7Fr3HI7uSZbaJ3tdsYhJ9y04fj/v4ROJLN+8f4xS2YrK9ef1I26SaYdCaWT4tzIWkyrvxkvb7xabMFOV60yQ9vwvv2ZLyTZ8rBA77QMX35kHL+L75p8zzXh375tPvVr371YxvDORk6PRHo26UtOpX5zr6FU/xcXnuB6Ktv8K4f+7EfO33aJmvBb2OxOE6chc4rIH779M/+1IlXHR6I88/8zM+cFudwJ8KFP/xnP38vsD2h6dzaN4Q8Ofn85z//5HN2Zhvg6NVO344NzvGiwYuXeBsvwSV+toxZvG0c5sOedmTjbSyLy3N8n/1EXr2rWE69K380/SUhmYDX2CshiLbqyJ7yVlvQV/n0XqPFM8uV/5xevuNb2zb1dN/cORc3PJfwyU86Xa4VVh+tD0F+9vSPvkmPb09JJ1jtrjqix7/Sr+m4NU/XRPSc7hV3zo9z8ST3HP2rvaP+vAgcyebz4vapSllgvvnNb571wUbslc63v/3ts/SJtGhIlPzLtF4ZTfp676zL/ImQlT7rFj+LwFxUJ/3S/Z4FcyYz2dGmFpp8YMsrQbotdtlQ4m/xDE/eK5j+ldwlX8M7qyXuyYdfnzSIBz/+yl/5Kx9J2ONfS8mmV0z8u7VIk8XHh3OL76p78p+jrTix9LMsl8bd5JeMvP/650X6mZZJO3dvXHkt+cHrn9m5BfrG61wfHvrQ48nHGvtbej4rdB8QfLgRI2PIhzSgLMlX179e2/rgCcTZB4Af//EfP9X90U9e7zbGjGUyfrbH2EObY9bGzm4fItjzIaT5RifcnKfqc6zzw3huTJtT+F0Afc4P913o0Ror6mTmhzLt+LVf+7UnnT5Q98ocL5+suXxX1x7x8/NG2dB2eqobzz/xEz9xihUZNP1QW8RSUutngIA6H/UXH/nHjv7QVjH5M3/mz7z367/+6yd+f5zRtH4DfaIf2CIPZhzV0cAauxPy9R++4Zly7ufcEosAPp3J1ufxiJtzw+ID0LVJLPhBn3HWuMMjzvjp1BZ1r8HZIyNW9jjxwqMv8Im5srFOZ37RIZ7qYpbf7B3wmAgcyeZj4vzGWnnOpJuL0aWGbeFZZS0EWwFvi88tGb7g75r8e2xOuefe22AswFuenlhY2xhu2dOONplbvAf9sxMBH5gk/ZJCG70zgcaJDdumPJMqH978JqZN3JzxFLvX8GR8qHLezRNAdYko/Z07RDcnneE0HiUMrs5osgn/u7/7u6cOkGh42zA/6JoX/JpAZ8DunBfu1zlsTWve4HdNHemqlOz80i/90kmGrDOG//yf//MTmW6x8OGz38CUxEheOmdIXtvVsysR/eD1hyftYV8i6Bxi/kh4nNns/3k7w4lX/7ApBmKHToYPv/Ebv3FKlLQF7itf+cqpjr8YlFTXtrXd+PJxpdHJh3TRATf51ng3FuBbZ+kgQw9/xM6HQ3WJoaRQLMRa7CSOjTM2Jemd2aT31eu3ePqELv6IpXHTmyoJOzw7+HvzYWzCG/d8cm4Uvd8j5e8Bj4vAkWw+LtYPsWQCmVB7YC4u1+T2JKZ7fWB3j4xFZA9Y/PbI7PFlT1xssHv82Kp7j849cYvXGNkTk+S2lHsWfe28d1u3+Py28Og3CYHx7/JBB0hmPOlBC9DVbepo+hvORi3mdLlPZq2jkXFEBLCRTvV0Tnn4a8BGMO+v4dDw5vM5ueTj5Xv3fHaVPImHa7ZLO2tHfGKbrehwrcnxs0PfjGVxzoZ5L9msvyRM5F140cnn98n5K3/4xadLcye/VxUTP+8nH/zUqx4umdrV08Vi0RPm6vQWOzLFdsYKfdbFEmRD3Tpb7PiQTmX8J6Hjz8MicCSbDwv1YehtioAFfStsTQi36ntT+do47uGfTeCAl4+AJMDGa1OvZKV7+JIyfWBzVzemSwzwqKO5x2cs2PDh6QJocEqAX5KEjh9viQA6PviZqODJHzwT4MnjCZKdYxMufHyzRNOGeCrjMfdnQqIdruwq+T7bSaY6PXiKV2Vx4mvjPRk4Vzbwdk8ffjaSreS7e1A7qodTj3Zi/OGfcJM+9U3edPEp38NNe/o/enrVayd593NMFLv8wR8fnDFEJr340Wc84+cTPP5pkx54OvTHAY+PwJFsPj7mb5TFJvin7ZTFwuI0F65bPu3hvaVrpfPngMdF4E0Zh49r8WMsOSvodbdXv23I5o2619peY6p7suRJmvOwNmUbsp+Qcd4O6B+visnY7D1Fco8Xng7yXg3D41fvwo+XPefv0F109SqZHa/7yUj26OQzvnPAxxIH/BIJvOGSaS6nSxKivfQDyYxXr2TpcU76b/7Nv3nCk+H3f/kv/+XpNTr/tIcMm/lJL10AzetddHgxokd72dAvvoCozi6d+BwpUIqTYwyezuEHzjk605mMWAHy+SnZQw+fzer8AWJExtUTQPdsJ6+EC9hB7wkivPbSWRzyvT7gu7aTdTXu8LGr1HZjFB141e5VOZ30ixMafjix0fbioo36QImfPvd9WKKTjvjSB3/A4yJwJJuPi/VDLLVQbDVmkjbJb8mY6FthLlJbZOi2QG31P7+VW4GNrX5tjQnbW33e6uebyrcnJnvbsFW3/t4zDvf68a7x+7KLM5I2bxuxc4TAhish8oW/4NXrs3HOyhnPNmqvwdUlZs0bZ+9KNpx9m7+zKUnD2xnOEirnQPWZJNRvJPbFMYmG30Z01lG/Sh6cZeRX87qEIh9nyU98fGtMpKc6/uYnnHGWHFp2JEHJSGT+wT/4B8gnwP8v/sW/eDo/KWn5rd/6rZOsNli3nB/0pUz60L/0pS+d2lVCxe783+jOJfoheUBGvMUmX/XV3/gbf+OUVJ2YXv9By0e42Y7kKtHp1R/nIL6pD796NHKS1wl4Avd4Xe71g/4q0cSH5jcy+53NkvD5v9Elo41LMpJsZzTFji6xMYb6X+id2fRbm6DEtN/ZNLYlrMYuIE+Psc6/94//jX6Ky6P/HMnmoyP+AHttDA8w9daYsNhsTWg0ak8M5wJ8KyAW7z38t/Q9ii52e2Kyx6+5uW2R29OPW/S9TTzPbfuaRBiDayIncZr610Rl7adzc2rKiysbjXc0NibMMTXv4yGTPBwe9XDKtR3JVpIpqcI/20E/WnQy6FMnmliYu7WvJGz6kr1o1dM56+7nWiBBZTMb9HrKKeEPZjvgikV0MrdgxvMc/4wNXZNffcoUO/jAmJiAZ8VNG+jaMWHlF5PZP+u4W23QP/nTPX0Pd5SPi8BHe/lxdg9LIwJNApNmC8yFcAv/28RTLN4mnw9fjwg8KgKSEk98toLX4sCaMTd59+s6YhNv/s0Eizz8rU0fT/Jk8LvCWd/mGrcmCWvSQcfkV6dr4tJdiWeFVS/eyb8mJumfPMngFTvJZ/fKZLK9yorDBD5d8it/pg6yqw31yZPctDPv8U8d+KdMbZw6Vx8nP91TBzn86UGfuuKfseDPmlzOZJJ+432O3bUd9E4/2Zw26qvVF3IHPC4CH/2Y+Ti7h6URARPFBLL4rxNvsD3d2kD8VuO//tf/+gnXDfl1QYh2qdw6CeeEvqQr/F4fyFlQ5mKYrnPlVr5k9+gmMxe3dFwqt/RZspKFvb4n+2mWxshz+nSLz+K3dQyK3bn43cu3Lf4/kkeczrX/kg9eJ3o1rfRq1itFoGzdUXri6Izmq9ev0r0m1yfOvqkDNp2Vgzc3jGOvm8n29M1rc3VlQAcZ+vngJ4P4A+hEY0+7Sojh0Fz0zYS1J6No/EAvJuSCxkO24ZvTcN2Tp6vE2z0b5PHQjcer3tqp7qeN/GSPONAnoVHHD7wS93NG6XWEoH+IQB6v87DoZMRG/LPJB7pB7YLLb37C89O9svos46en2LHPLj6y8SS3xo5/E0dmQj7Ds+FIQjrhxKK4KMXCGNA+49B4ESs0V3U+uvB7VQ7oM4aMZXjQmdDig+Zef2mTi0466BfntQ0nRcefu0bgSDbvGt7tyg1+i8AWMJGb/Cv/JfzKV30vf3IvXWp/i829FgL6t0KL5Vb+t5VPTLbGe0/89sZjj+43ZczubeNL8Nt8baZb4/XB6zOazhOWWDjDCWzUNmP/X1r/o0sS0CV36jbx+PFIDpybQ7dW4afb2Tn+8Evf9PuH9JP5v//3/570ScgkF9Hp6Hc9yXuCRf5rX/vaqWQTfra1vq/UlvjCqQdwYqZMTyU+eIlJOtBKntLBz1/5lV858Yb7y3/5L5/4yKG75pqhHtCZLaULwOcL/ol3rw+m39oxIXvpSDcZUJlM/NXR2QBk1ZX08UfJZvrjoye+5KPh1ediGs4Yaxzpfx9aGpPGCF5jJDDG1I0zPkkO6ag9jcPOcErU+cMGHudClWzAu9gxTuEdT5htyu5R3jcCR7J53/hu0m4CuEyKLeDbm7/zO7/zkcPjTW4T2YTum4rhTa4WG3ZaJDx5sAmYsBaYFkm8TUi8ZPAAMlvABCebrWsytd0CswVq1xZePOKrPa7aCD9jMvEWNP4Dmyggm3/8xQPogEefbc0m3qn7JPSMP7PNc8xMm7Xnlvr8Ke63+NnuW6B4ybvyI3l88GLXGORfduaGWXvwTt3hxbP2kE8PXk830NgyLmcM8uVdLMVkD0jgbLrmrBj6wXUgXuJc4gdnk7Zhi6s1BL8N3fogzjZ9G3ZfEKpeoqBf8GbD0yS4Nnl9z49s8uH//b//d0oytYuvjRPjqnu+oas3HuACvs2kSD0gN8ccHa70o6dbCVYb0fOncWjOhyPXuO0+n/hDZtWLD6T/w9qHid/US27W8fE/f5OrRAOXZMLzi44uMrVh4uAD+GIXrhKNr9mHdy9RbEwYY8ZNY8D4mB9AyBgTxpTxUKyNuZlckq9OB8hG6/JMcI1L41CfzH8icBI8/jwkAkey+ZAwXzfS5L/O9SMqfgmQK1kTHVgsTD5PHUD4U+X1n5WfDrwm4xZe3yzsW39zUZkLfIuqRcO3Ns8B/ilvUfnZn/3ZJ7/PyYTLT6+ipo7o58rf/M3ffO/v/b2/d470MRzfLEp01678zV54wha3fPqYsgWBd2uyTtSG5j9hZDd17LM57epLSdj0Lf61JIdP3LeAPvWfP7zuAtk1nuaYSq82GlfxZaMkZuoQEwnjtTGbHrbowMsnePUDrkeg+MWlvuKiVRpz67iLprwlH8/km/dTl/s5bhtT8az18Eo6Xdd44r/Ee82vZC/ZumZ7i08rz9Q376cfq0y+mROXaPDnaFPvOXsrLh3wt+Acz4pbxxh6PN1PnnnPPn/iV5/36vhXHPwBj43AkWw+Nt4vYk0C4idIzoFPjhbtfvbhHE84kxSvf8O25dMe3ZITr762gGTQp9otQK+Et0Q1mRaJFrjwFhC4FY9/xZHxlM2TlgmTd95Pni33YrgugOQu6YRfaWs9uz7di8sW0O5zflySxbvGG+85X/B6kuDpwbn4ThslDVvGIDmvdOnfwk+3q39fR96TUT4f8PEImLM+IEjOJeV+rghI7vWj34I093xQ8WHCh1VjTox9COh3NsnQ4eeNfBCLX+z7kKAf6TLX9AcdPnQ4n4effXOwJ6Psk2FH/xvnPQ2sP+lDC/CiuYxdNrLlfoXa0YfHeCcfHjbQ+MSmexc8uqtxr6w+S7zNJ3h6QHrdJ4uOt7aJO9qqI5tk65v0qOPPz+yhg2y4p+ecDfjkpq3k0fIJnc5LgKaPjS3xBmSNMTR+0mdMGJPGhEsdLX7jUD+LDz10OtJBh8uYNm4aR56U8o0eY4h9etmqbZ3ZpJP+ta0n48efu0bgSDbvGt7HK987ifbw4zXZtwL+rfov8V6Sj79Fik/uL/HPBXP6n/wl2fCVq2x+0B9MXveBe4tfuFnSUz3+lyjpnDFZ6+dsTH705/i16jhnJ9weXjJ7+bPzWSx9MLUpSzRstN42GKsuG3ofZGzqnor7QOHePJd0xi/mJTvo9Po9Q/Jt+hJPNK8rQckBOj42Jabxo3/zm988vf0oscD3Mz/zMyfbdEgSJLjoYB2LdM7x4H7lOQmOP3SRKxFJdyzpwANWOv3h8IjLypcs/Lw/Mb7+Q8fqNz5XeDbw5efaLnx4WpPdu+JPTzbPlXTmi3L6St4VbqXTBxewDSRz3evrOSbEyrhrTEgMvYlrTJCn08OPxgyasRiNzBx39POz4xriAZdOdYmoOt1kD3h8BI5k8/Exv6tFE6vFYauhuWBck9mrG/+9wIJqQZlwaXENXzllup80ulssw1fGrzyHe0n8tLX1fm4253y55PM1/WSMka3jBP+eMWic7NH9nDZca9+7TLNpe3Mhvp72OAYDJJYSP7TA0yJ18wqvJ0b/5//8n9NcEHM4P9jexu8Jpifd/Qcg/Ui2Ov3ksiFxtOlXl3h4SoVf8hqs/buOJfVwlWSbs3PdQYePhi+ZiYMH4gQfz4fYH+muPkttLuGc+Kk/femfPpJBR3OtMPVMWjLpjq9y8rqHF9uVf+Wrnp7pU7h4ZolPP04e98bI//7f//vE2pPsxoAxYlxVx+S/JKlLDsXJWDXuShJ9qHEes7PC6tqVDfyehlbXN8Zdx5G8bZttmm047u8XgftlA/fz+dB8ROCNjMC7voC9ye1bP3i8kQPkU3TKpt0TL26sdbiZJNi8PYFaZfAFJS3VycwkiuyUxzdljCc213FFT4C+1qMpp72Jv3ZPZtpcfTwnu9qZMvk3da46VvlzvDM2dKZ31aVOftUxfToncw43ZW7ZJD/52b8lo03TT/wzMUeb446NWV/5o89YuZ8yYm3sBnyePoQ/ysdG4Hiy+dh4v9XW9k7Yvfx7gkO3hegeNp6rkz+fNjzHh2L5kr4/x4+t9s/1z9zAtur5LPB5wuNJkaeKniApbb6eKHnK5CyceNqwxdDTSn1nw44HXTKP35Mrl6eb9HgF2mZOt1eZ+Ogi7ymTJ1SSgZ5A8ScbkgJ87OcX3Z7Isstn5RxP6iAd5PgXH/zkLzEJjz8cPSWC4dKDBqJ/WPsw4UoHXhfZ9Menjgbo6L4SPj/h4k8PGXFbaeRANt2T4RPe2hFeGWQ7fuVM1PRbH9zwZjt5PqHnI372sonOD3Sy+s9rb2MC3pNsV//j3fikozHBDlnjytgwZsh6Ne/JpgveWKOXDTzagM99Y92TeWMVvyebbOA33g54fASOZPPxMb+rRZPOhN8DJvcWMFH36G4B2qJ7L0/t5NMt4IeFbitMv+nfGp+t+u/Jt6d/8mNr+7bq3hsz8d7qw5b+rl3vYrk1TrVdn9nwXTZdGzSwyau7QPNJnYyLreglBfQAdHOqZAPOPbqNHZANR797OtNB3iWxMAbo9EsX//gf/+NTUqGvf/qnf/q9v//3//5TAnRSfOMPPWQbK2zMOX0rhuQnP3O3ZFaeye+eD2IQwLnykc1z9PiVdJQITvy0dQ0fXzYn76X76Zf7/D7HT68+9uUfvOp+osiYa0zo+3VMaBd8/hk3ZODQorPZmIqXDXT22HBPv9KYnWPNffzn/D9w943AkWzeN77vnPYm+dvUsE/i8yeRvRYji97bqPtam55LE4sDtkXAZutJoY10C/gmcN/ct9n2s2U9JUILJH3OuUl66Pc0KX5j1VMjZz7ZBzZ35+acpwPk6K3uCZPkKBs9eaouIfBtd+dCS6Kc1ZPoebppXNCvhGu+lMiEn4khHD8mztMtMHEnxA//wM9Eb95jUWczUOcLW65o1SeNDDwflEG+wJ3jZyN96SDjKg7pio9MepOZNuc9PnV9MEE/TL76BW7ik4FLV3RjdIKEs3HkqSb/GwPGkHFZnZxx5nxlZ4M9HTfujC3AZ+OiL6L1n4Gy4YlmYxW/sexpJht87awn2gGPi8CPZtDjbB6W7hiBFuJ7mGhR3Kq7RXgr/x6+e7dzjy/P4V03jOfoOCdjwX9p3W0ilefsTtxe+3v48e7hn369C/c2S09utkI/bC0RcQX0zDq8Tb/Y6mtJ5UxG8M8xYBOPnzza5IcrWXFvzs4kmSz+qaPEED+IVrm2XTtuQTJ0uFaZNQ7n1q1VpnblVzLVV59Wee0mM/nzM9lVBj5+Jf76Q31tR3oq8ax+Thm60pdM/ZndyY9nJqd4upJf6/TPPkZf2z3HIX9LMtOJP7/g3E8d4ra2g50DPt0IbF+1Pl0/D+sbI2BSrRPtmijerfx0n1sAL+m/1wTnr0WoBf+S/efi6V4X1efqerSc/pkL8S37YnmrnxpTW8cJm3vGiXjv4b/VpneZblzOJONWW33z1tMjSZ7LkyXgNaUnUGjir49t8p4+2tzb0NEBOlxn6ciQV+8pJJ3mZDbQ2fRUCX+y6aQvm+SMATLGL13GG7qnVM11dOc5t44Xdl3XgL053/Fr74qbNleZc/rpSWben+NdceyD5hz5czbjwyue+CbMNpDPn8nTfbqyCU/f1HGrHWzQkw78+r0+13/6VB3vOibYxGPM4AP41BsD8I01dOMDGHd8VaejcSguLjb5Rba2ngSPPw+JwJFsPiTMzzMyJ+3UAG8ygSZ1k0dpgptcIPyp8vrP5EdzNRknb3xTB73xT7z7c/x4yQTpxxs/3OSLJ5lzZTKTNuXSjX6Od8o9954NurPV/fTjnG50MUnuHM/EFb9bepPZyhf/3rIxcE0uni1jkB58NpQt/MVj8jYXrvn0rtC2jpvaa5P2zxUkkWJmowU2bGPFJfbqeP7oH/2jT1/+Ue8/RpFpE7eh47eZJ4ueDa/PgcSGjD5TuvD43UzANl50Oktyv/e97530kte3//Af/sPTfFHH/3f/7t89tUWd7IwJnXDzaZg6P/EDceheHY0OOPf5o4TDX6zwA3x8VhZDOuAAWYAG0pV/5OjOj/TDg3ypbeTThe4eb3R1r5F/+7d/+wmn37/61a8+xaL+w5vvdOQzvMuTRyWbrnjgxCL+/FDnBz50SV08yj/5J//k6Yfd8dPnqIbE0VjUv8ZoY4Ieda/GyepHfQ6fP8aQ8VcC24+6w+FX8kMim09sdZSh8cmfAx4XgSPZfFysd1tqIVkFTVD/laPFAb1Fq6cXJip6eDwmK6A33f0mGf6Jx4d/4ixWNpjPfe5zyE863OfLtMfP//gf/+PTJ1I8INvuw1kULBIWGjD15PfEWzy++MUvPi1q8Ux/80nJ95Un+sngsIkPLR8qk5/8/HYmqf+UhLf2pWf6Lc5+yDqePq3Tw2YQ3rk5caE3erLxwsNpo4U3P6/5TQYfu8E5fnpd+H/qp37qlCy4dwXTn/Q6T+VsVDE4pztcT7/SOfXVlumHNvIbjg7yyebTUX4YAb9hKXmzeRtHH3zwwYngB9lt2vO/gb169er0X5yM0daRb3zjG6c5ph8+//nPn/5zWWc2/Tci5zP7n9QSBpv9PLNp/LKhr9iTzH73u989+aAPJQDO0jXe9e23v/3t04/J61P45oZ7CcZf/+t//ekp1YetvL5e5O/kpYt+fs2xo+2uCep4Gq9i4Z5svPmfHPqKQ0smufhX3uxlc+WH70wjHWKkXqyzb86mQxxmW8nR6yoOkjRwzs9zuPjJpMv9tKNtnkYD67a10pgEEkK/iNC4PCFf/zEmtEe79Ln/mNf/QjeWrS3VKzuzaWyz038kM5adDWaDL1/60pdO7cvWUT4mAkey+Zg4v6gVC7qJcw4kaxbwuYmc44OzIOC1Ia0L8jkZm4WFa4tu8vz8+te//pSIWazAXIjU4S0ofPHTK+RugU+nNrItUMJi0ZnAbj4p84sfwcS3aEdT0m1z/cEPfjDRZ+/pl5j+s3/2z85uRKuQhfHnfu7nTpv8uhmtvOr6RwKwtvOc33Bdq65z/OLgAw7dxWmVq47+ne98Z1NMyPBbX14a0+lVttHPBEWSXT9O3uP+egRu9aOY2uzXROe61o9S2XBd6p9zPkwc+xIaawL8TG6yZEzwccpFW0s8XSvtEXVx2OJnvlziv4RvrSve4rcF9viUvmxUv1Ru5bskfwvfmnCL76B/uhE4ks1PN/7Ptn5pAls0TL5L9NVgi9EWfrrxb+Flhx9k1uTlkrwnofjXZGn1Wf3cpnOOD469FuFLPOzeAnq28F3T0+a5RQ9eMdkac3z0bvFzi/3ZDjpdWzb1xh/+LZDuLfzxJEN/uC22Pms8xo+nR/rE+PChTt97yqlEA+iSdnV9TA7gcwH8vSFIRzLo5i09bIBs4MHvaRPctFmdzfoxe3Q0z/njA5c6XROsL3DhK/GEb7xUTpr7bLtv/E58elYcOXEF6zo3/TgxvP5DN0Ajm++rTbRspkfZ/Is2/aaXnmj8mj5Fwzfx6slMfLjpZ7yzdB/Ujvyigx/6rTa5b0waG8ZNY4IedWNFn/PHRWaOK/RsNF7Q4cjFXxv4QC/e+PP5KB8TgSPZfEycH2ZlXWC2GG7S3uI1cedidIu/hecWH3qLwhbe+Lfy4tvaRrz8rp38CuZ9uEeUe3znzz38FJN7wT3Hyb18flv0etPhNaXN3Cbc8Rv3xokfurYxq/ej195ylCA4s2n8uSQGnkCbG/HDuQBb5DypToZdr9fx2+y9uei1J/v0kcHfa2E4Y8JF3lPynuxry7/8l//yST/bf/Wv/tWn9YNOtgI6JBfeVkjUAB42lYF7PiRf8rvKxF9Jj4ud/EdTD+gN6EdzZQMtf8Q2m8mgAf3UGyjyv/d7v/fef//v//1J1lnI3/qt3zrpZvNrX/va6ahRb4rE8v3333+i08kfeie09rEhlmI/25A/U8Y9vAtvb4fIe5XfmUy2vALXj/oO3XjJR7L1Pz/g9V8/+s4nR78km2KBx2tzeOOLXfz88LpdicYGHcBRMO0+4LER+Ogoe6ztw9obEIG5iNxyxwTdw39L36RbEPbA3sVij997de/x+03jFZct7bWob43hFn0zDvi36p5yx/3tCDhP+cHrIzc2ZJvw//yf//MkZMOWHDoLF+hj5yklO5IAm7czm40Rv9npNzFLDPSb30Psf6H7QorNvjObkht2sunoC90dw5F4SAb4V3Li6ZQjEs74WRPgf//3f/+JLlmmJ35t+NVf/dWPJUwlUOzhLVnV1u5rV+1XwuEXiwAumXCV+FzsTX1w52Tg+bSud+HTq6QPpKc6HH5Hd/7Df/gPT08F/cyVZLOEVDv+wl/4C091MdWHMzZ0pXedt/wElev9iTj+xFcZyTgoEZdg8lOfA/3nHG9jAk4iqV47nM03Bhp3vjMgYXUB8RHPzmgac8a6sQq0y/EiOsTtK1/5ylObTwzHn4dEYN8O/xCXDiOPjMC66D3S9mfVVov7m9D+dYO55NNWPvJ49/Anc8n2gf/kEZDUuQL9s85947J+Q5NwugC8++jpmWMZbdLxS2zC4Z38dNj8J27yR8+Wki48dEuG3c92oM92Ttnu86eSfPfxrOVKnzbxasfKM3VMmvtZT37VufJMfd1L5II1FurXYkF/bc/W6kO6K+OrvvLryxUnNi6Afs0nPPH+f/buZVmW46r/uN+Df8CRL7JlbIOBEcGcEQ/Aa/ECjJjBK5g5wcAYAmPji+wgcATBmPH/fFr+Hi2Ve+/OPNrdOpJqRdSuysy1fuuSl1pdld3bNd6eVCojGJOHTcdy4xY/+fxUPumzicD5ZPOzifvdtJp0xwXhOWUm7ir/nNDPYda2i41/lXZtOS6Az+k5fjJ/jvdt2lbjHfYuf3Ived7pG7w7/Oxc9fFtsF8yDp811s44Pto6b/Kuj1iehNVv5pdkRV2kj2Y/eVp1nIfJJ0NHdXh7wqVdfU+r4pcYxF97ZTw95WO/ejZKOqcd13wLnwyb8OeLcrj4Jlb8eKcdZKwTYUyZdDmTwRN/5fgn5rwmU3/R47ojfJiTtE8MfRfG5Ov6KJ8v2YhvroXq4YlVvDDUF8/8Ipst1XWeetXNMUHOmIiXfvyVj+3K7EmX8sRXnnjKJ302ETiTzc8m7nfTatK1ENxDyXOL11HfXACObcfyDu9R9p7le8fzJW1n67sQx10b5g3tJePxRcSSXHm9KMFaIf9b3G8vegJm7nYj9vrSK2v1buRuyF5Pw+9Jkp8h8nNHzQGvycm5uUsQvK4k7zWoNQeen7xSr2yfXDrwe9qk/MEHH1za8dDFFzq0s8Fr0//7v/+7uEcfvMYU+7yGnQnPD37wgzf8+OwR7IkfPnv36EV00sOeMMVFvXJJjXL8xzY2wEieTHFNBqb62vDDqW6uo+rJmwclV+psgegng7R7DdyrY7r/7d/+7fKblXTCh+l1sdhptzfRNodeR88PE3hh0tP8c823fFGPLz/VK8dPrzI5PHxzHVXf1ge8+sGrfD8/ZMyxW1+pT9ZrdHbQY2y0X1Ms6MBrz2d24EXq8Turg4sHLn5t5I3jdGXreb5/BM5k8/4xPjV8jiPweVqU2HoPe7vZfI678QtjupulG/Qqffh6b5z9bxJHiZ3/Ma0/fVHHTbn9lHAlA9pdu1nTY/8kfomGw/8uL1HTbn9mvzErKZDYSIiMQzd7euiAQR8MNiH6fHGEzpICCap9pBILGBLF+b/T7T21R5QdsJT//d///ZKY4Yf513/915eEgk64f/EXf3HRnQ71joi/klKkHi5eBNORjGttZGad6+qSUUbOEis8KN6w6FOXznD0m59KQxKlf/iHf/jKj370o4t9ZGD6ghBS9sFALEvUJXX23OovJJH/8z//88s1f8mwIcqG7Fauzhl/NiYzE1g84h9P2L5kRh9cHx58Qcx+U2VjRB/OvcP2ZPrNTP7RaSziL4bGDIy+aNYXf3xBCr8PJ/aGigWb2GGs2tNJ5ze/+c1LfT6c58dE4Ew2HxPnh2kx2VssVpWakCt0bbF5Tg7/DnaL03OYtcHeoZ2YzAVzR8e9eFdjeC/9+kVM7kWwV31ky844uZfNnxWum7ab7+p4lqxI3MiJcU+5nOH05Iw/+kFigldyo03iIKEQczd7dSUvzZMwSkJrD6N25anTdbh0ILxsc5jj2l3Xro7vbEHZyzfHtTWHXtS4IY+3ctgXpsOfcKf8rIudXrEKE8+k2V94ip3reMVD7COYk+YWgzCKAz7X4lH86cxX7fCj9KZbvesSxfg6X+PXNv2KN9/gkXPE56w/GxM9Ra8MozjwA1bjIV/h6bNk8iG/629ySJle/M7P9fdF4Pxzlwh8PPruAn+CPjoCTbxVvTv8eHf42bDLv2r3Lp8F6l2hdyUmO/HoZrEisxvr3XH1eYzfStxWeXb9d8PWf27irlGJTGV95lCGXzs5dcrqXScTHzntydZOT5jpDEMZX+1zfFWXDfhqd64dBlKOt+tsiVfCIZFThsGOScraUDyz/bnrsJK/xqut9vizUZn9jnjYqKzP1JUo1t4ZBio+ZKrD47qyNk/4xKKkEk9HOMUCvwN2/Mrpxq8+Hnq04Z88bM8+ySUKx5m+bNSGV706Z+Q6nuJVOfsrXwR+K5NsZ7xhxneeHxOBM9l8TJxfVIvJ61VCEzhwk8h+F68m2ufSRMQz+Zt0Xlv5pGfReIq3yQnX6wmvPdRVf8SuHraFgczEVudA1cO2WLQYXRqf+WPBFId0PcN68Rv2cTF6SoZNq7z0T2xl8qgF2jUe9T5966PZF9qvkRiJhxtEuGEfY6gsHtOWa5jHulU/ybGDPdlwxKoMk4+NE/X109Fv9Xgdt8YsXofXsV4LR2Rv2RTvl+2sD95///1LfI0Pr1KRflT2WlPsxNXrR2d95NzvHeI3vsxn+wBbK/SBuY0PBixtleGbp/2uofHjmj2IDvaoR3R47e51cONEO4zK+p4uOPitG47GJUyv8a1p2iWY/mWuV+35yW44EdkIPz/FLZ3kEDxEh7rmd7hzLuGprJ09thyEJTa2H4QB13YD+ukhq8wXdoiR/bDGujb4Yi+WMPHwS7trGHy0Z7MngF6v/+M//uMFi0w4XkfDJwezJ3/O8JyzW6zw0892sXemz1k7HEcytj301FFs9Sm76XfoS3gRP9TDdPRaPD34jZOJSZ6/+Ls3NJ61kRFz7e6d2ZbO83z/CJzJ5v1j/OIaTBSLg0k0J43J2ALfYmpyNfHnhFaHTGo3CQuKOvxoYleP1+KCH9EXaYuqZxt+WNmBR322TOx/+qd/uiyOeNQ7EJ/IwLAYIxu+//7v//6yAOOrHi5+xA6HWFnA+h/O6mDBZDeZieFmicfijsKOl1zY2t2YYMNQP+3WjsKw0PYaCR87HGw4xkS7G5QbRrhhs4UdSBsM/fI3f/M3l5uLsnpUTNKnXp3/F2xP3qzHP+OtzdEC3hcU8ocNxRtf2BLHxgnMbJnjhI1k1MFfGbP06U/YZFH6L4XzzyciYPz4YokxKpFor5wx7sav/5H+9NGhYKoAAEAASURBVEUO+yPFVYzNXfsGtRkvr169urS7yetPa4bX9M0TfS4RaYwY65ICOvDqM3akU79LhOzPaxxICiRZ7TuUGJhbjTcJBF4JDButA74w1G8squMDn+EbG/YA/uQnP7n4qexH4P/sz/7sYpNKds0kiR9/9Vd/9WbMGnP8bwyTUTfL6ibNdrLs/dd//deLTdr448fqS+SU/+7v/u6yNuAvwf7wt/tb9YX+KXYw+G6vIz/J6F/7FCWx6bCmFkux/du//ds3/cNPuMYEEgfxPe6fFFtzVWx9ECiWZMRW/7Rv15fF6JtjQMz5j9hABiaf2Wws2m8ZiYkx4axfJLxssm6KOb9bQ8mwmb/6nY3GHDmYMNRZ62CQt57y56THRuBMNh8b7xfRZgK1uB4B3UBMpBapY/ssm6B456ff2X687tPhCjZZ2BahFp4j3ixb6Cw+bm6r5EbnZnqLLNwWVgv1yiJjMWR3yekt/Pde/1cOC5l+uUUWYwvlKrYEzA9tr2BbZPXpSkzcoBye+Dx308wfdhhbbgK3yM3FsTpO4Or7FX43VaQvySA3rJV+vTB/yf5IzCSAEj9jw9hDxpNDW2QcSBSczRkxLbEUd/HWHgY+++jC0I/VwdQWJqzGcPzGnzGLr75kL3wHndlfuzUIDhkH+4w112iOA3yNxUvj6z9iIPlQj/DHw1Y6a7sw/PbPxHXd2ul8i/DDpTfiOz21ZRcbEN58Ssa52JWMTh7+iltP/GA54qFj2suGadPRRvbR4ww7G6c92iamJK/xgU/5SGzKDzbUx/Ep08cP/e6A2RNa7a7DMCbEkZ8O6wGbag9PecYjfef5MRH4+Nn1Y/SdWu4cAZNsTv5b6iwwq7SLvct/L1vYYVFcJfwWwVW6l930w2bPKs2bx3MycDue46tNPBwrtqzwhPs253vjv41N77qMm6ybbuTmPMvVz7N2ctG8VrfSD2ToeoqObcqz7pqOOd+OftEz5ZUnv7b8OvLhXaHixrYjxrEc3jF21Ttf8/GaX9OPa3LXZKaeowxbp13K+YZXkkfnrJv8eJ7yVxuSNB55jhgfcV7/i5cd0wacM2bzOpTJT/5oQ3zn+XERWL8DP86mU9OniECfFHcgVieihWdnocC/g21RWCXJ4yo2zLn43NIhhjt+smPVFgvjDvYtW2e7pwg7MZyyt64lsdduHLfkVtrFeyd+124uK3q+jDye+vj5IK9LjQ8/Q4O8mjQ/+41M88nrSfNEP2sTZ68f1bkm4w2B8avP8HvypV7/9Tqz7RBkPGXqf1Sr98q01+50wHCG2UEHPPJeu7tmE8KvTC9+mOS9YsbPR756/Y7w2ULDj+aGszcXrQn5p14cyHib0BM6uNkIk+/qwtNGBj/bUHMxbK/6vf0gi9/ZkzZP6LK72CTDFj9fFL52scx/cWKDMhk61SWvPzwd9NaIDvJipux8HBPkHY0Jc54MDAeb1TWG+Kl/xVc/NIZcNyZci40yypfGBPmebmvniz5H+pwv9PIL5Qc8T9KRMaGebfzSRqYx4Rqv39dEvQG6FM4/D4vAmWw+LNSnopeMgEWrhf0lcWFZuE46I/CuRsD4XB37EiDbTcwXN27XyLUbvaQLnnY3YWU3+T5cSJIQHomIRLFkVFKgHKakAlXupq/shs9miU7t6tIpaZIoSBwkYcp0ShKyCTZ5ODBKRNiujF/C4yCDjw3s5Qd+vD/+8Y8v/1NcGUlMbfWxRUC7BI98r23hSZraDiRJk8S3pYTfYtHvicJ877C1RkKGv1jTKXZtp5F86Su/H8puseY7v9hEp1fExc61rRHK+PmiLHb8ReT5hBfBEFcyYl2fhClWsPiOtEvylCWb4pBNF4bXf/he0lx/iluY+NhWGb9DGT976K0dP110Znd+sVn8+EFnH1rYpB4GHj6kQ71Y6j/8bKlf6TrpcRE4k83HxfrU9EwELBA7hN8ifA+CbZFapR1emLv8q3bsxnAVF99uTHawT971CBjzJUlHKePqOAbcfN1k3Wy1lTDBcXTDhuUm7CYvAXCz7sbspo/XTV/yIhmIf970JYJk04FHgjJ1eNpWWVuJSQkSe+lQT6ckDX/t6vGkQ+IhMS5ZcS35YBf78bI/fjph+cKKNkSHZLQkS6zsew5Tu0TQF1DiZ5vkEknaxb5k07XkU3JZkobH3vhIgsWv9leLHbuykw36IJvYCqvYibM4xQ9XnfjwnX38hpmM+qmDDfjCoEP84qd/Jn6SNjzx0ynppjMZ12yuTMe0Ez+M2l3zvTLMdIq5hFQ/znFnDCknQ+cc2/oY1X/8mAkr3OM8uQicf+4agfvcre9q8hcPvIHf+ZaHJqdvBV4jk3c3mVnlN+lN/lXCv4rN9x1si+YOWVRXSQx3+OHu+LmLvWq3mLTQrsqs8rmRwV71cxUX386YNU6uzRNj7ctAJUvXfL0WF0/YkH6bY8MYnGU8kpMwnEsutCHzc/Y/fn036dgPMJLRJpGI6Jg61UtO4lc+thvjxmLEj8lf/TxLRiK8R78lWHNOHtcWfk8ZGHOt4seUgaXOEYnDpKMffJp+0Td1iJ0kKSp2lZ35EeE/9s1RB/ypg92zjP+YmE0d6ZyxO44Jdky/yMxYHMeEdmNEPeIn/ud0wJ/xP/q1s75clJ5/7hKB88nmXcK6B2pyWFxMsDnZn0Lx6sm/3PrFL35xleXW4ntV6B2ovJfdx4X/HXD1NOGFI+CGMm/uLwz/zsDx83jDf844T/DssfNEiZwbuRu3D6yeALpRi5uzOq93SzrIeK0deaKEurl7+mbOknPW7ulZyYF2T5QkAtntSWR7/pKlw9pnDYTVz+ewiw3WxJIPmPSr44+1kFx+qKez/XowJLBeU/MLLzvpIIPyWz1byeMTHzKd2cBmNuHhR3Uw0kGGn15B5zds/MUaBrtgI2V9w/50asfPJr7yvdjhUz72l7I+QLDZK0ZwelrNNvJsgtseTU9f1bEZOePVP8WOnXTAhVn8xUM8xUHs2Ian/lKnzCYY/ICvvvJF6es/ynwWW3rTWeJLF7sktogOtmQjHcYg+YlhTCA2s+Wkx0bgTDYfG++r2kyIFtCrDIdKi4m9PdeoReBa20vUmdSrtDOhd+3exd7l3/FzNR74duzYwcVrsb2n3ffEXvX1qfi5aWq7l42r9t2bzw16x083bZSMczdh59rUx3OpfP2nZGzyuBZjRzLOkTE4cbKXLvWSnKiyswOlszr8tSU36+CmQ/vk1Xa0J4zsx+NQdp4Ulvrsme3zevqlPr3kYLMRuXag8Luefh354EnMIrLpqK5zuM6O9OGfuMfr4gCntqmjuomvbtLkV4931h11ZOPEqA6262P8a0/mWM7O9M8yrJM+mwh8PHo/G/2n1reIgH0+//zP/3xVsgXlauMTlccF4wm2y6KxM1ktAqvYeFuQn9I/6y28O7bs8Fr0d/jZteon3h0/8a+SmHSzXpVZ5Qt7x89V7N0xa6yctBYB+9r8Jq+nZvrQj34jT7C8Xu5HwtV5gmRfojHkyZAnaz7UKos5eT+UDQt5QuQLLv1gd69Q25voCZOjvY3wlfuNYHg+JMBs3LILP9uMCzawsaTZb+DizQ9Pu8zXvqwDjxwdxip5T+bip1M9/uahp3H8bn8k3/nVnr+eAPYBn23syQ86PBVsz6bY8BV/TyvZFb92/B4aFCs+4M1OmPRWZqNyGOQ9HawdpieXyvYzioEnfso96fQEk93p5AecMOjQ3pgQK7Hrx9HFhR/x04lHrNo/CcOezmLl2+x4YCD9b23ND/xsqBwPGxsD2n2TvyeZx/7pKXZ2iROZOSbooYNu9t5jHbs4eP55MgJnsvlkaN7thqduuCaT46n2o1d40Qo/Xgv0Ci9M/Cb1Cj++Vd6wnVewJ98KP7sdK7yws3uVH98qL+xVW7ohr2LDLZHgx3MEez55eY43/Z2f49XGjmJ4i1d7SUL4nVdkv6w8YjxJzI5xm+WuJS1RdZWvnSfPlMU725JVd62+9uN5hZdefMbU29BRx9GPa5hHmWs8s26Ff/LM63Cu1c02dk/bj/zHMtnJ73pnXk7dXcOYeuZ1PMd+mjzzOv5rY7m2zlPuaEM85/mxETiTzcfG+0W0+XTpd+MmmVwmrU907WHRfmux8HSCjGQijInrunp87c2Z9bUf5XzCZIunD5Pn2rVP5Xhb7OLpHHZl2D7hsmdS7eq69snaJ+q5eB4XuMnv26d8FZtJ4c061+0BKgk6ts8ye9nC/kmzn+Y1fk9zVhIyn94lj56qTJp4XfMF36tXry5jpHpy167Fw7ibY2vqmNfizO7G6DW8qQe2PVj1/eSfuK7ZLd5sKd7GjvqTfjcCYuub0fpDzDz1QsaKmHvyhMRSOz6x9MFCe4c612JvrTAezT84SDtZT+ca28aKse6JlHGpTAed+PW3vjMO6U8nHfWps/k4+9p8pgM/WWV6jRvX9NChjMcRf2sBW0taxEg7XfQ48wsvG/nA3j7M0ZkOGHxysLsxLDb4yGSTfsDvoBNm5EkmWXaoh6+OH2xyTQcMBJOd8Rc7ftGNnNmOTyzC0BfFIQz8+pdeOvDXJ/mfDjoj/Hj5AxdedudH8ScDq9jlFzsbE3jYJv6wyLrW3p5N+LDJ0c1uMWUXfjrqD+3wmgf46D/p8RE4k83Hx/xTazSpvbJpYQNoUjlMJK8+eoVQvcnpiNRHXiu0WFc/+cMwiU3mFexk3Nx6PRU2vdkSnwXFQrCKbQHxeojtKJyj3dpalGDH5zx5JwYf2R02u9DkD0e9ha1XgdUfefFpg2XR9IouXm1Hfm1IXLySctO6xe9mB8fPuCTvfA1bnZshbOPpFra+t8j3Ci7+a9jiJ+bHvuTPNX7YbD/yH3nJG/MOvG5W7Ohmqv2kT0bA2NRvYqRPXKMSi5JPY8DYdFMWX31o7MWvL1xbJ4zFxox5qF47fPXJOMOgo6RLO92o9YtOutOpHOnf2pNRB5tuWOSU1bvOJmV20a29NjLKzWs2sgslI25k2Ug/TK91EVkYjhIyciUxZMiLOTl6taUzvdkJk4wDD73xWyvYhrfkDD9MOvEnS6bX2Xjqe7wIbjqd2c83GMi5Mmz6HOrogFP7ReD1Hzr5A5ud5MIOU/3U4Zpu9cYMUo7gFTs+FAs64LMl38goF4v8q109qhw2rJMeG4Ez2XxsvF9EmwnU/pUjoMXAhLJI3aImL6wV/haTFV662WGhX+Fnw6rdsC2Cq3bjZzs7WnzUPUV4V+2Gwe5uwk9hVg87W6p77hz2U/09ZfFYvFfibfFFq3aLh7HVh5Kp93gNe6cv2b0aEzcWfc8OMui8cRx74OOyD3r2qvnvKW7y7WsTczGce+WMnZJ4N3tPk5TNGXHX/z7kNr7w+GDjQMYI3H470lM2ffXrX//60i6pI5NOyYtvcPdBDZMyGyV2+tUx24/7Do0BOOxCxp6yPX7GIJ99mMlv7Y78JOPJqXK/H9mPurdn05M+sQlD3OjIDz4hOsWKzT7IsVtMJEASpvjx4uFjH2iPfvUBLJkSw8p06tNsgkmGzvZo8t2HyT7s+3Y8e+ovfcWuMNisv9LBRn1W/MVAOX46jQl7dosVHtf55UOkWPUhlW0zdvwSs3TC1D/sFmc2GEf2kSoj/HzKT9+OV8dOZNzCbUzkh/7hn/GJ/6THRuBMNh8b77trc1OwyN6DTNodbPyrkxqvhWCVLFirBHuH+qS8I7PKuxOTVcz4xGQnhsmtnMNe7c8VzHjEe5XEb7c/V7G/yHxiNufutTjq4xlb/PrmqTGF/1bfGS8wnfEe+SVikySP2eB8bFc3McKfGMlXx85JxzE844LvKK9u8mifMTnalH2dj/LKR5uUp13XbJix0D7LMKe88hGDPbPO9SyTnxj4j308/X5Kx/SbjbNM5hhLyeWkye+aTbOOTdPu2RbO1CEBPumzj8AnZ/pnb89pwaeMwJyEK1D45wLznMwOL5wdW3axLThzQXnObm2rPuK1eO1g7+LvYsNfITHpad8K/w7P28RkFX+371dxT76P5qCnYMa/o6dwYu4p1yx7EqZsHEkSPPlyLmGQaEgMmkueHnm6FAY+VNk1mW72ztpqx18dnYhO13iMOWdPz9iK6CcXRuOysvbkzTO87KxdWb1yiZNzMnSIw/RLnXiF0Xit7JwfxQZPSRRsOuKHh59f1SmjyuTNZTz1W/2DD386lVFPUWGIyxFTmS1tnaBj2jVjA4/99Dvj1c6mbMRTjKtjoyeQlZOrzK6pU30HPASDXkR+jgl1+LU3JviFLx2u43PWznbn7L0wnH8eGoEz2XxouE9lX8QIdIP5Ivp2+vRuRcCNdGe82b/t1bSES9LgVSly8+0sAXHz9srTzdjrXXVesX7961+/8JWgwXDtxu31s7LkgE2w4apXllRow1OCgIc92unwajdMr+fp9HpYHV+9QsVbYqFN2StjdsKXwJAj4zo8hvPb8bWvfe3Na1iy/C2WZF2zjV9ew6qz/7GEjx5+Ibz4vPp2hgUTZafyq1ev3sQBj7ixTYx8mUXSp54/dGZDGNroFTtyXmHTidSJXT5I8Iq/uCJlWHwQFzroElOxFhf2F0M8DvIOOmD4op9Ya1OeY4I8PpjsFSNndXS1dYIcUkfvHJNixR7xQcYhUlZP1rW4FSM6YCNjgm38wM8m9mtvnLv2uh2xEc5Jj43AmWw+Nt5312ZS7kwkk3+VH7ZJvUo72HhbJFfwW0BXePGs+ojXTXLHT9g7+DvY7Fml3Zis4uKbTyN25FZ432bMruB+EXmMM32xOlfclH/1q19dvjQoYfnN+J1NCVV75YxJ/wL3ww8/fPP0ys37Jz/5ySWM9NrLaF9ce+k02K/X72y66RuD9uuZz5IIh/128CUNkgz2oJIHe+nIGQf47bXzNIuM35LUXgKGh//scC2ZFgt7LtnIR0kFv7TzwfHTn/70YhOd/GATHMRvv7NpryGMfGgPp+RHAmMfIZJYSVjaiyp54ju/6ER89R/eeirntyDxw3coS2bb3ype9PLLNZslpPoLPx2SvnTqV3x0ODuKg4QLvff6X5XCa2+jhJHPdBY7SaH40mE88E0ZiT/M/BAD8fv5z39+afeHH/D4gh++PaHt0ZyxY6P+lfSKFX469ZdxF/Gdn8YZHn3aGGCnMaRv2otKp3rjhl90is8cE40jvGxjy0mPjcCZbD423nfXZhKZePeiHeydCb1rd4v6qp+7du/wr9qAb9fPHWwx6ZP8jtwKL2wxcez06wr2Dt4O74ruzyOPPl6NQwmQfpM4SGhQ5eaRs8TIzdi1w00fn0TPTT+9yUhqShJhsol8OpQlM0gdHAlP8vFqS2by00kmm+AoO+LHwy88qPGZD850Tn7Ji3Iy6cwuSc7UCR9uGK5hxM+eYsdnbXhgJDP52Zn+MJSnXz2dy0bt7IpfvXL4MPOjung7q+/Az0Z60sF2vsavv9OpzlHsyKNiUzt+foShf6ZO9XTGjzcdHyF+9KXFZOBLHJ1LootTOpQRGcQvevOLLOJfei8V55+HRuBMNh8a7lPZZxEBi4zjpDMCn/cIdINd9UPC4KmYJMHhxo1c16YM1w26hEW7m7YbtUMb/hJQ80l51pFVnw5JBTll+NnAHqSNDnJw0qeMvzKdJQ74EEzydKhLZ36RYYtyNsCb5TDDYRe98PDlqzI96ag9fm1ipJ0OBBNGPpDBzybH1ImfPHvSoT0ZNhXLYgd76qQHv9iVdGknl4x2fHRkXxhsqB+OdpJzTJ34UTrJsBPeMXbpxE+H9viVyWQjHmX15ByInvo0m8URwaM7v9JRLPEkUyzVnfTYCJzJ5mPjfXdtJpUJtUNN2lsyJn4L9C1e7Ra0HewWyRVsC8wqtWCt8u/GkI87fu72z6rdYrITw1VcfBZ72Kt+7mCL9yruvAHt6Piy8noV+/7777+5ETcnvb70StNN3pz2dMmrXzfqEgBlr271jbi3l9E4sN/Q60o4SLtkwCtbr2KVybvh0+HpojFk75w9f+zAY8zSR4ez9vdev/6Fr06ZD40PcuYP22FrhwuHH8YSu7TjY6trfsDPBrobz/AlZZ6QeUIZLr+yDxYeBI9v4toTTXaIBX7YYuAVMzl1Ytcc8oROu7b8YpsYwcUHq0RR36gjUwJFTrt6PpPnB4KDvOqHx0+xqe/nvkpy7EDw6KBbHb3K/qkEveT5rhzZN4pHHPSZdrHwahw/fDjqxMUZzze+8Y1PjAljhB+IDL/Y4Lo9lvxSxz7YfBIHvK7V46dDO3/wu85n/H7Kii0nPTYCZ7L52Hg/RFsL2D2U7WLv8O/w8s1Cskq72Dv8uwvXDvYOr1js8OPd5V+N9w7fjg27Pu7Y8UXktT/thz/84Zsv4vTbgxITN+X25/H9W9/61ld+9rOfXZITCZKksL2Oxrhkwt5GyQP64IMPLuW5Z9OcnHsbJQDplJRI+n70ox9d5CUJEssPX+/X61Xod77zncueQImFJEG7/Xu123snefrNb/eeSnYkKfbnIXbbk0mGLRJgmO09pVM7vyUoCN/83+h0zt+OlKjQkV9ip85eRiQRg9n+SXV0/vKXv7zEiqwETTl69erVZZ9jexuVxTW/2C1pLnYSNL79y7/8ywWCTpj6J9Jf9qKKnf7ypajKeOx1lBSmU+wkZ40B40EfkUHiz4/2bNJP59yzSZc9uv2YvCRSOR18oKP+oYPeYsEvX3qafhhX2iXl+aE/2Y7YYF9ov+1pTKD2H+sf8SuW9OtrdutrfbW75lwUnH8+VQTOZPNThe+zEbZg+uRo4jiQhcHE9AnRAt+/NbPQqUd9ElTGj0z+PtGrx4/idY3XYQI7wq4ejxtAFIaFBPmEObGPdsOxIEy7+RhNbPUWCrwWn/xL5zVsMvxkN9lkXONv4Uknu/mPb/o4scNgo5h7cqEd/7V4Z5/FnB4L91PYsx62BTt7rmGnU0ymDenkH3kUtrOYu2kmow5d81O/s1sbG9I5Y1gfa5t9qfwUNn2w+dkTh7C1NQ7DVqcvxVsbXvLFRftJnz4C9Zdx2k2+utCP5erveabzXetr9hxtOpbvEZNrOqoTJ/O/NW1V/+zT1qhkYc/26o/nyXPUry0bk7tWru4a/7W6sJ46h/dU+1l//wh8fEe/v65TwwtFwMSxkEjiJrn5alPv5o1KBlxPfkmDNjglEnhKSiw0c4KGDfeIfbRl6oStjNI57VAP26JU0qEOZcvkrw4WO8J0RpNXGX/2wY/U828ujPE7S5ayO50Te/rIdrbgy576YepzTd+MSdjX4o2f7WyRcE+d05Z0hhFm5+PirF6dQ+JWMh//xE4nf9jdU610HmM4sUva+XELm87G1cSetqhHjdlZvjScf56MQGN5MtQn1RV35dpKNNUVb9eop40flb5ymU/JqSNr7E6a7eqv2TX5j9fkjzLG4KRrPLP91jX8iclPY27SbFd/jM208ciL/2jjUZ7MjNWRPwznSenFb17P/pt4ZI46j3XmOozkYF+TmfqPGGKXTbVNDNezHE8y+T1jWF16lY/9k814+EHHxEj2PD8uAmey+bhYv5gmE7hXHUdQN3iTymuHW4RPwuGVh9cht8j+Hzf/FWxY8P08RT8h8hy+pMeCsIrNDq9ReoX3HLYneMhrlhax5/glj/ae9SroOV5t8Ptpjlu89Hsd2b+Mu8Uv5rDnTeMpGU9ALbordut3r5vE5Jg0XMNnB7t7HXaNpzrx85qvV2XVP3U2ZsVlpe/ZDV9MSpLpWunXp/R/kes9SfdqU4yLHX+VJYLNO2PAhwmvJH1oMY683tTnYmsue5tCzlh04PdK1LjTrs28gansrM7ZK1HzxLz1epctDhi91qSXDokCvcgHED9NVEJC3jVeR28K1LOT3Z6Qw8WX7V694jF2PM1nX5h+tkgsrIHGFHvjc2YDfpjIXKCX/eLmjMfrd/rxahe/bOUXLL7RAYMetqD0F3ttxrV6/GTZry8RneLJL9fk+IGv2JnfeNiYHeIBE5a+IUce8Y/dfMFHDt8cE/pbfcRHevSvMQGb/+qKGf5iyC9t9EoCnenNL7h44YoV/cYHv+jgB7sd2cFH9oqFazaEqx6JMz+Ve4NyaTj/PCwCZ7L5sFA/RpEJ7lilFpoVfri7/PeyZcXeeHZjktzqecdHmLsxXLUDn5vdCuHbsSNsvraAP6Xn3vF+Su9Z/7sRsJdOYu4G60bsdxdRCaM2VDJi76L+dXOXEPXhQp+Sb88mfomAD5Lt15OISCD6ICVxoYcO/JIIY659iK79TiZMiYUyDHvt2nfINh8otaO2ffhtRzZJxIzl7JRkKMOg07Xkg9/w+eWcTpiSZfI+GPNd0sYniTMd2uHO2KnnF35t7IIZSaDs8SxRVI6/+cPHGTvJU36xmd78IC/e9Red+jSb+ISHDexGklV4ynTCYw8/2V9SHoYETszS4TpM8mI3x1A62rOJHw98BzKG2MaOyvqEjvCd6z88vlglduJBVoIqDpJNhF/sSqr5oc6HbPz8ZOfE5IcHNPiM2frgAnj+eUgEzmTzIWF+nBITeWciWXRW+U3kFv0Vj/DvYFsIV8nCa+FYpR1eC+aOn3xc9VO8d7BX/cMnJjsx3MF2c7P4r/q5g23MrvaP+Dm+rLTru7HWEzvzUTKIjBOHtkgfaCfjZq2svyWMzX03/G765MJ3jc8YSUdY+OHAROlsrSLXuHVWJksnIl87m1ynA6+xWbl2OlxLMuiuHW/yzUM2w8ku7eryU7KDwtDuiP/S+PpPftKRHWTogTf52TQx8JBJB7unTdYkFAZ5FL9reMVOGab2ZJTx5JfrePDrn2mTcnbCbX25pvOoo7IEFmYyzke/6IifHeLQOGqMVK59+oV/xs6HGnLpzA9ltsA66fEROJPNx8f81PgFi8BuAvAFc/9F3DljuBZGcXJjXY2Xp1vITXbKXLvpSibikQB4ciQZQcqSBOdIUhV/PLNcIpOMNjKRsiRqypSwxXNsl0RMomPKz7aui4FyftTmzC8xjaaN6o46lI8Jy7RLWz6Tv6YT/5Th57RBYjTthlOy7hqVgH5U+nhvorKYONgaSd6nTmOA7xH90y/t80M9P0rgksE/dYjdUQeM6IjBxmO8letT/BJRtkTw+yCizvUss2fy44Ez46vupMdG4Ew2HxvvU9sLRcCC0oL0QpBvYM5F6U0ozot3MALG57yhP2eivXAOiYqbvtfUSKJiDkloYHka5JUnPkmmOq/Bv/vd7765UZPBRz85ry89ufIK2c2cvETBT+woh+/JIN1kerUOQ4Jgb552/BJNr49fvXp14Vdnfx/ZkiCv3ZFX3ZIQ9loH2MBmNjqXwHhCCON73/vem6SSPgdeOthFh8TLtdew9NgTLmlRB4et+NlN1k8N5Re72ZKdfi2BDfwMI7vIihV/2Ybw84Ne/GIHT7yck6ET0asvtSFYMNlKLzvrDzaxuV/M4Ad+PuFlg3ZH8WCrdnFllzGhHe8f/dEfXXTyjR3GgNgZG/jFz6EdhvrGnTo28kd9ftGhDdnfSo4tklt9ZZ8vXsQvfdPTUGOBPJ3swMd+/rpmN50IpvGp7qTHRuBMNh8b77trs0jtTCSTz0RdIYuBSbxK+HewW0xW8Pm5ig1vJya7fsJftUW8d2IIe5UstBb/e5AblgWbn3x4SdrpS7qv6b9W95I2vktY5smqv36/0N41N2iJSXsC3cCNlfYyGpP2ytnXZhxJQvR3X9rS7xIJ8vOGrtz/QpckmTv26znTJxGhA16JKnuaY2ywh1PZOMDTXkdz1rizD7EnavU/vWQkY2xnA36xkXS0X48PbOh/petHGPNLdJIv5ZJsdrQXNR32VvZFR4kQvXTQqSyxsa9QDJB425dYWRKJn31iqSxZ4gfK12IpdhJY7drEyRdl8ks7v/UPPHpg8yOdkiqxlFjCUM8ffoirOIkPHhiu+SLeyvBh8qM+V+YnguUDh/4WO23qJIL5IU5iZx+vuLNbwmpMwKdT3/KLLOI3HWxU5wtK+F2zK53td+UbYjcdxpB40anNoY/DyDZYJz0uAmey+bhYn5o+owh0g/qM1J9qHxABffxloG7Iq766kUsGJJeSqL68UyLRDRueJEAigk9SIEEkK0lxw5acSCokLwivdgeiQ1LiZo4kGhK9vqACRyIhGUFsoL8niNXR4aATJj0lUPBc5wc8SQMexGZ1dIoVXm3ZpB3RyU/Uj50XCzqzS7sEDFYY7ELxi7F40WMcSrokSnRoU5Zcxk82G6tjL5n80hf05pcECk/8eF3XDlMcxA0f0l/0J8NG8cgPseRXOvtAEr9Y8UH/0ieBoyN5OiTZU4c+n2NCMjnHBB3sgov4xa7K6sjzC65YGyfGHN8QTDZmZ7L5Id5kig0/fFAiz39J/pdlvbgE7B35cyab70hHvKQZ78pE2v3keC+72bFry0v2xyOx7hnDe/nhxvBpqQTg0+J8EeUb/53z0ViZ86JyfMoSsniqrzz5YVbfWV0JXbJHPhizTj+Ge2l4/WfKzrrkZnu6Z93Eq77zxEt24romz67ak60cT+WnYlY7/j40zDr1lSVFR7tnOz4Y8WvLxuqOZzyo+vArawvDdTZMPryT33XtZNDkOfantqkjrM4fIXz0d/K6jud4Puo8lvmRfLJTz3n9mAicyeZj4vwwLW7cJv8qmXyr/BaJbh4r+PfE9im7BXvFlh1en4x3/KR/NYZisou94h8eMbGw3oN6WrPq564Nq7ji5zhpLQKe0nly54mS8eEaqffkzBOryFOpEgzriPb4xZyM/XHJeEJlXOBDnsZ5ilXZE6iJ6QlW9uC3npAxN5ufZKYOdrMFLlI2VviCyGvPTvZMncqeItZOpyd6XqumU7sndJ6yIX5lqzKbeyJaefpBB7vCYw9MTzPV0Tn5YbAbTzqVxTU96sWxtUL9xKCTzJzv8OyN5D9ypp9tiLxyOrWLd7GhD0ZlMmSLFb+mDbU7iymCqW8aA8f+Uj8x8JJpTIXBb76JHRv5FQ9MdZ58onTgRfD1X/1h7OKxF1Sd/j3XkEuoHvrnTDYfGu77KzOZmmQr2lrMVnjh7vDDXE0i8K3ywt21g8wq7cZwJ96rNsQnJqv4LcbJ3jrDnTer5/jxudnci1b7fice97L184TbK043YglLrx75YA7NsoSr18/62utMrxzxuTm7weNvnEmmXIchcTBOKksQycFB+k65djokTL3exOOVaDrwalfXOJUMGbdhSLr4Vlkyk8/0STrw5Ed+4W9euXbgoVMyEkZ2z9jBhZPOElOx04YkR179igH7JHjxa5cQaatOsjZj6XqWxX76SafYJA+z2KWTvNg7IzKzz/kwdYjxMbbk+EUOv1fTU6d4axc7ZD/l9Es8Z+zo0x9hiAvfK8MwrowJOEg7P+YYEFt6kViKexiuZ//Rrwyjtovg+eehETiTzYeG+2WUWdT7jwstbpBNbG0WZAtDdXgsVC2us96nSvxN5CPfBeT1H/Wwm9h03aKwWzSe47cQWri6eTzHq80eHDJukLcIJh+P2HyY8QvHzQZ/36BU/xSvNvwWtGvx1Y6Kq4XTp+yw1bPhaAd9Dv5Z6GFnQ1gfIX9sG5vxis3UmVz85BFbfLuVbjzomh3qxFr82I6OmJfK13/CFpO+ORu/8zV840rfO8eL7+insnrjij3F2404+y8A5583EXBzlyAYn8ZG+9jEy1GZgHnaTV18le3PE3O83fTduJEbvht8GPpBn1TWT5KGymRgVjaejG9JUgmRdajkRX8f240/PGEYMyVB8OljB0y2GFf4+yIOnfzQLh5IgkQn35Gx6xoPKilLp1jQUZkOmMqNb36SFyvyEsP4YdJBZ3XKeCu3Flbmy4wd/UdMa4r+kPjRWf84I+vDxBC72V/iIT7pNAZKRskZQ9aW2mHqDzpL9Oh2xKMP4VR2/3BUpr/YwUPsFX/nYq/MBmRczdi1JoWpf/RDZfrZ3ZgwRuqnC+D55yEROJPNh4T5ZZVYPH1r1KSKmjwWKZ8M+8Zg9fjin3XdgCx0s/4av0+hXqn0jcjJHza56i0kJraFojrtKP7qYVsQfGMQVe863lmvDnabwq/xV2dRtRD3bcXqn8JWb6FrI/w1/llnQRQTsZz1E796fTMX/Oonr+vq3VTYbdGvTjsqLtVbhNW1yFY/eV1X7+YD23ia9eHOOrzGlv/mkvxF6PWf+Kt3g3HTagxOnHhnXX0ffzh44q8ONjJOirebSe2XxvPPzQgU18konpF4ijW+YnuUUV9bcuZ8ZFxNmaf4J0b9G8at88SPd+KpmzYpH2WOOo/yt2Su8R/rjjrZNHmUp534n2tn02xXRukJv7K26lxHR9+rd9Z/dBztmjzH66MO+o/y0+55HdasIzt9wKP9Fk9Yzvkx687rx0fgTDYfH/NPrdEElGhdIzd5k8snv1vUQtCn0Vv8PR1ZwYYlQZK0rfBb9NzsVnhh83EVG64ED/ZcpOBcox27ybNFDMndInas2h22vu5T/XP4ki59tBJD46RxtGI3fkk7W27FkA2rY5A/kvX65zn/tBkn7GUHHWjezC4V5583EZDI26vm6Y/xYezpP0/FPGHyIdM6IKZi6wOfsz4ho2z+4PH0zbW441cHQ3+7hqlf9AcMbcnQ48MK3T5waSdjXPmQpN41nWTwInw+KNbHdLEND35PPpXZg0edD0Z0NE7ZCwOWdnb6ABymMnmx4h8e1z7okXFt7ONB+B3p4AcbPCF1Ruz3xC5ZPuqH4qcvEF3k8dPFLxhi52C7Az8+GCid+F2Li2v9Gy/72cRuepXx0UOGD/SKBaKPneaidvFzzDFBhp5o2ksPbPrrY/6j2uiAZ41SVxz0T7GDIXZsY68+9uS0sauOHbD1IQx2sqX+rb/4DRevvcD4YfPvpMdG4Ew2Hxvvu2trkbiHItgm7yrtTOhdbAtSN5Nb9uzYAQv/KvYt3cf2e2LfMyawLdT3iEs3mWOsrpV3+/IaxpepTmwlGSUaJSLO6iRm+hSfm7h6127abtjKCI9rCYDkJ348xgbSrg2ufsILxxmP9sra1dGJHz4sZTZFZIy71h3lmTiFCQNf/tKJ4OaLc9eSD7Yiddmsjg3kZ6LC3pIbvA7l7IJBhn6UX9qLIxllOvCjYoefrXjygW8wJWXFRnty2V0c46eDvTDZKHlUpwxbnFzDJoMHZacyeXrpKMZk8bBBe/b2QVg73voBD17lZOiE4cwG+MrpZId6/OKkjX+1w8qeYjd14NfeGX+xoLPxQM9Jj43AmWw+Nt5XtZkAL0Um4A5ei8aKfrw7tIu9Y7dFaod/h7cFecfXHXwL4D1ITLqBvjS+mLhh3Yt24rc7Du9l82eBa37rh260t2wQ1w8//PCy/cVNuK0KEgRPirRF2v3AOnzXnnLZrmBM0edmbfsOOeQmb6tJ2008dYPb/khPrzyVooMdnigZo7/61a8u8sZUP9jduPVEjA5PSOmUeCjXbhsP+2z/QBKieJRdO+gwz9hML4za4eanOk/abINpS44ft7e/rz2bnrrBJIPoNAb5hcRK2Q/H85OPnuCxUTyU2RE/Gb57WpdO3wDnY355cucpbz+qL9kS7zDoFIv6E6YkXbn9k/j9YHtPLvnB9nR60kem2NAnZvUPn/khNuQkcDCnTnbo72LFV/ptt0GerKpr65U2sUoH/fqjMpmvfvWrlzh4Gi5O7BJ7YwKRpy8/xY7d6TDmxCu/2G0MiKUYf/vb3966d1yUnn8+dQQ++kj6qWFOgE8TAZNthywaf/mXf7kj8oXj3UlOdp3fxd7lt1ie9LIR2O2Dl9X+7qK58SIJWk+glN10S+CUUUnTR6WPvmzTWBVfCceMs8Rjrl3ajuVefcLURiaCLaFJh3oJxdQhUZnt+NVFfJh+qZ/yylOntiM/G8UnomOSNr5HdJZwq+OXhCYqrtlNp8RpEh+mH+QlVhH+cNRdi53+mkSmD7L44c1YHHXya+ogO8vslyRPOvqBP534jn5M2a4nBh0zdniO40qsp134+Rfxc/bZsb/wsXHamex5flwEPp61j9N5aroSAZPHJJkLzhW2S9Vxsk0+i0uL3Kx/6nqHf4eXvrnQPaW/erxzAan+qbPFZ4d/JyYWpV3sHfwd7Kf8v1Zv/NwLW0yON4VrNrxNHeyd+F3TAWNnvF3D+DzU8fOYRDxntydl7c3Tf540IU+U3KC1iT1MT4M85ZOMKeP3dBPhkdx4yiTxkrhUNu6Qp2D1gTMeyQodrrUr21unnQ5lCbH5DIdNnkL1xMuZDSUbymTZiJ/NcNpXSI9khQw+1+zkd/NDee47ZAPb4Jg/rvHCEm86xAIeUobLL/zk2QUTP8LPppJUOmes8aP8gkGmhJ7u7GSX63SSq8wvdrGXvP5hH8LvgKX/xDX76MUHpzER/7QTJr/EG45y/OkQL23s5BcdJfQwpw7yyo0JfjuUIzJ0wpp+8ZMf7GZ/a50y3fUxOfYYV/gRnY2J4pO+8/yYCJzJ5mPi/KwWk9NhwqyQ1wU/+MEPrrLCaYJdZfgUlSZ7E3wFpsVhlXcXewU3np2Y7Ngd/uoZ9r2ohfke+LD1jzi+tA87eHiv8Zs797DtHrF8JKYbtwSkm36xUxYvbfrVzdlNWFmioE7iJ2FqTZEUGAeO+CvzSTs5ByKnDqYkw7WzpAfhUycJgCPRolPywjbt7MSvHeFHkhN2shmvMn7yU0d+a4ePV51kZsZCgkKWX/Rrg8eHMJQRHjr4lT52sTPMkpuSSeUZa/rYAh/xg6yyQxsZftPVAQMpw+AXfnrwsx2Rz6Zipy19YkceTja75iMd6a9/PI3UhofOqP5Q74BJR0k2v9gFj55w6cCvDUZ+wVVnTMCYftHvSIdr1HhhF7/gWQ/id60P6WCDa3ac9NgInMnmY+N9VdvuwLd4zFcRV0HvVNnCdA/4e2HDvRf2PeLwRcDcGdM7vF+E2DzSB/sp7VWzP89NvD2AnvpIjiqzyY3dvkPriyQKz89+9rNL8uDG/erVq8veuV4hSyrgtwfwuGezJ0npkBTgqSwJMC/nnkx7Nn/zet+hX3cwLn7v937vshevpM26R6+9iMi+RTj/9V//dSmz2x4+ZXwSGnX8QK4li7/85S/fJLAffPDBBa+fDKODX+0R9MQMTns2JeDimR/iamsTP/gjVnz/+c9/fkmY6Pva1772hp8dbIRf7CRWjv/93//VfOkbCXE6JG1iUJlO/HOvoyRM7Po1Cnsf4bVnU0xhzD22cH/xi19cdErG+JYOfvBHrMiJgT4sloTee++9y/7M9myyyXU6+KB/8osO8UgH/eJbGSZ+sZQ4GgPGqQcsjTtjiE/5iY+d/WyecQvXWEb8EH9jwti2xxT/SY+NwMcbHx6r99R2pwiYWBbZHVqdeCb+DnaL1YotsPsEvsJvwVq1BfYOvU0MV/F3Y7iKi09MdmK4g+0GAHt1rKzysWF3nOzYffJ+FAH9J86RcTjL1XeuzZiKqpvlW3OLTHLXdB7lJ8+8njq7dr7GMzH5faRjHfumDP5dv/Nxys66I/5Rp/LklxTfosmP94h51HkN74gxZdigfOSZOEeds811GLP+iHcs05kd2vTX7LPn+OlJNp3ZcKyv/Tw/JgIfrySP0XdquXMETKidG/2OOe/SZD0uOLf82InJ28RwB3+H95Zfs11MegI061/iGvZqcv8S+p7DeJfG4XN2vgttYqXvnB3dtNUZh85ots96HzDI1I4/PHzqw6ht6mjMhDGxp5x2bZFyesK9Zmf645268ScbvjKbnKOJkUz6lbN5YicTf2W85qAymjjp1Jav1VXOTk8Iw3SeutNJJn518cc765IJK32VZ3s2zbVEnWPyh5/ezvHW7pxNYU8stlSfjDKZ5BqH2pH2ZOidsVDOFmd+5O+U+wjp/PuoCJzJ5qMi/YJ6TECvCppAoE0q5FWKPSteh6DqXR/5tXnd4JWP83O85GF7leLVCN4jP/xZj79FYvJOW6pnMxuewiaD4vcayeuVyp3x5Gd1bGYLbFS963hnPVta7Gf9U/zsbu/UxJ781bO5BU9d9ZN36myvUTft+K/ZzQ71eI/Y1YVtDIkLe6Jb2PiLS7xks6U6T4V2+tKruVtjNmyxwzvjbSycdD0Cxvzv//7vv9l36HWiWOpL5KeHxFTZmuLsdaU6Y2T+y1FjsZ8ewudVsvHTXjjrCOzWHuOCDB3OZPSbMaQNLzz9aXx6HYq8Jk0/fnZYR5BXruT45XW3cabslTE+B12IDu1ecfMjfGvBe69f/5JD+OHyxdjF7xU3PyQq2h3kEB3GHL88NWstYnPzFJZYs1sdefzwyfPLa22xQ/SzVz0ZtsHVd87k9E/bp8SSnc7Fji1iR9YhRjCdlfmj7PUzHP6Qb0z0BLAxQS8dCD+78TQmYOk7fut7/Pxwzf/a+Z4tsKZf9OONyLTlQxyMFXptO3DmB3yv0cUP2XqB1LOTPryNCfbR0bgTRzgnPTYCZ7L52Hi/iDYTxSQ1iaIWOZNMm0UAVe/6yA9HHV6LmYnuOPJWH68FHD2HfWF4/cfEDzN+epvsYdPP7lVscrC7CT2HbYGEX0zSycZjTNSxDW+YnZ/ih8FutjyFXT1ei22YnSf2sS5bZv2MYfV8zJb0wUX5GS95/G446qr/iPt3+fGK93P9k066jMPneOmZOq+N2elj/OpgFxM6yao/6XcjYO+cvWslkv0WoRuz/mkfYrH+8PVvR0qwmi/2HSLtEkN779zQlc0reyf7TUU3c0f79YwXyZN9hPhLrNpLR4e+s1+vp0/GIxvpMI7+4A/+4GIjXKS/jRs8riU3xoP9etkk4bLnD59xItHgB346nfnd+JN4+tZ+v9tIj319Ehq8EiVyc9+hxM0eQDr5SSe/8CO+2k9ZkmbvaftKyUgi5+9RquMjP2BkN7u06SuxCoNOfrffkox1Razb28ivYskmybY1qn85K3ZkGgNiL1YwEL108kP/6G99YoxEkkD7TiWw+LXr/2JlnJFrjPCDXrHCT6fY5RdcHz6LHb/4yabGgN9Btb+2faLZ0p5ZOsWn3yzlA5nGRP4nd54fE4Ez2XxMnF9Ui4nfgnAEtsiZ8CbWLWpxsDC0QD0nYyGyOK1gw7FAWxDaeP8ctgWGPavYFhPYLWLPYbMZtkW1m8Fz/BYni2cL5nO82tgCW7+skBtQP3x9i9+Nzg2opzLP8ePV9ysxEQ8JiJtRi/hz2MaVpz1twn+O183BTWW1L40rtMLPPzcv4794i/9Kvz5n8xe1TVwkGBIr18WsD2md+R+vOnPXGHEYH11rS2bykz/qMA7i0U5ulmEqsym71MFR1teup870xK8dXzaFqZwsmfhnezJsmLzpS0abY5anH+E4q4/wO9RNfu1hJqv9qGP6pS27kieTTekMgyxf9cHU4ToZvBND27TTPJvxgoWSd53d6QizMhkYR5naj2eYSD0Z8sUhjGxMVtlROxtQZRjJaKv9wnT+eVgEzmTzYaF+nCKTe5VaDFb4W8BWeOPZsSWZlz6z4Z527MTlnnaImyRhhfCxe4dKQCzcz9FOPODs8t87hs/59nlrEyvJuA9QPnRJIJBrddpKECSV1gP97NCmb0o6nNUhMj4Awe/DHDw3+HSEQUZigJcMPrh0qW9cqcOrnE7t8PEi+HSnY/JrVw+HDD5yPkhX76yNDnwIhjr+00dOW3aS6cCvHn9+4SWbDjz0OtQ5x2/uwHcgGEhZG36knp7KYsf3+NXPWOez+mTg1Af5pU77tCn+6Rdb6OwJM734PHGNH5Z6dWyhQxzI8pc8PdMvsj6IksPP7vzAixqHeNXhZRscRC6/KtOVXeyZsauv4Yhzei5g55+HRWDtzvQwc05FnzYCTe4dnCbxLRkLwyovrB1+i0UL8C07tFtMdvh3eMVwh589q3HZ9RP2KomJhfseZCHvRvLS+GKyEz/8X1bq5nzrhlmMvEr97ne/e7nBi7EbvTY3Xk+r21/pqbVXmu2fxet15De+8Y03ofb602Fu4MeLhy3skmB422DPHR29QqXD/roSBK/W8UdsQpIEvH/4h394ebNAjzavWZEyu5w9ldfGZvo9HS958YSfnWyQLOH51re+dVkz2JCPzRX2slUZv7HORrj4+aUNDxI3GI5eTYtnWxXw8MVeSLaal2yCiZ+O+oGNDvHQBiMb2aEsdtrp/eM//mPwb3ylt7hqh9tPArFXHNgubvlrOwQ+NtZvbKCPDJ34Jeniyn68iM98wo9H7OyZhG1M4OOr2HXwt/6AV7/lFxn9jh/BLjHUJm5k4NOjjq2Nhc5szy9YdLGVj/TToWxLAx0nPTYCZ7L52Hi/c9relUn3rtihg9hiAbsX3RP7XjafuO9OBFbmijGGzw36hz/84SUhkDS0N86NV+Iwf9/QF0NsB5G04fX7kz/5yU8ujrthSz7mHkD7Ke3Pa++cxANP22bgSzzaoynpw9M+QwmBRNLWjBKh73//+1/58Y9/fMFhv8TI3rvaybtuq4gynPYdSkJg2pIhsZAovnr16o0fEjP799jEz4hf+UF+/o6jZEfygwfxyRdnfvrTn17KdEhm5jYdCXO/s8k+Sf/8fUo6JFvFSlmy2fYasZI85Rf9kqT20Oofvhdbhnzzm9+8lPU50j/21FaWRIpdOiWJkrMPf7sHU3LG1zDZDaM9tWLrSzf5TYdEsv2tymJrL2q/HyouqC1JxgRfiwX9xmLjEi+dtsmIBxv4hV8ZsVtCXVLdF4TaowlPn7TVDAZZ+0D1ubjNNfje6/3F6PPPV85k8xwEn8sI9On6HsbD3qG5cK3IWfxOOiPwNhEw1oyf1THXntySNU+nkSRBwlJZnWQCn0NyKRmiR9kNGW8HfvIojKMO84ie2mHRMcuSP+Vk6XStjg3aK9OlLluU4YehjOgl76zNk7CpU+KhXLIJozryZMJQxjf9wCupDhN/NtQvZBzZMeVh8gOFcfSLjum35Gn2lzGQzgvQ6z/pgBne9EPcUDrpwDfLMw7a6M0P8um4AL3+g3/KsGn2Dx/Ymg5YM3bKc0zAVc5u5/jDoKN2/PBnmY3TL9f6hZ346JxUn8268/rlI3Ammy8f088U0UQyuVbJRGsRuiVjoprYq4R/B9siskoWsVVsmDsx2fWTHau23HNhs5iWAKzGcZXPQu/pCj9f2gdjdid+L61/NQbvAt+u7+Jq7DcXm7/Nh8744q2OLgcZba61hSEeyvHjQbWbo0h72JU7h5dfU8eUS0dydCQDO53OR12zfWLCitTPNtfpIH/EIDf5lfGLc6TcoS5+1+qnneGrR3jNi8rxqq/duXaxcISjTVkfJKPONZl41YURnzOc+i85deTiV4/wJzMxtDW3p0y+HM/4kXpHdoop3InhOl3xxp8t8fNj2p3cR9rOv4+KwPrd/VEWnXrOCJwROCNwRuBFIuC1qFebXlf6IOIDA+qDQzd8bV4Pe4XpyZAbtVeeXv8ifJ4Q+kAogfD0Cb8ybDdzr30RnRE9sOCTJ+N1PX43fWXYMCUFsLzmzC7t2hyo17I9rfS6GW96YGqToNCh3uthfvjAhJed7NeOlKvnj1fknuh5ykovDGU4qDiKK35tMKadePmpjh6xxC8WDn7xla3Iq1+krgSRXgdbHWHgY4PX4vx0kKGTH/Q5w6xtlu3t9MFU7OCwP0zx69DGzlevtyF4uqiebGOCDPvx6XNnOp3Vs4M/fCAXsVMs8CUr1pFY+mkosWMnftspsosumOqRMaFNjPpQrMwGfos3Xj/TxCY2qj/psRE4k83Hxvsh2kyoe5EF4F5kYVwlC8hJn4yAxfbzSLt9ec/x/XmM33M2259n75oEyg26vXFuuBKB9rW5+Zrb9ghKXCQBkpn2dGqXiNoXJxntZm1vXnsAzV/JQfv13OAlDnTgl9xobx/an5sqAABAAElEQVSihADZs1lSJtG0zzAdznS27rBN//dbifiNe37RIfmzJ5BOfBIOfvNDWTvf7EtsvbEnEJ59mogO+wHbwynhkpD1s19iJ8Epdtrsi0wnDDJ0wOKnBC1+dorD1ME2iZL9j671DQx7T/Hzg71h8EGZ3/iRWM89murgtbeRTvboLzLGhAS2PnYtkUsHvWzPD3GWNMYPX0JNh32a+OGKY7+1ip+t7bGlQ7zoyC+JZjph4lcWD3jiYAwoI7Gmr72o4oCP7/GLl3FGBxJ/W0rwsg3fSY+NwJlsPjbed9fmxr0zkVogVgzr5rDCiwf/qi14LQSrxM8d/h1eN6Rubqv2rPop3rvYqzbAdjO5B/XUYNXPXRtWcfm4Ow53bfki8Rv33aRdSziQcTLb1BmX2p3FWKyRuuYnufD0Gd7K2hxTR+OdLkkGmfj7kKFMDmnPzvo53NqzUxnvtCF5Mtqay9lEBtFJDuFzZFd4lfFMnWHXzs78ci4RTIYNtcNCR52Vs7P1LR0wpo3pjD9MtlWHP1+0F8fZjqey9mmn/poY+nLyw0TqshOG68r8mDYddTwVm2QaI/RkJxvTk/5pl+tpU+NOLMg5n/T4CKxv7nu8bafGB0TAxN0hk3iHdvFXsXftWMXFt2vzLv+uLav4LeSr+HBXF95VvlXdR75VH8nt8B71fFnL3YDz/1YM4zemouOcU17BiadzeM7HOuX0zOtksqsynmsYtV8bt+HHcw1jyq3wT57m4aw72qjtWDfLM+7ZeTxPfG1HzIl3lK08MfDPsoRx1s3rKf+cnmIRv/PUMeu7hhcmXn2x0x9THmY2hJme8/zYCJxPNh8b7xfR5rXQ9773vU9MQJ90ffL0qdqnRTyoetdNWHx9MvZqy6sTE7J6vCZ5kzMM2HCd0fzUGXb1ZGF75eQT6cTW1oITtidncL1mCeNy8frPNWyvZ9qH8xR29XSwmwzd6YQ//cwffF7d2KeEqnedLWGrYwdfYd3Cxge3T+lhz5jArF7f9FRj6px2p7MnEfY3TYxr2LD46CdajnbnI4yw9Y9rr96mHRO7emcxJDMxXF/D1u8OcUT5fg1buxjiZTdd+laMTvrdCJh/XiGKkfHh9SLqaY82/Sp++la78Smu6ubvbGrDK+761qtk47PXsvqkMZIl+vXV6z1/zmww5nrqpX/to9Of1p/WIK9mESz85Bo3bET9jA8/8OFxZpdrYwg+m/1kEGx6+WWN4Zd2RL9X72JVHPjmNS05ePTM8alO7Ojjm1fYdOFHyu+///6bsrYZa7q8CuYfO/jDfvV8bVz7P+R8oQNPsavMDvzqvXrvNyTJw4LJF0Re3/mpIOsPfv7aRoBc08VO8nwWF/Xt2SQTPxn6s8WZLry9quY3HrqjYoG/uNKH+NIeY7F04FHHF3xiK3bt82xMGIv8og9fdrJf38EWazamL5vO8/0jcK7Q94/xi2swofqdMhMQWUSQhdPka19N9dpMsCZZ9fY82Ztkb5SJ2AKM/4htoZHI+L0yFIbrp7AtPP2P4bAnbzphW5DsUaoOLjraoc5NCrb9YbfssKiJSXt2smNiT51PYU/+qdPNsd8KnPX5ObFb6MV81j+F7WZjX5abyTVsctVbhOlcwRZTN9z2Y4UBDx1jbly5SdifhSZ/vPnjhiUm18Yg2fjDgOsG0L+rrB7vMYZkjUH7s9yI6HQz6iZM5qSPIyBhcuM3NsSovXT6U9yUxVhc1dlbZ33Rh27Q7Y3EIzGSWMLRjl/ZmJj91N5HPD50mKPwJXmSs/Z0qrOfkA6JgP6UMGhX1o6fjvpaImF80KkOPj48bDDX+VqyY42wrtBBDg+7tDfO6DBnJC+wjEftbMPDbusjHchaZdzhgSWO5NKBR6zyS9n4xo+PDXTWN8ow+cMvOvkhBmKhnd94lBvz6vr9Srza+aF/0oEfbuUw6XANg53Idb4rS9LEV7sxoTx14uGnOLXHVrv+b52gQ1t+8EsMlJ3ZXBke3+DVv2xnE34280PM+YkPFX+xwAOTnsYEfjrEH75+dj7psRE4k83HxvtFtJlQbY4+AloQLAw++d0iE9diAKtPic/JWCBN/hVsOHjhrvBbDCySK7yw2b2KLV5hrywyeN2kVm3hp4WP3C3SN2+DTe4WWXT10Yrd+MRw1W7jigz+WzHcHSduBm5IK3bPcSLuiB8nXY9AH8jcfI3PEgtzwuEmHkmIuskbS8acGzY5a0XJjL5CPqhqD6MEqQRIoqJv3eSR/lJX2Zjy9I3O5g6dkhVzW1/jh1+7MhwfNhAMektujD22s4t/bBWDbMIvecTfuJHgGnslyZJV8hIaxA44xY4cPfktGRKbkhky7FUmJwZ0xq9dIk9ndfzie3bCFPP8Il/CSl5Sx+5sUqedzdZzNovtXGvIsCsZdqHKPjzQmU18LCEmJ85HnewUt+YundMv8Xakg5/saAyIzyyzR9+zwZmN+dUaKBb8rH+yOx3WJ31U7NhNb2OiJJWukx4XgXPP5uNi/RBNFosd2uW3gK9Si9kKPzt2sW8lPSt6H82zG+8d+9wcdmjHlh3eHRvw7owT/Nf6/Z720fmukCSiJHvFJjdqVFKWjJirm+TGP2MrgYrE1/iacZbIzDmr7VguaYKjjY6ILgnEUefUwdfZLumZ/rPp1vhhZwRb8jFJsjMx6Jikbc4tcSMT8atESB1e/RTRKQGexIeSXfXHMvypkw7JVyQmM5bq6UgvfvjHWE6d/JqxOPoJ8xiL6fdRp7I4TB3smeVknBE/jjr4xf7IGJpjFf9sdz0xrvnBjmIT7nl+bAQ+udo8Vvep7Q4RMKHm4ryiYpV/d7LCXcW2KK7y8smCssM/F6dbMbGwHRfIWzI7tuxi39JduxjOG3H1L3EWE9g7fu7oXcXl4+443LHj88C747/kwG8WelqnDyVeYuhJjydE5oXYu1kr26NnbuGVbJasiotXpgivQzus9jLS4UmYBCYdnjrZUoFfMiRxUK4f6bS1hB2SK+1sKLHSjr85Aw+WGOD3JI29jU31nr7xyUEPe2y94JODH3SESYd2MYGjjE8ZnrIzG/OLjn4LUh0e22/YgsTG1h14YeGHoU7M+Dpjp2/oSSdf4+cDHX5+il/00MEP/HSIv7Ini2yCjY+/ZIwFeCWy+PUJGfzsEU9xwc9O7foHjgNm/Hhg0y0eEk3tyo0NNsMhi+h0iIV+zK/GRHYXO+3pNCbo1C/wySsXJ/jGhHZ282P2WeOIrSc9PgJnsvn4mL9TGk3ukz5dBCx4J50ReEQE3DwlF6tjzj5lrw0lEmR7AufsCZLkEGlz81YH203bzbqnZ9aJ+NVLIOIvMaQDbjpKPJ3hIzLp5IekQB3MzvQ46IQlCQuTDFLGL+lQ19NLiY56PquHwVZ4ZCQ9kh3XdCK24YeBF2b82slIerLB2dHrWDqVswF/Zdj5Fr/4aqej2InD1Cn+cEqwkul1NZ144KBrseKLWMNlBx446ZF0ilEYMOkrdtmNn5x2mPHTqy0ZPGKvvT4mk+348UpA6VDv4Hv8eMQfBl0OmNrTm/3FWxzSgVdfKdcOk2xJOEyxOOmxETiTzcfG++7aTLId2uHHe69JCtviukoWjG48KzI7vBbZHVvo34nLLvaKf3i6oazy7/DBdnPqhrUje4t3ZwzewjrbPxkB88ReNuPfTbl9bGLuxtweQVK+SGMvnfGPV9neucaVJ0jk3eyRJ16Sh/bKlYykAw7ZdEjy+rIOefPAUyg62YnsqyMPl82eQpFnK5KI4E0HHjiV2Y1HmW4JsKdotbOxdvah/G7PJpskQ+0JFCtyYcClM7/NCwmU9say2MATK7yezsVPJ/4ZO2U+pkOi5KlhMmIPszKd7IwfJn5liZl56iklfnrQsX/Ejp4wJGR8S4d23243BsRcbPkRP0x26b+SYDphhiEekr9k+Dhjx29+xA+Tn2IPJz/Il2zSKbb1T0lzOvSrfq8smS3W/GNr/UTfSY+JwMcbSx6j79Ry5wiYTBaJHVpNlEzQHWy27GCv8vIN9r1odyHasXsXe8dHNwQL+T2oG/M9sHfHyT1jeA//3kXMazE0dhrL5vlxjh1l4p3+HdeH52TI4584R/6J/bbXEx/GUcfRzyP/LZlr/EdbjzqPfh8x8E8Z/MfYHmWOdk55bbN/s+/oe/Wd6Zh6j5jxdcY/eeZ1PLPumg/xOdM9+dWRmXLTPu0nvZsROJ9svpv98oWwai4IXwiH3nEnzni/4x30GZgnwfD0yNMfT6Y8/ULqlJ3xODyB8iTREyVtyp5GImNL2VNBZ0/JnD3p8rRK0tKr+nT0FBFP12To6IORp06VfaCRONDBXjpr7+mcsjY6JCE91Upndnv6RV47ndrphI+HzhIt7WyHp8118mzSDoc80q5O7PilzUFHT9/Y6YkdGXbgw0+/WOOnXx3Cry0/lLO7drbFP3VqL550akP5QR9Z9XD5pM9cq0tnmHSQKVYwjQk+wImfDmX9Na89zTVu6NH3sJLhU7Ejy0Z68wsOu+jU1rjTXtKpnv3wEfl0NGZm7LTBDMMZ30mPjcCZbD423nfXZoFoEV1RZgI3iW/xm6BN8Fu82tlyL2wL3yo2W3Z4LU47/PBXSQzvhW3x3un7VZvxiQnse9gOe5XOm8RqpD7ikzR5temmb3y4SSNlN+ASKP1qvuKXPOgTPCUB4i6BwEfGWZ2busQtTIlGY6QkQgKmjj4yEgnkmh76kpGUeM3JTu0laRIMRB8qYWDTXPPwwyu5gc/e+PGSgd9cYQ8e9rIjm8QLwXPd2geLjNfV+LWRKVZk+CqWZOgUo7YfkGEnn/QN4hd/w2ALvenEj+KnD25+aaMDf3rqmxl/PifDB3bGzx468bOlPmlMFLv2nqaTbcWOXH1F3hhybpzhY6fkVX1+6690OtNJhk52+rDR2KWPD/UPH6ZfZLXVv/DopSOdbD/psRE4k83Hxvvu2kysHdrh3+Flg4m9SrB3+C1CO/w7vGxpoVq1fwd/F3vVBnz3whbvbnw79qzy7sRvdxyu2vBF5LOvzQ/3+7a1G7t/EIB8y9xNWVvkJu6H9fWzG7jEJn79T/43v/nNJVEgo2y/ngNJBiQulUvi0iHxgFNZwqQv//u///tNMuKbzv5BgkQOL6KzZEW76/aBupZYZKdrY4kf5kJJ22xnd37CZye8fl+SnD2B7eG0p1M82InEbvqhzbenYTaOJVS+nCUe4iqJy28Y+CRt6RRz8ev3QyVTkqPsJs/uMOhEtbvmR18IU8b/P//zP2/2U7JbvNLpd1LpCYM8XyvDEL9iBW/ya2eH2Nlri8RF3BoD4sLX+osOfZQf/MIzdWrX52JnjIhDY4IOY9m4Lunlh3HEd8QHuBOTH40zttVPF4Hzz0MicCabDwnzyyoxoU36a+RTZYvCtfZjHV4T04J4i2BbCJ7SfZSHbZKvJCm7drODTJ92j7pnmR0WRTfXFcK/ig0v7BU/i8cKL2x+sptNtwi2m8lK/+hvB2wyt0g8nht3Ux4ue1fsIAdbDFf42QCb3cWQ32cCOnvgk9durPPQqiyWx5vu5BNTN3vjY9YnIymrPsx5dk1HdcldO8+6MI91F6Df/jm2zfJRHz9mu+uOMI/lMJyTD4Pf+T75wjD+Xcczr/GjxmuYH9V+/AEdBqr92jn8ZCvHW/0su658tKG22q09eKb/8UzsWTd58bCpOmW82Vl5nl2jMCe/69rm2Rg7YiaPr7WzunC0nfS4CNzOMB5ny6lpMQIml0+IqMXcZENuvJJHn6xR9a6PC4eym3yvlZqMeNERW1IA/xp2vOTSabHqk+zEzg681T9n9zVsN8GelEydE3vakd3pI4PCnvXsDjuMj7g/5p/1FjMxkfzM+myZ2OygsxuStihbJka2qJv1YZOtXl+yRdvUieeIrVz/rGDDZTvep7Crh82Wa+Pkmi14d8ds8aYzn2Gf9MkIiK05aLw5PCVC5nJzyHjpurUAryTTPEB49GsffFzDNR6Me/1gfNDXOHCNYMAn6wMFHeTUKdeXcOg0FsjSSRZ/eyHxw8cHwxiGAwM/u42HPriwiZ38ho8Xn7pJ+LKTPjqQMx3sKXZ4EX5xSAc5OhAZZXZG4dPPPrK1K7v24ZlOfrAVxtQBA7Env/CLBRI7/iN2ZevsL/rpwqe+2PWBkg489Lt2sItNdBUHOrJt9ieeOSbEgj712cN2+HS6zi+Yrtmkz+HCwtc8r2/ZiIwrdngSil9sYOeXNjbg0w4r2QvA+echETiTzYeE+WWVmLi90jkim7gm13yFcOSpbMJZQLxqaQN+bdfOFj78K9jkTXivVHptcw2zOguIhWAV24LiVcr8yYywjme8aL7mOvLMsoXJK5pe/cy2a9cWUP2x8pTVgmtR7Gc5ruHNOgum10PdbGfb8dpNQJ+uYPMRv9dVK3YbV/w0Vm4RbDe91b50cxGXFX5j2xjUl+YBYpexc9LvRsC88upZjLrh4nLtJu6VpHmq3H5A++nE2bzxI+LFFk8Jhxu/17LOsPWfmzke6wTSP9348eDV5rUnopdOmHQY4/i8VsWL8GsrifOK1Bg3vozb+PjJ5nzBwyZ82vygd3OInfREeJAxDo9NZKxd9KrjRwkRPfxsa4L2xnBjEhadyuwnP2PNL2uuemQusr2EiAxcduIRI5gwkDbx5ydeseBHP7iunk0zdviV1evj+qRY0E/O2UGH9Ycf+LWxTzliF776mh9iJ6Gjy9lRfNRlJ73iiB9+VCxg5pefQ6Irv2DARMYEe8UJjrM+gutMTl2v2/UvnJMeG4Ez2XxsvK9qsyjukEnq98/ccB9NJu8q7U7oe2GzY8eWHV6x2OHf4V2Nc3wtrJVvnXfiDcuNgf274/WWHbsx2eW/pf/z1K7P3ITdXFdIn/30pz+9JHCu+5AqiXDDrgzrm9/85ld+/vOfX/AlEF//+te/8h//8R+XpEHM/9//+3+XDxs+LKEPPvjgUu4Dn5s52ypLTOhpnZJgwWAPkgRIJn71q19dzuq+853vfOXDDz+8JGJ8fe+9977y61//+k07eQmgD0lIYjr9cm1tJFOyo+5HP/rRhZ9OGPYMlsB+7Wtfu+yV7HcbX716dfnAVllyIt7tp5QMSXB+9rOfXTCtx/570C9/+cs3c0P8/vM///PNvkO/9ak9okMyW6z6jzr5pW8kl+1DFEv9Uezo1A90RF/96lcv/P3OJr/EvgcJ/NE/fYhub2P7J4/9xedvf/vbX/nxj398kRNHHz7ym16x9DCh39n8xje+cdmvmY4+TPQhVYIo6S0WEkIJ9PRDvxsDJbj8Nkb6sCDZnf+7vuQ3P4w5yaV9nogfxtEvfvGLy5iAZ2yszqELyPnnU0dgPXP41KpOgKciYNBbBE2AFTKBLcrXCNZOMoB3ld8NZ9VGtuHfwW7xv+bXsW4nXmRX7cBrsdvxcwd/N4awV0lM3EzuQWHvxHHVjp14i5/jSDtj5yj7eSvv3CT7oob+c0Qw3JAnSfzqXzH2RCoZZQnUjP3khzPblMnSUT3sOT6V9Vs6yUii4lfGP9vxz7l59IvMkeZTM9iSpklsNAajaaO61ufa8U6Mo19smn1Ep9hNOvrBp+kX/qmDbEl+OMcxf4wdu+o/MvCnDPyp4+gXWX1cbPhxHDPH2OGffkz9bDhiHGOHZ44ruuc41H6Mnf6afSb2M95sgJMfME56fAQ+Xn0er/vU+JYRMGFfinYm4EvqPdq/i73LP29YR93HMuwd/qP8rfI9sW/pftv2e8dktz/f1o/Pu5wb+U5fuHFLCNyAJRZuwsafG7C6kofGpHY6ukGLF7lu1snjd6gPgwxZ/GxMLhm8ZOKvHF8ycMig+Eve8MTXGU46YJVsZB8c7fjzW7kEBb96diWTDWS0w3WgMOJXjy+b8YSjDf/E147gFgvyKCw+udZef2iPHx4d8ZNPRh1SF0b2FBtt+RE/+7OTPBlHdh758RT7YqF8xCh+dNKRTflFh3rtKNu0w3NkN17tYeDXrl5dbZN/yqhn30mPj8AZ9cfH/Hc0+qRm4TNpVsiePK82rpGJtUO7/DvYu7wtNityFqId/h1eMVnti2zdwd/FTsdnfX6X7XYTOel3I+A1pdeMXl+6yUo+kbLXpsh4V6/OvHLTFk9lrzi1G9+9TrZWxQ/Ta0vt+O117gkb3eq0eQUKV51Xr8aSek+tWoO0s4lOTyPVe/WOh13KJV8lLXSHZR1ltzrnZMjDhM9er8E9JewpHxuRer6xER/dzuTZGuGnQ1xbt9lNp6NY2FbAhmLkVTl+emHQQyci335DGMr0IjIwyMCIvGrnF//TgddrdNQeVH1Fp5iJIWyxqL0npvTxOYLFRvtA4dMz943iY78+cdbH+OnBV//Srw4VO2NAfWMCNr/jYW82t/3CdgDxpEMdef4Yb85sdNANF+Fnh/6q7Hr256Xh/HP3CJzJ5t1DfFvB7sA36exJukYml4m7Q6v6YbcgrOBbAO6FbSFcxWbrDq9Fbod/JRbx7MQkmdVzN/RV/h0+8S6J4MNL0k686X5p/S/pyyOwjM3VGNinZ69aX+Zpj6abtWSlPYLs1r/2+OmPkov2wdFp/tu32N45SYYPvn0hTXKlrVf3khdJSDolAWTar0eHPYBsML4QGTolXtYxSYMvjkkskP2Y7Gsvoz2b1qTK+LXzQ4z4JEnODzrtr4TJHyQR4pc9lIhNfGjPpgQJTns2JSsSNHFF2iR99hXWL/y0ZxBfa+aHr/chRpJGiXl7NiWufMwPcaC3vY76StmeWkSnhG1+qY5u8u3R5Jc4lEz6ko3YpFNc4IYhCWVT/UUPndrJFdv4tYuhOLVnk99ilw7jTMwrSxTZVyzo1M+VYdo7zI/sNvb0X+POGNBX9Y/Yi3F26R++FzuYynTwA379pO2kx0TgTDYfE+cvpZZzQj++2++ZJD/em1PjtQjszquSKueuYZRApsNNXz0eba4lCm7yyrOdjLb4lcnhSYd215XxzvZZP68nZri1k5cwVHaefihPO2GF0Vnd1NF1mPFVlsi4rtx1ZfL55TqKr1jGX3t6lY88eMOs3TmM4zmeMNns0Acln/Ak9ckWt8pkk4cncSQTn7autaPKE6M67fQXP+UofuXJX9kZD9muk2HTtPNYxjcx+aHcuCF70uMjsPcI7PH2nRrfIgJNyrcQvSmyg90icBP0twy72Ku4u3wWps8jWdg/j2ScrJK++bz2z6qP9+DbmVtTf08c1b0txsQ7r+8bgZlIuZ799zaaj3izvIJ31E/+FsatdnpXeKZ9u/xT9rx+mQh8Pu9OL+P7FxKlT4KrzpmEqxNxN3lctQEf7J2bWU9NVnXsYIuhT8E7tBrDPmHvYK/yiuFxcV+VvcXnFVp7pG7x7raLyU7/7OJ/mfm9Pv/TP/3TN0+pvGI0Vr0+9UrTq1Wx99raa+7333//8irbWJp728jgtX/P3MDvFaunRl4J4/dq12tYr7ZR7V5zerpmDOH5/ve//+aJmbnmFSd8Zzrw4M9Or+Jdo8YK2+j2GhZGvyHJDq9u/awPMh/g+gkf/NYNfrKN3w4+0esJrgOf2NDFZvL48otO8myALx5ee3/3u9+98NNLBxl2s489XlvjN4/En81e2SN66OYrH+goHuqr05cRXH4VQ7Jsas+ma8fxiR5f2esgy1bEBvz1Mb3sNCbEhA142RXBMhb4pM/YTcarbvwwtfEdiZt2tpLTH+z4kz/5kzcfIsn42SbxMxbyC3519LpGran6DBYZusU8Hn1nXOgP2w/InPTYCJzJ5mPj/SLaTJSeYpVcVDbJJlWvzsRzkLfIoMnvurIFqgUeL5naLoKv/0zs7NBW/ZzQU2d24E3nETudeK5hqw9/YrOZ7Sjs/9/enYRYl6R1A0/XbkRFnCtrrrKqWwUHmhZ1oSiIqKDgQlARFQdEcSkI4kIUXYvoQly5EREEBTeKiIsWHGirB7trcGptUFscUDffl7/z1v+t540+ee+JzHtvTk/AzXMi4hn/MT0nTtybVZbymr9MNjqp0lbZ8fER1Tt/a3kwjB2oqp9VtrrYUmUoT6rlwbD6HjrXqlM+sqPTtaYq+zI/Y/uoc/QzOiJ/zMeW6CQ3bYkn5e4jOzpHWvlKj6fTOwg4K/faa68tgY1FOGe9Lf4CA2f6JG0uQHB+0r2Awtk25yv1NTgrz1m60Ds7l7OOFnTn7PJPHAQWAgVn6cigT5DgbKOkX8iTqV4bCxb8jqNARN45UD6kzwgg9AnnRNmknhznDMkQqAiW+CHPD8Gw85Xk6SvOR7759vk9dgik0McPNrkX3Eh8IAeNxAaBYn4bkk54OiMIFwl2sBaw0anceUtXHzpgVXWijV8CMoFf/IILv4IdnWzQfvzyERTCWsBPh0DW713GjwSefqMSdvi1Sc7Qai+Bas4+8gN2dMCczvPz88fnRtULJMnjB536kPObOU8pwJNyjlewyg9trH34Bc96TlQwqE+QzU5Yaj940aGf8SlBNX7JmVr02ktfTx9Qhi+/vcon+U6nRaCDzdPifRBtWQgM1gwaE657dQawiUEy0ExEkgkjKQPQZOCJ0GSOTrlUZacssl966aWFhs6kKls5fpMX+SaJXbLVmZDZ7SPtks1PctGatCu9Orql6GS/STWy5dVJo92RDRMLWWQsxIU+5XSZxC1Y7iO72oE3GLLD5JjFNOV48UiR7d7E6YeS2RnZyit9ymNDdmCCYbUlsl1hSDZZKb9MtrYnj69SdK7JVk92+klolVe76fQhm+1j+1TZeMmRLFgWk9jtPr4uBP3nMQIwtDAb3xZvY1GSh18CEWX6mHrXtFP4YO9ev/UJPZmRIViqOrQL/ehdtXPVqc3k8ZEdmfJ46Ax9ra860Jo7YgN6tPLuJdfYbF5UHz+rzshQHxnqzWNSsIu9oScfZvL8pEMeXfRUeWShq9i5D/7qYVd5gtWoMzbhQS8fX8mrOsxpFTv0VacxWHVqL3aSGfv4WnUmH7vw8zt5OqXwuFYd/GJD6NHKB7v4TX/1y3142BA78Jtj8aWeH/Ez9qHrdFoEOtg8Ld4H0WYgeqo2yVqsJYNRMrgFYPn2ZcrRoZdMIAadMt/M9GRqEjAgDVrJYM3ijhaPSdcrsVE2+gS3ka2MbAPeky655Evkki9FpwnCk3aecGM3msh2n3K7EyYcuyhVZ/UzOk2iArDsPMQf8tYwJJvdcJGis8quOs8vnvY9ifMl/uBbwzDf2M23NyO72lF1ZreCzfFHfcUkOgWCsM1uSfysdkQ2fWTYxcBf/amyo1Pba6N8qzQ6a1tW2XZV0k9S7lplR6ddHO2Tto/OinfK6LN7YheDDT5ZTMi/7wkmM0k7a/9gnXEHT30veTK1TfJwNgbQKZNHX9tbQGR3qfLUeraaV5RJbDEWQ+9a7UODHl90sgkN+yX51MuzLzbK40t9rh5iojN+JI/HfCqlTH9yn/yogy0VO/aFRx364EDGmk7l8Z1u/LFX3tjVt2ODa8UOb83jqdjJ01tl4pEik/zqhzp6U88PbRwZa37gl8LDj9qP6CAj9aOMNT+CJR4ffsE1MsivOsis+bRB6ON39WMxuv+cFIEONk8K92GUGUwmyEySVWomKa9SxmTQ1mTwmVAsKj770i7Za7aYaOhcs2XUZYJBv0a7Jpvdgs01+tFPkxF6tLCraU02P5VvkU0Wu+GXibfKH+/Rohtlr9mBN+0z1o95tOSaWEfZ6sYEh8vsvkz2mt2jXPnIXrNjTbZF8zLZa23JbkGOdnpoSfvC0OK6JTn75rWhBd8Y8zCqfdxLFmTjQ96rYHnjSpkgzc53xox2ol/e1QMCGg8hyuw448trTe3kQYJMvD526vMaE60HY77o5/oAmvyUjfnJA5Rr2hp9dMGBfvWu5LErvvFPObv4kb7nwQkNPrJgEl1sYT+a9LHYbrdeig4PpejJSh2fJTLPLx5C+eUDB/R44cEvOMNO8qAt4SODPeTmgw8PGRKb8MQH2LEZBj4Serq1qzLYJ29cwYYcfSNtiq72CTKevvhXj7Cji73+3WNS+OlgK5v4kD7Bb/LZJgULfSC+0VHHORlsgAO9ZNm4UMYGWCvDJ4WeP+jJRUt38KDf6/nQk9PptAh0sHlavE+izYA+VpqRbaCbxLamGdkmk2Mldt/FZOGbmURnaOEBFzwzbboFx5m2pH/W7i023BUaC/BM/7QD7OyaBdoinN+KtPgKFOxs6zdpA+faBFkCBPVvvv3bkDAX6OUsHVn47HR7Y2Ds5osl2VnHL9CLTkGIlDOCAigynAkUTAqYBAh0yNNJrt+rjEx9zydvKchnS3bcyRN85GwjnWj4IRARkMCQTZlv7JSTl4CKXmcd6WSTQAoe+T1R2EUmHxPk2JnPQ7t6O/v4tZc3GmwgR6JLgKVt1MNfWbBCB4vopAdN3kSoZ2f8xKsefwI3bxf4xQ/8glspMvUJtsNbcg8vOtBL9Mh7cEwQV99YeOBwHtObGrR8kYefNlSvnXNmEw08yWSvoBEdHGK3Mjr4JKHjBywl/Yw8/oQHFmRIdPAlOpUJbnNmU/mh5zA6Ou1GoIPN3fjcuVoDczZtHXgzi9ysDWRvtYNsfmax2KJrhpYtFqSZtNV2k+Ks7K12kG3iPkayiJvst/o5a8NM+8zKvk/0cLJ4b20HgYVF2S6Q/pGAw4KuTSXt6mNxzwJPvkVbnk5jwocM+Sz0+Grb6dvRkQBJQECeYCXBAb3KyEeffosnMuhDnwAODzo6o8M8gC55vMGGXWgFz6mnj9/kZhyyK7rooC965NWRGRmw0wZS/IkfytBLytQnqFYWGeTTQy470ClLfQK75MkIDTkVO3kJTZXhPgkvPRU7fQJ+0QEX+fiaABVPEh2hV4Yn/ir3QV91p7+g5xcZaHyin31JwU2ZenZUGfiCGR50tW8L0qud+PkkueLvdHoEOtg8Pea3SqNB2qkRuGkEuh8etwUssgkKoikLcPIW8JRZ3BNkpX5sIwEFnl0JT5VZgxB8Y15wkYRvlM8un6QqP2XRl/woY/RjxKXKj4zKQ361E03lUe9Tyyo/+op18hUL/JWHrOqH+kpPxugHmprIqDapqzRVn7oEdZVn9Lvy4xl1sHHkqXn81S8yap48dtUy91Wv+2oj+prv4BKqN5862Lz5NjioBXVQbhFcB+U++jrA99HO1pM9Tpa7ZJjEZuhnaGFSJ8RddqRunKhTvnadlb0mY63s2O1jt4Cfx9Sz5leXXR0Br0W9QvTKVPvZNZK8CrYDlPFvPKF1XjLtnDx67e7MnysZ5hky0NohI8erY7t1dkQl8tWhJd+uFh72SMakvP7kQ5ZdQ+fzsnvGbjtTCRjUk5cdsuzOxQ8y2CmRyV6vVHPmL/byMzxkytOFh0127OTxw6GOWeU+/GCLOjTOU2ae4btX53SoZyd6eR/89MJMohOu2dFUFxxhx56KHZlo+EWnD1leMWcnmA50wYNs/mXnDz1syZDghCe48C1+ZAdTfejxkE0u/9jJRjrJpouNaS/06oPFml9oYOnIBj56yaLTDmbaB036Mhu1E73aVx0+tElkaB++eY2PfkzKKs9Y3/nrIdDB5vXwu5XcmfC2GGeArQ28NV4D0YDemgzsGdkzdmdC3GrLDN0xZR9zMrMgm/iPkSwMW9tyVr9FZats+B0Tw1nbbzs9bAVuCWISxFmUYS4PT3TGtgXdIu6+vn5GK4jx0c/0B+PV1Xk+9YIVddFBhjr50OMhA717gQGdxpw8enk8aCR2sE8SgKFVT75gyTU6+cV+eX6pUxZ6+fhFDhr6UkaPgIgfytnEjshgAyx9yESvjh9koJfIJsNHPZ/RK8cj+HFVJuGPX/GbbfjQSWSHPjrlg2V0hAbmbGIDWQKw6MAvX22gI36hRwsvOJDh3tnMyEdPZ/TSJ+Gjl114Rru1cfULnXz8Rk+fdnRN27CDXWkfdsgLNuMXfT5siZ18lacDPbmuY1orG2k6f3UEOti8OnbN2Qg0Ao3ArUbAAuvLFZJFN18OsTj7pE693SRfnrAwC+LsQOVLMgIBu1S+iGPRl+w2qc+Xc9AIXqKDHPnocG9XKV+CYY/Awc+XCSoku4HksVvQYSfNl01Sn4A2OvAILpIXQAk+8gUg9L6FnHo6BVT8ZI/EJnm+SAJB9/lhcvVVB9zYFr8EwPxgdwIWfvALVnhhF3o6+CVw45vEZrSxU4Bl1zBYCUZ92SYy6FQWejLI5Ade9vmilJ9vy8+swUagFR62aufkyWNrdMCJr3DAJz/qZDc/o8M3+emP3Wyu2OkT2iD15Pkkzw8y2K0P4NUP4cQGSfvwM+2THeD4oa9o9+T5CBs6+BNbF2H952QI3M2v3Z4MnrunyIRvQM2kTJBbeDJBb6E14W2VnYVqi1w0JqytstHP0M7YTfZM4ueMLTOyLQbHkh1MjiHfgrJVLvx8Os0hsGVOqG2Q+1zXtO2TucY7lsmPZWu6UraFdh/NbP/Z5+esPL6s2TiW7csHk8uu+KuMer+LJ3Xh38W3z/fIiMy16yij5td0j2Vjno5atq/91mzqssMj0Dubh8f0RiUKCmZSHZT7+GZlk7dVvglmK23snKGfoSV/ZoIie0b+jOz4uvU68zCwVSY6AaFdiWOlGfyOZcN9lGvHzVlBVw9o6Xt2k+wQGdPK9Bs7QM78KdPedpjsIEnK7JRldyy7n3bf7G4Zv3aPvCKlR6KTHnm7Unag3Ds7h55MO1A526jOLqKdMbtakno/TRS77RC6Zydb7HqR46OcDGVS+pS60KvnV3Zd0fBBOZ3K+UNW8GGDephI/KQjMsiHnZ3e0LDTrh4adsIOxuQqU4+HLokudBJ56tXRa6dOnYfJnHelB55pL3R08Ad+rvjV45dH74qWLO3DBvZI/Aye7GQvPdqHTfi0D5lJdNIT7KKD/PhBjvb2oRPedOoT9PukT5ArTy6a+OW+vjYnP+0cDNPG+hy86OeHpM3o4D/9bOl0WgQ62Dwt3gfRlkG8JswgNEGYrLYk9CaZTJK7eEwCdBvc+wZrJjWTj8lmX2KDCWKrbPayZ4uffPTJpLTPltBvkc3P2L3Fz8je4qeJNn7SsS+RvbV9yPWJPftk0x8/97U9u9HCDz676NVre3ZswZt/5MMveOsHndYRsNj6aAMfeKdNXLMYu8IzebSwlmpZ+F1Dr77KlscbvlqPJzLIrjLCpzw0tX6kD40r3nzQuVcenthXy91LxkFk5FpljThEbmTlGt5F6MWfyFBOf6Ub/UrAhya2khOZysOjHE3ykR0+tEljO1RbIsc1PNHnmvKU0Vflqa86Rxvlq5zwxl51ZPLdfWjjV/jRJymrH+XhDX1olSvTvqlz7XQzCHSweTO4X0urwePJb0wGl0XbU7KnwDpIR1p59J4CXTPZrdGFVuDoCZHuLbIFD2wVTOxL7PbU62l3i2wy0eHbR88GttjR2EcLC4EMHkHMFnqyPfHj3ZfgTW7s30ePDt5bJskEsAK9fXbTy45863MfPdrgsY9WfeyGyS569eTCZUvbsxttdmviRwIC+fucYLmlnwUDO41+QNv4Nn79QLpkQYe3uiRtpl6dcWW8OOcmD1/93A+X54sX6O18OrMn0UFmzsqZK/RbP9rOZu2mb0anMZZ/PZr5R96PjNud4yv6/Mg7HdkFzRk/tnn4yA+To2c7nXTrW+zID36nHj1eyQ4kv/Pvaflaz2waf2TmLGN0xg86+EIHP93bdcs5Q/bxPfR0KtM2wc6uqD4dv8zhZITH2IZ/8nTayYtNZPKTH+RK6MnLWVR+0hGd7tEEOzrZHx38MCeTqX1gx4+qU56fOT/JLvfZETcvwjNnU7ODGx38Up88u+lht76kzk4kG7PbzS4+5exlflkgdum3+mbaPH7oE9qObTNjiE2dro9AB5vXx/DkEgx8/w1hLZkcTNL1vzys0SlD52NgZyBfRqvcRGHwb5EdOSaFTG4pW7uatPi1VXYmnHw5YU1mykyAFikT2pZJBiYWu0yQkXPZ1eRoETZ570smxvpFgH30WeBNvPuSSZktmXR30VvsLE4m4C12a3ttlAV1l2w2WJwv66Mjrz67te21u/ZhNx7JwrIlGB/13sU8bPUF+G5Jee2q39d2lh8xIxO2kis98E5QBu86fhJkVTvMDzWRER6yBLxJdIx+5FUpmtTHJmX6beyRd0/uZYk9VSdb0m/CI1+xgHFNIw/aKoN97EpSr6zaPY5fOiqPfHAih1/Vz9EPskfsqg70Iy70VR3srDrkfZLQa+O0KZ21D6Eb+8ToFxtGO0Y76aiJX1Un+tGu1OMbdfBppK/y+/5mEHhnhNyM/tZ6BQRMGHXSGEXsq6/0od0lr9KbcLbS4ov8KuOy+xnZod1qyyz9jN0zfs7aMSN7lvZYtqRNcr2svWv5Vrwjs9LXhaXKvI/3FvcapOzz0cOBYNwCjs8Dg2SBl1enH1i8BWUebizu6pXbecLrXiCBxuKOHq8PGu2BDg0d8mTIo8GDTlnolZGXB03tSI8y8n3Q44/P7IMBHvR0kqM8NkYnG8hCE3q0sUW9FJ3kBgc2JpDCP2KHh12hDw7pi2xgkyuaEWt+kY9PkmfXiB078LuyI/T8Cnb88MGvjG14yIye2Bs/BGTksY9OiexqZ/jpJhttbFwYLv6gJwdNcBSQyrOJjOjEwz4y6HJF5z5+oXEPO3xkosOXPB59NIFvfE4bR2f6RNoPXWyip9NpEehg87R4H12bScaAmklb6Q38TKZb5KM/lmwTz1bZbJ2hNbnN+LkFi0ozY0vl23dvMbCAHSPB2wJ1DNtn+6x+9VCTfql/bm0HC60dbwuw+xwlkYdjviyh71iM5S3kdCjLlzDgjcduuH6gP6C3452xkqAFb5LAgUy63UcH+7W7MjaRKXigM29n1Ass2JB+LS/RmaCGH17X0ssuMvHQwWYfr8LRo5VHn37EJrbTTYZ7vGTRo94nfqELrsrUsYufwSL1/FJGp3o+kUuH+9Djp1MeT+Tiib7I5L97PDliAx9lsPORYrdyvtJJPtnaGE7BBj09bKMTvbx6WKZPkEVnEh3BWZ0AT549rtGBXp7PwQK9ezR0JpEpnz6Bjk94ffgdjPAES+3rg58f6RPBMn0iQWj09fU0CHSweRqcT6YlE+hWhTP0M7Rb9Vc6k9HWxJYZ+hnaq8iekZ8FZquvt4Xurtp9W/A7ph2X9Vnn9xzxcIzEwp6jDQI8i7Q6Cb+PYywWcgu2M35vvvnmUm+Rf+qpp5YjGjmzaUF3/i1nNI2BekREYKosOgSmZDsCIQkCyHC8JcGks4s51kOnPmd3VhAhkUdGjoo4lkJOzvwJkMjAg1cgI1CJHwmg0JMjvfzyy4sPObNJh+M/ycOKz/FDEOOsc/KwEozxC68kIKMDHnxkR+jV0+3MYc42wh4GzkdK2oYePGQmQIoMOvHELzzwhV3ObMKFDzmzCUM60l76BDsiA06CvOggU59J+yToC7368/PzRV7ObAa76NCHlOVIkj5BTnTwC0bJk8k3WAY7NvFLXuIHv3JmUzvDQptL2ktAWo9kPffcc8u5T/6yLe20MPSfkyDw5AGbk6hsJcdE4JiD6DbJnrXFZLQ1kT1Dj3aWfqsts3QzdszINqFb/I+VjmX3sey9bXL3jQf41vYb8/irDPfoBUpJgpeaLNwjT613jz9tW2lDN5ahDT0a9SNNzY9+4Kn88uysafSDn5Vn1FlxI0e+lqE3PpL4XG1UXuXLj/WjzuAWurF+zJPJr6onvOqkkYcPFQu8Nc+GBHKPJDzyPfeuZFSdyqpedbVe3YgdnstS6CsPm6oOvGO+yvOAMdpR6/v+NAi8M5OcRl9rOTIC4+SwT51BWieDXfQZ+Ltoat2s7DrRVTlr957Q6wS0RlPLtvqIx+I0I7vq2XJ/LNme+E2sx0gwyWK2a2K/iu66UG/hP7T+LTrvKo2+Zpcsryzt+Eh2rPQVu1nBX/vagTNWBBry+HzIQU9WghB5dcrw4NU2ow71+o8dK8luFnk+0ZkxRzY5UurDr0w9XXS48kNZdFab+KWODvXkyaORpzMy6ZT3iYzYKU9PdPCD38FOfWygIzLR0K0u9PBhF7qUoXe/hh0blMdPOiM/fslHHj/SnmQG8xELvOp94hdettIRO9HRTY66+LkYcfGH79EJu/iaPqG++kWOsvgVucGaXDKU082v2KC9pfAH61EHf6pf4VHOFnWdTo9AB5unx/zoGjMotyiaoSVvht7AnknHlD1jxzFpZzGZseWYsmfsmKWdsXuGdtaO+0jvda5vpFtoLdoWcinBizLjzsfrygRdCRqeffbZZYGGu9e0yvOg53WlMr/cIAkwBDV5zS4IsLDTIbkXyCQvWHCOTqAhJVjx80fu2UQ+uXRKCbboRpOgJAEEnQma8LMXLbvSd8hzJCB52HgtzhY2edXr1zm8tkVDHpvRkUkH/PJD5HSQiS4yyXj66acf+8FH/zYzARK/vHoPduj5w1YyyKTDR6ITjZR6ef5L/KPDEQJYsZM/cJHHw0ZXvrkm0GOnhNaHbvx89iqf7rQ5DNCrJ4NONnrQTXtq/+hIW+hbUtoH/sFSmypPggHbyOcXGflBdmX80Dbwk4dldMvzge3BJu1Dvnqv9tMO0dnX4yPQwebxMT65BgNqa5qhNTkY/FtTJqQt9DO05KE/Vrqrsk2wFqxjJLKPlWYmfm1zzPY5lo83JdfZxtdee205Q2gRztk4QYTAIWcd2ffSSy+dfeQjH1kCCwHEM888c/bRj350WdRhLmj1e4c5O/dFX/RFy9nJnMcbfwNTMCQYiU7Bj6DhAx/4wAKHIEDg8ubFuVDzir776quvLjoFK/oFG956663HZzYFKQIbZxvRCxz0zfxWpMCEHc6mkslHvsBAnk7BbM5s4j0/P1/8cLaRn3T6SbX8ZBus0Dk3KPFD2euvv77k6RRIwi7zqeDpwx/+8BJ444XdG2+8sdD7Q6czh8FOXvDEDzIESvX8pICMXfyQ6CTzQx/60JL3x7lEWAtg6Uw+ZzYFonREJ+xgkz4gaPNJXp0+QQc+/YdOfiZpT+dOc37yhRdeWHDLmVo44Uv78MMDULCQZ1f1Q79Sr51hkT4g4NWG+oC2yZlaNkk5j6x94JMznPzAw2785LnCqNPpEDjeIazT+dCaCgIGUCa8Urzzdiu9iXgrLYUzQQHamUDJZG7C2JpmaC1yM/RsmMFlVvZWH6/S9ltlwyST/1aerXTa/liYbLXhodEdAu/Z+cAYuWxOmBn7u+YKAUlNdO4az6Ne9LC5Lj7k+Myk6N7KdxmWMzorLZ9H3bM6RvoxoFO/VcfYlmmTUceazOpX398OBHpn83a0w5QVBpcndCkD0ISapD75XNUZ5D7q81GfT8oiZ5QdWeO1ynaf+siTz32VXctMSvKX0Va57uMH+uhLeSazlFfZaOhJio/VltyPsvGEPrIjJ7S1fMQbrfoZP0Mb+dG3JpttoY8PoR/tziIQudVuPCO9vB2K2E9+0mjLiPc+2ZEZulzJX5OtHE34MhaUd3oSAW1hl0zb2eHxkVyV5VUjnAVeyuDpo047o3X1gJcy9IKByI9Mr1CjQ/ug90GPFo+8JK+c3LSlOvzpy+rl0UrKU8Ym9GyNzmp7+qydWPXoQ8tP9VJ01oep+Koeb/iSt3MWP9TxKzag4Q8dknq0oWe/VLFTFqzVkR8+deRpn8hgn3x04qVPPgF0+MJDLjloQk9PZOD3qfQwYQe+YBJ68tyj5z99FVP19FS/yAh26MmufuEhQ3nsjA5yan3sJCc6XJXj8ZGUsZ9eutjQ6fQIdLB5esyvrdFgOb947WIQZXC7lwwwr64MQCnlS+biz1juVRcek8U+WoPYeZno3kdPttdYzuBIoXdld/LqTHJoTQo+NY02q8t5JK+aqhx1I72Ji2yTO9pKP9Li9+rHxERHpV2TrSw2kFXp12R7TQUXPFv8ROtV1YjXmi3aHR2eascarXqvsLyC2iJbH8lCgbfKH/3kF+yefvssWKVds4VsfUs7SZU+slOujn8JVOTxJxhZBNzjP/xda6/LXPZK2StEbR2MYGocK9Om5Akq9B8/JaQd0BoHXjlHn9eu2skrVfQZrxknZHqdmnLylBnbgtAEMvocP3zI828X2cQW44LOnGUkI/2fj2Swx9UnfT24sJsMPpAZWn6hV85e8506SV45G/nF5vivL/OH/OCXMUxGAjvzBbvJQYsGXtHv1bF79PhgTw/dEv68qqZTvX7twya62aEtJTTq+OUedvTRnZ8+IoPP+GER+8nBW+vJZAM88bCVncrGPiGfxC9tFOzc00MOu/DTTx/b6OQz+R4C2I0nfpErn3+jy5Zgl3OgcIMvuVLsDSb4yZWnh146XeUzXy/M/edkCHSweTKoD6fIoHOmJRMbyQa7ZBCaDPJbdik30Ax4yYAzsSkz8Tv/YuAbvJk8DdZMTupMViYQE2rOYEU2mRYNCR16ySLBVgsQuZkc2O0jRacJxMK4Szb66BTIWJCc26k6TTAmH8lk6cM254Iim+8wkDIJuo9sEx8fcmYr5WsY4stvuEWfq7SGYQ7w53fpIht9MHSfcr587OL348isGGob8qVgaBJFn7NMaTc0o2y8Fp3Ijr41WmX6lYXCWbZ9dpCtHdIHd9lBNrkWSu1zWVtGJ7nax5mwlNEXzMm7z4mv+m/G8j5fLfbOwxlb+oDzj5IHQGf5klcG15xlND7R51wi3PV/bZS+cn7xwGuMZJwIGtmW31g0X+iTb16cyZQyxp0DlfRh4yF9UJmggE7zBn3mMm2d9hWEGLs5d0gnW3POMH3Bbyyik1cfG+T5yW/9RxKc4M+4McfBJmMUVvDO/CEIZ0/OGarTf+vvbPLNGUJ07vkSejr5LSiMTn4ax/ELVvTkHKKxqg3+5m/+BvtiT86mLgUXf+jhZwJ19M6Z5swmG+lIe+EnF49kjOOtfSLYwQp2/Aj9wnTxR3sHK9i6z++Hak8y4hcd8A0W9Asm4yeZ5nZY6kuSOU2fybrCbmtKgmp9QFvnnGi+YJT5hwxYsJsf5mvzTKfTItDB5mnxXtVmIBjIBoIJY18SIH7913/92e///u+vkpKTBSEEBtdYljqDeqwzKfmMyaAeadGslSk32Y51ynzW0kiLZq1M+ZrsNfv4DpMa9OCXMoE9yr3zd032ZRgqJ2fE6zIM12TTfJmf2icTbyzkj89aWpOzVnaZ3Wu00TNieJkda+1AxmWy1+jXysiI3elDxo575fc96VN5mNriawIkWNb+Ij/iRa5gQjIPwVRZ+h76yqPO3FVT+FOGXpkr2mq78prHw7/IcBXwJq9eYFfHWbVHvVRtEugIuJPQ870m8qqctTl45EnfI2fNDzYEQ/UjP7t8ktxXG/BXHjLqA8aYJ0f7KpfoHv2go8ocsZCvNtDnQ05kV7/pGXmMxerXmMdT24+f1S/1tV/Rzebapuqrb+6rzuoDeeTXemWdTo/AO7399Lpb49sIZHDUAbULHJN/XThG2sgby9fy42SxRpMyE9mMbP5spSe7ToTRedl1K1b4yc4kfJm8Wj4ju/JtuZ+xY4u8SpOgq5btup+xxWS9tS136Vyrm8H7srZkn7pj2bhm902U8W9mXNkhlPDV8SU/Bg4VP7SCggQG6MegbGwLND5J4U8Z+rGt5ZUnrelInStZlT5BUKWpfiqvgYn8OHfKx8Y1enWVh/yK3YgDGVWe+0qvXqp+rOEQ7B9Rf7IfKc8VfXxnb9ow9eyoOtFUv0Y/rTPoI3PND3XKk9DX/Og3+rEsvLnWPoJ+XO/oqH7gq3k8FbvwV7uiq6+nQ6CDzdNhfammDA6DbMuA8GrkD/7gD1bljRPrKlEprIO0FK/eztCuCthRSDYctibBxQz9DK12qJPwtRixBQAAMzRJREFUFpu2tFvkzMoO377rsdvHIjHj5z57Uz/b9uGr12P6XvXctXuvsf1Wph1CO0Ly2tCDiaty/d3Va1vlAlTziFeefoZGQmuHyC6hseQ+5/VyPs/raOMyZzD1c69JfejG47Vqdre1mVe76iS75l4fO36Th4e8hiWLXvQSW9HHfn7xg9188EHPJjL4kUDWsQ02Zb6VRy8oYQu/yMvxH3b7eIUPB3zyfkIHHxvIUJ6xDbsXX3xxyQcHtuWjnv2ucPDql2x6M1eRTS5d7tV5BSzBh52u+NiuHi07pLQLeXTADC0M0bMbPRsksuJbrnTwQ59QBstXXnlloScXP4zJc4+ePLrp1F+Up93SJnBQzi+07MonfqGFEb/IwsMG8uFCJh7YqVPGDjL5wl/leNkokal/ktPptAh0sHlavFe1GQySgXPqFN2n1tv6GoGKQPfDisbh7p3XcybSwmtx9/uU5hkLvEDA7x/C3uLrYcJrd1dBl0W9nqWzSDt7JwDAQ47zfzl3aPEXWOVMoIDO4k4megu+gI89UoKH/GYmeQILD9Po8NBVz2ySj845QbITmOS8nkBD8EEHugS5/EAvCKFXvTwaQSN5gks40OHMoQBLPawEZnyXhws8gx1c6eSnegkPnbAkM2fd+STBMmfO5dmCNmcdySSDDvz0syvHItTT5awpmfjhDTuYqfPbn/zK7rZALO2jng/6QLDSPgK2+EUurJx/ZRts0adPkMEP7e/8ZOyAY/yAFT52qMcf/OXZ7OEjfsGCb2ygM35p37S9oL+e2VQuaR/0aS9YSPTAgkz16Tvs6HQ6BDrYPB3WJ9GUgbdVmcG3Nc3QbpUZOrJNClsTP03CW9MMLVtmJ6KttpugZ2Vv9fGYsi3+Fjx+0nPotBW/Q+u97/Is2IIaC7AxY5GWLPraM18mUWbRFzSgy/hSpu2NH+0ucMnOpODFfWQIcpRFh36OB40xRYb60KuXp5Odkn5ADppKn3r01Y+UR6fAhq/spDM213pl8ZNOdNUuumOXerutbMoXbeCGJ36wAY082QJcZWzAl93H0JOpvGJHH5xjZ2SEh77ggh8G1UZlwToyyKt+sYddfJcElnwJvfYQcEYnG9joQ448HcGBDPmqIz5FBlyURWf6UerxCziTJzN+urIJT7U79eGhHz7xgzyYJy94hRc7yEHf6fQIbF+tT29ba7wiAgbn1mRyn1noDf6tyQRwLNkmj2Mldt/FZHGZwfu2+DjTlhYnn05zCKRfZG7ItUoJTcrgrG3QrtGHbrySM84T+/hrfexI2SiLvrWylIe/2oV+rTw6QotmF91lcsJfr2SPdl4mP3xrulO3diV/9AHdmp6UxaZR1yhHYCaN8yE6vJGzEJU/o9zQuo46lI30ETXKr7wjj/xIHzmuI32t6/vTINA7m6fBubU0Ao1AI3ByBLwqffrip2TsMNntsesjeMgu9fn5+RIAyDuP52oHzMJtl/Dll19e6C3W6ryOxK/OK2xy8QlMvTLF5zUnenT0+TkcvHaY0HgoQo8mP78DGDtPbPSzQOQILuy+4cMjeV2t3Ct7dtqJkyff1e4b25LoZ6dzh+TTSebzzz//OADhg9fB/MAPM7R2xgRcdoF90NHBRjadX2BHV/xyn+Ccn85XyvuwM/R8o8vOnF1YKX650kkPudHlija7cuyEAbvIV85X7cNHiQ5yIptf2oRvdMOBHG2sPdyjZ6crTPGwN32CPlhK9KDhd86L0kU+W8nkNz+0Ad142KlP0qcOrjVpCzT4yUKTPoEOtnZX2STBgVw2hB5ebOUH++nIbwqnfy7M/edkCHSweTKoT6PIwDKoZ5JBvSUZuCa2rQn9jOwZu/m5VfZWe0PH7pnEjq22ZCGYkb+V1uSd3YitPFvpLChbfdwqM3TacmuC3zEx3GrHXaFzfjLn+PSP/N5hAg2/myrBVL93ds4Yd2+xzu9VqhcwOJ+XgEcQ4GxezufpH4LC/OaiPiPgydk5OslJXrsLKuhMv0XDRnLY4Kxj8uwURJgnckYzAZVzeBKd7MTDHjYKfHLOMPOG+sw3Ahk45bUsG+Xz6legIvCMn/ICHjIkOmDGpowROvNbkfwQVId+Ybr4Q35kshsGwUYQB//Uy9f2o1M+fpEpj1/78MGHTcGWjXyOTHTkBkv6tEf6BKyUOdNJhjz86+9XwhpuwY4f+kh0eOWtLO3DbgFp/KRP8FexgS2deCX8bMzaIxjVHnlNzi4Y45H0oaqTzdqYTu2T/rkQ95+TIdDB5smgPo2iTHZbtWXC3Uo/Szdjz4wtJtJjys7EtsVftsykGdmzcmcwmaHVNhacGZ4Z22fafkbuQ6eFq0VZUCFlgbYAW6STV6d9BUCuAhf9VN5VH7dzJJ8gAJ0gIzLsYkUfeQIutKmnTxCZPBsEPGRm55Iuu1N2rQQQoU89eWgiQzBU/RBk0EsmW9CyM/R0ClDjFzvR0BcaNtV8sEg9GYKk5PHHzoyPYMle9lUb6IyPkYG/YkUmvamHf5XhPjrJk/CQq03Qq+dLAkFBnHxkwg7GyZNRdcZu/PjUVRvQ6xO1D6BjQ2TigUny7Ko2xM7Uk8lu7UMO+9I++FJf24cNUmRon5oX4EamPkFu2mkh7D8nQaCDzZPAfFglJgETqoGTQaNMMgkabHk1kXJ1Bq1kgBvErhYhiwSelKG5TDZ5u2TjjU6D3IRGVnSqZ7MyKTrZYKHYKtskxnb0l8lOOVoftHRHJ/1rfrLbZ5ctkU0Gu9kP38tkpxweJr5dsskMhmRrU/ZXnWsYks2GUXb1MbLZE9l4quz0E7Qpr/0qZerX7GD7TFuyO3hfJjvlsbvijV/9Q0j8Tz/b4q8AQ8KXPrWWV2Yx154SPI2vjFNl+CvOlT48te8o0w+SyNb3k5KPTuX6eU3oaz35VQd7ql94K728IK6mBCMpY2P1S0BV06gjfTA08SP5teuoc/SDnxXrsb3UJdgif01n1aEeT8WGX6OOyjP6iRZ2lae2JzvIZ2sSG2v74K15OqoM9dUvctiZNlQ/9gn1VSYan6QRu7Gfhq6vp0Wgg83T4n0QbQa4VxF1giTYALVAeI1QJ0zlI23oLUbkjYuA+pFHQOApsk7ea7IzUQh6TCwJflI+ylWeYCM0sW/NDjT8hIEgaB+tCRUmo+zRjsgRvLBbQJMy15E+8mBo8jPhpWykjRx2kJ/dhpSP9OQo45/XTJlcU46vJuVoTbTkJ11GTzYMyc5EjVZas8WET25dnC6jx6/NvTqsac0WZdoe1rEDzxptZMFbfejZVhe80N3Hq7FqbI8L8GW+euXoVbTdPLwZuzCEeRZ2V/3B+Td0Pur1j7QFGe4t3ui1Gzn4tHl2FNNH8CtDa35Bz272SHj0Ka9iyaXT+NBv7FxJ6v0rx7S1Pu4ePT3OFGr7jD9ldMqjkdTzQ51PdmgjJ/R0K6MDryub9GXX2AAHH37wTV3szNjByzZ2qKcDPRnKYGaOQSfRncCavcrhh5YOdlfs0MCTX+7pYFN2NslkN/6MFzbKk0W3cmWZi+gkAw3/2UqnPhEdeOhM4iNZsZ8MGKRPsIFfwQVdsFNOPhu85g4Nv4Kdejr1gexI0qEcppK8lDamQ33FUxkd/KI/uhbG/nMSBDrYPAnMh1Viss//LB4lZzLI/x8e62vegDOROcuSyb3Wj/cGtwloi2y8fpzZQe787t4or+YTnGyV/fTFAXNnb3K+qMoa701eFl3nm7IAjTQ17wsNXuPUc0S1fu3e2TaT275k0rTg5wzTPnq2v3nxP33Hp/81PouoSdbvFu5LWejI3mK3fmXCdr5uH4ZkW5y2tiW5HhzYsi+RazH0+4L6rmRhU/YQEp+18dakvSzS+LRb+pG8sZwFPEGQvuBDB3p0sDVXuOLXf92HJwGsRV9ZdGgXMtSTI8iR6JS0pXGPHl/aln48dCqPPjxkkoWHDWjJjcxqk3t18Rufvhk/1KtzJYcM94I8VzrYQGfybEBLRugFesmjpxM9fbEv9dHnqj52J7CsOsNDFrl4Qs8P+dBX7JRJ5Fcd1XeyE4yGPvV0kE2mKx9cq85Fwds68OMh0yc62SyQHLGTDz0aPOlD5Fbs6E0+NJEXLMyREjvI0l7aRB5/2iP18Wdh6j8nQ6CDzZNBfTpFBvDWNENLpgloa5qVvVXuLB07jmnLjOwZ2lk/0Ztct6Zj27LVjqbbjoD21W5b29k5Ng9kFlzBQh78LMZk1Ic1O1i+3CFYsIDLe1i0SNPpYRN9Fn07SXbFIiPBSnSQ75OHNvceiELPBgGPh0Y6Jfo8iHn4NdfYhfJlEwGCJHhBGx388kmeDWTSIShB7wGv1guK+SkwkfKFFlfJww/c6hdJKnbsojN+CG7wsJOPEmzww4qfwW6pvPgjT0ceOtlU/cJndy/15LO36uRn/CLXDjEbtEmCLT7BVPIAoS3Dwwd6k6cfX3ToA3aZ+YEPP7tDT2baJ1h5aNR2sRtWZIZHm5ATHYJsD7LJk0kGmwWTePmF3waAhIe++MXOqkMbaJN8SUk9m/RD+iNnEdZ/TobA9sjhZCa1ousgYNAZUDMpE+Q+HhNHJuh9tOpnFsVZ2SbKrXazZYYWhjP0aLfSz2DC7plkEp9pnxnZFlv9aqufM7Jn8Iafz1XTdfmvqvem+bRbnRf0k7GvGINJ6AV4labeo9NuNc3q0BbGcW3PfTrYWO1EP/KMfVSwkTTaqBx/xYZNNeGpOtDWPPtHLCq/+ypfHk/1o96rH3XKj3aNPAnYwz/KUD5inSBenVT9cj/Os1VH6KtvcKg61LEjyX2VMeKArvoZ+mqn+up7vcdPZ7WJH9UGNJ1Oj8CTo+r0+ltjI/AYgZkJwQQzQz9DawKsk9VjAw90c0zZBzJxVUxdiFYJ7kChfjDTF+6ASztNtAtkl83OmEDAcRLJjpZFW53+rs5OmbxgwPiyK2hnS39FQ5Zdp9Sj1ycSaNn1QuvBRCKDXjLd4489qc+xH3LwCgztlikPv52t9D3l2g+tD/lss3sp0U0HHom87G6SQSbf2ZR+gJ5OdOrdS/Jo7JKREz/lI4NudfEjMtHQIUhCQ5a8RAesatDED/5IZKiLDHo9SFbs5PFoT/SxU/uwhU719GgniV90kO1KHtvTJ9xHJ3560egDdjaDXejJ5JcED/V04fVJObnJ051+hh4/O4MNnvipn2kzNPwKtnzCS65kt5x8WPOLLWyPnXSSaaeeDPpizyKg/5wEgQ42TwLz/VCSwX4Mb2Zlz9LPTC5kz9DP0MJulv4YeM/KnMVkVn7THwcBC63AxMfibPHW/xIkCM4SzFjABRte4SpHb+GWtL86rzbRqXeNbDKVuaK16EcePnaQpy5BQjymA72ABq0PXskVvXofclwFLIILdWj4xY/4QobEPkELHa7Rrx6t5D460PMhfPEbXu6lYOPKHvx46GATe8iOXLa5D13sxO+DPvgFi/DDJHpiCxvU4xNEwYNevOiDLz52K4tPaGNnbMKbev7EJhgEL9f4muBVGflk+tAbObEhGAR7dqvzoceVH67k+Uj44lfsJNsn+IWGXRIs+MpuH/xoJbrQs8N9p9Mj0MHm6TE/qsYsJjNKDOAtyURgYphJM7IzMWyRb9KYsWWrHXTDcEY2nq3yr4Ih+VsSTDLxbqGfoSHbwsLPLAgz/LtoLQoz+B1a/y7b7nqdM3u+TGWXx2L75ttfwrJTZIen/kD3+fn58iPu+r/F3+7gG2+88Xg8PH3xpbx/+qd/WgJOuGgz5+JyNo4OwWjO59mB0la+POdKHxp5yXgno/6oux1KX3Bz7tAY9A1iOvU/yZV9+VFw9fp8ftxcIOFb33xOACTwyJfVEnSgJ0d65ZVXFnk5synYdiYwv9toR8w9OyW42IkLdrCSp5Of/OL7W2+9tQQ/7EMTG8lgo7ODwYotgr74hd8nPAJEspNPcJb2JBO9HzaP3c8888wiL2cbtQ0d0WnHUpsEGzui+kX8Yrc2oBMfHNF/5CMfoW5JdDgLmTOb/kuP++ggj4z4RQe56QP8gmfyhNLDBoEjXjuy+kC+xKoP8SlnL2EHGzQSneRGJn36mfZB6zwp+k6nRWAucjitba3tighsXbivIn5Gtsl+Js3I7snik5GdxfuTJdxMySHaMsHIzXhw+7VatGsy1sayWu8eTX0AHMfnmMczykxAqU4aeUb6kWasxz/TX/CPOsf8qFN91btGj6emShPMalmlda+u1o/5EbeRPzLWylNW5aesXquPtTz3sWGXnNHuMR8sItN1lDfaUWXkvtLU+zV5o/wtflT7+v44CPTO5nFwvTGpBtrMZDxj6KzscdDv0nVM2bv0XlZ3TAwv03ndcpPwsQLOcYK/rq2Vf7afVN7c273o9MkIZDfKjp6P3S/JLrVF2E6V5N5rSDtPAnd5fQlddrT1ATTkuLd7ZBcwgb6dU/qyY4hPwhNePFUnGjaRkb5LTnaj1KOPDrLQ2WlzZQtbc05Rng1e9RrD7qMDPVr9DX30KaOTHnV0JJFBpp3EYIcWT+jl8Ywy2aCO7z6hpwMOUvySd08HnfynFw9ePlTs2ENn6PFEbnxEQ38Se7ILyHfYoI1f5NMbO+lVhg/eGWOhJxc/28hDn/aJX3josUspoWXnZX6hoROWeMhNO0a/+uirMtmlnN9oYyd9sMRHVmzA2+l0CPQMfTqsT6LJgDegZtJWeoPWYN6a0M/IziK1Rb7JZMaWrXbQbQKdkY1nRv6sbPK3JJhkkt9CP0MDE7Jn/NwqX5+dwUS/6rQNgQRJgg79w8/pSPJwtCC7qrPAe1WZ15fKQ49H0CBIME71B0GIdkOnX1jM3atLP4l+i71FPgESeWjJE8joWwmElEn6BZtqQEunRD4+8snxqpVeH77xC416MvhBB1q+5ktAZOFhu3I6KyZsSsAaLOTJIRcPHWzGl37MBl9ciU/o1JNPH3plSfwKZnjUwQyPK50Vu+TZRCffyCUHHfv4BHP2SeylAx3s2Eh2/HIfnfjdxy/0bGdX6MlEQ0fsRY83vrAhbaQs/sevtI+8xBc+pM35hSdy3fMjtuBRJw+39An2kMlXddGDnr2dTo/AO7399Lpb4xURMJgNoLWUQX5ZfeXJpLBLXqXP/RbZaMmVttLP0PJzq93Rjz42LYbt+LNVdkTQET0pW7tG/xba8G+VbWKWtshmRyb/LfRZALfQopnBD+1WenQJcGKLa/p9MLuvV74msNjio/N7zqo5FydAyblDwZZFXV2SeucMtbUgQtDy5sUZz4w15ww//vGPP7FLJZ/fSHQG0GKf31gUaAhco9Pir/2iU0AgCKATn4TGmU1Bb/qR83upR8M+ZxMl5ynJSZ7d7MSjnwgsBEfOnkpoYwM50rPPPvvE2UYBCp9yDhG/+/xeKOyU5WyjoE2bOCOYfohGXtBEnrOM8ZtOdM4dBju+8jF+sFtQlX/QoC3oiQz3fIlfZMISf8428lP7OKspsdEnfjjbSE9k6g/wj1/46eUHPtj6VJ3+cYczuzknyib56IADnpzZpEO7RCf52iF5dvKbztjNL+cxszuK3pnQtA87JTwSnfoy3yX12lg/pLvPbC6wnPxPB5snh/z6Cg3G97znPU8M0Aw4A9OANglIKXefibCWZ2Ca6PbRmuBmZbOHjqrTfWyJTnQWp6SUV1r3Kc9Tq6faWu4+slNuAmR3UmTIj7TKgskW2ejZYhLzkdbkp0zbmWDxVFq8oWGTxUdC70sQWRgrzULw9h/l5JITX9doI1sdOrLxpJy4aos82ixurknKK36RwXZ2pw+mHN8afXZpItd1tD15V+1DR+zED58qu8q6T/fxWwCzLyXoQGcMVB736WORA8PgrA6urikXNFSeEXO84ScTfdWpfWobJV/L8FQZdNSUvpoy9vBtV6qBKtkjvfwunSMPn0YZ7Kqp4oS/4oBupA8WkYEfFklkCPhqGmWkvdCg9yEjQZvyijWbRh3VLzbAP75EHjlJ6pQnje1FfvjRuK86lY1+1H7FRn5V/Eas0FcbRjvxK/OhX4BdcWBDp+MjsHuUHl9/a7gCAhZb39p83/ve93iQZfAIOAyqfDMv5dQol1KWvCdRE1LKF6KLP6lPueDEYN0imwz8nng9gUbGLtl2CzyZ41ujr2UmRTsDnnBrefS6plwga0LbZXel56OFeu0JeMQEn8nMU7TFIDqVSyO9idETer6tWelHWvwCXrItmJV2TbZ+QUa+HYwmaU22gHCr3ewQaGaHInJdR9lZINbwXqPXr/a1T3zXNj52fLIoZRcITWyp9t2nez7rb8Fjl2/oBPz6P8zk3UsWfGMoeWVkK9d+6tC7+sA1ZdGNntzIwKsseXLcJ4/WGKn5+JNgQl346NQvyMUrpY0jQx265GNrMMJn7NR6NPJ0S2T4hCb+JR97an7Ekp3qwxu8yGdDpVeGvtqtDG90uFabRuz4ULHGn/ZJUEp+bI98cqJj9JuNlR4PHcF0pFcfG7PrOPrFhqozNsaGNT/oJDeJXejCE5uSp2PErtLHhrTBV3/1Vy9+Rn5fT4NAB5unwfmgWgzoL//yLz/73d/93SeeWikREBiMXt/sSxmkJoot9ORKW2jRmfRM9Fvo2WDCyKSFf1diC/lbZJvsYBYdu+SqI3ur3aEnG8++dFXZW3Ch34S6hTaT+Va7yda3XLOgXuYr2fDe0jZkkDnTljBkdxZVD16/93u/d/Yt3/Itl5l0b8r3YV8d1e+dG3zxxRcfn6dUJnko9QDhSqa2ks+CjEb+qaeeWurNFV5Zo4c/eg8r3kbAnwwPDR4u89CTBxQPA+gFAOiff/75JdBiizI68QseyPfK008fRaa3APTrU+hd6ULvqowO5fFZOR59ix1eY9MjmIp9/JA85OrbGQvu2UEWenm24Jf4TWbkK6M/tsiz2et8fMZDfgKIjWxCq07elQ4PuGTTST99rrBTRuYLL7yw0NOtnu/qXLWPe9hJ/GLnOGb1Cbzq8NEvsSFtKp82zgMLnbCDZZKjE8pgZ8OCX+Qql9L2aQ/+BLvaJ1IfvzKHaGPyn7742S308CJT27j34YMr2ejV8899fIONPN+1Cz2dTotAB5unxfsg2gwuvzVmYhlTBuFYfoi8AWpQb01syWDfx0P2VlqyyD5WmvVzxo5jTnL6RRbQGZu20OprZM+00Ra5aGbaEn4jhj/wAz9w9q53vWurugdF5/cfLdzO2Qkmcn7SomtxrmflLOh+U1E7W6zhnPN52khwbyfcoi+ht4ueXXq6BDbZWRdUCF5yBlBAYd7K7zTqU5//+Z+/1OfBga1+91HgQqfAwA45uRJ+9mWH3VlU/T676PjR5sxmgo83L86eSmjJ5HfGijI75fk9SjbxIb/jCCs00Sn4Eci9/vrri0w6BDN0Zny8/PLLiw628NM1NmBig6AwWDnOImDLWUdBueAyZzjl+fbBD37wsU5BfpXJHzbU4xP4015shHN0wo7c/HZnAsXopMiDinp89Hv4qDqVa/+c2Tw/P3/8v+bxwwpfsNPnBKLBjn52Obeb5Lc7+cFufRCm+mHtA/RFZx520gfo1NeTp58cOn7mZ35mCTqjq6+nQ6CDzdNhfTBNJmETww/90A+d/eIv/uITcseF+InKlYyBnAlypfqJogz8JwoPlCE7k/8WkSb/mcB3htbisBWT2DpDP+Nn5G+5JiDYQjtLQ/YMhjPytf11ZFu8Zvv9jH13mdYuT/qmxToLtsBGQJk8H9N/BBDu0cA1V/22yrCIa7fIwFfz6PGmXh2e5NlFPr6UuSbPBvXKUq8sdrAZLTmpVxYbXM0TCfbUhRZ9xmFsXJOBZ9SBLh/1dPgoC9ausZMd8Ql9UuyUT/+NDWyqPGj5nno+BZvIUxce9ZEbHvmqE62ALvWusRmtIJpfKRvbCk30RYYyqearztynnuxg94jzEZ7RyY8RC2WRgyeYR6ZrlQk3ia0eAoL1Uth/ToZAB5sng/pwigwWE8Grr766nMnKt/CuoiED8Sq8zfMIgUx2jcfVEbjOAuAVZbfBOvYeSn/2Z3/27Ed/9EeXoMG8IVmMjX0BpwT/5F0TzLjHk/YRLMJa3gd/ZJCpLDrI8EkeXXjoTL1yeiI3QSxaMsOHB50yMtFHRtWBhgwpsu10oVfno1zAIkVm9ESnvCRf/ZCPDPXRwYYqM/zRGRsjk42VRj40VWbo2aAcLmiDg/pgV8voVR6e8NOxhh2ZoSGTHonMeo2NytawqzLQVL/Qpw/Ua2xCH/+CZaVLPZuCnXs0sUuenuTj/3d+53cuu9V2jDudHoEONk+P+UE0GlwW2W/4hm84+7Vf+7XHMg1QdVtTJqkt9Bn8W2jRzMieoSXb0+uMnyafrckT8Aw9O2ZsMRkfI+WJ/hiyYWLy5qe2OnSawa/q/+7v/u5lgc/Cc2i77ou87/3e713OeHttKeVcm3za1OvH84vXoPDVR70qdu+Dxitxwat5QJm8QAKfpE4fTF6b0ON1Oh55r1GdyYxOMoy1zFt0ShnfeOmw0yXFfld8uaKTBBp0CC4lNO6fvnjlnz4m2GBX5rP8BBCdEpvUe70r4ScnQYo6H7okV3bQkQQDZx3pCG8CqmDH5mAFOz7GP1ihVy7BgF/PPffckk97VL+87mdrsGMvGfJ04mcP//DTRS5fJDrxo0uiP32CH+yt8xcdyuw+xi8641dkRyYdZKJhS/oEP8hXph528FCmT8QPdsGND3RKZPOHLPR8YGP6hDrHbN773vc+bsOFsf+cFIEONk8K92GVGdzO0Dgr5SyVpMzgOlaqE80+HWzZmtDOyj6mn8eSPYPJVuxCd8y2P6bsBBLxY9c1+FlsfEnum7/5m5fFZRdP152dOQcHu5z5c14Phjk7ByNzSc4yWtzf/e53L/T4LOJkqM9P6QgQnP/LmU3nKQUA+Z1NgYgA6M23z0sKIsYzm84qOiPoYUYSILDJeUk6nZ90zjT1zue5zxlA/IK9nDsUPDkPKS9wEeyw/wMf+MAiXz27nQtNv/O/0Z0RjB/4nd/M7ziaX+nIeVfYKQuWsJKHDV3mDvR0eE3tXpAYeoaw29nKnJ+kE23ObMIBdvFLYAiLD3/4w4sfdDo+knqF/HAuMWcZBfXWhZxFFTwLPOMnfnpyhlZ/EHjnnC4/2C0Pc8GcLyhVP+hgc/6vvD4Et/gFF5ikvejgx2uvvbb4wS806SMK65lNa4JAMX1CvT7Ep5yplacjv0mqfbR73vi5/47v+I7FN/ydbgaB7ds9N2Nfa92BgIFoQfj5n//5s6/6qq/aQdlVjcD9QuBHfuRHzn74h3+4A82NzSrw+67v+q5locey9jA1llnABWe70sgz0gq0BI0S2tyHbuYBMzyHvu7zYYu+KmMfZuSNOIxlZFSZazasyViju6yM/F06BJfqr6vnMv1XLR/tkb/MDw843/M933P2JV/yJY93ia+qt/muh0AHm9fD78a5TdaeWL//+79/sUXeE/1MsqhsSQZ1dgO20m+VbbKYsfuYixQ/Z2zh44yfW7C7Co0FKjtAV+HfxUN2XsftortKnbacwe9rvuZrzr74i7942TG6bJG5ih13hecqPuvTdqF++qd/enFTP9GeNaFJMs7tUuZVpfKx/St9+MarXdBdY2n0xe5e6C8bV5WHnaGP7rEv1blC3eg3H+u8VuWTqa7Ww27XOCOPTeFZ00nHqCf2u8Ih/Cmvfigb82yqvo966attRn5tX/RVJxvQp2yUxwZYVvyrfPXkV5vQjviPPDVPNzsq3uRVGnoqFsHejqYHrG/8xm9cXsOj63RzCPRr9JvD/iCaM2HZufjN3/zNs7/6q786++M//uPlFc4WBXUi2Ec/QxtZMzyZ1MK762qyqZPcLlp1M7QwnbE7bbDPhtTP+DljB9pj0cOvTujx5VDXfXZ7/XZ+cZ7Q68dv+7ZvWwLNQ+m+S3K0gQXcjuFs0k+9hv7lX/7ls/e///3La0Y7P36ChzyvI9GQ7+pVrd/EzNjxytO4039D77ycV7HaTxup9/o3yYLPZvTu1QlA0aP1KjcPSQIKu2lspN/Ha9086JCZ17J0oicTnVevrmid2SPfRz0egbYgBw2fvUpXL8mjcc4wfnkt7DUt38mABToJDR3OFdLHZvMvPxMUsY9NGetwQo/Gh19eo+csow0D9uCjk510nF/0efR0eD1MhiQPOwkf39DnZ4Dw00EWG2Dt7KO8NtDG2pNfsJH4wjc60EcHnxJ44gk9Htjggx16fYgPPuziHx3wkWeXMr/ViS91NQDVFsGS7vjFJvz88Ko+vyeKPnihhzuab/3Wb11s4lOnm0egW+Hm22AZ2AaXicCAukoycPE6x+a30b7sy75sOUtjgDvD84d/+IfLYI/s6DFZmBgMegPWR2JLUspNEvSYOKTIcF/pU052Fq5KzyYfKbIz8W2VzV480Ruda7JNgmyxGFad7sPvPjLQmlxTl/LL6NlSF4ldGLI5C1DVeZlsE61FLjyxZc1P7WOyRRtcyZXiS8rJgQvZZEUu2io75WSbtMf2qbSRrS9nESEv5e5jh/vIhgnMI9uZLsEAnXgtHBYnixybyVfeaR4BmAsmnBG0wDsv+Tu/8ztnf/qnf7oEDM7fKYex9vBbhdoY3gIiZ/GMaXL0efn6/731v5zf01byzuuF3vyRc4nK9L/6X6wELc4URgcZ5CcY0a/0ITzsQs/WnBMlX3/Bo16/EqQ5z4cPrX7MpvRFecGL4JKfxhy/nAskQz9MGcQTdNLBBza5VpkCPX7GD/Xoyfdhp3k5dle/6OC3ccEO9PxgBxkSe5Txi40+oTd3SWQES3lyzA1k8l3bkJHz/lUHWjabM/kFfzhFJ3kSbOEkcEavXvvHTv6zg06J3ehg48pm19Cj0X7q+ZE2xF/nQO2Vs6jkk+Hj5wA9kAqo0cO50+1AoIPN29EOy0AxOAyYqyYTqY+B9nVf93XLZGICtWh80zd907Vkz9pkMpvxZYZ+hpbdM/QmN8lkuyVpM5hvSbOyt8ic8W2LvFkaPrFhKwZb5FugBDZkuk+wnQVwi4z7SqO/WVxhftUER9j6COp//Md/fDnTZhfTl2D8di8dAgMBhkADjzyeX/mVXzn7y7/8y+Wc+I/92I89Hudoa0L/nve8Zwke/L7hz/3czy38mRdiQ3jMUb5gIgj61V/91aUYbT4K3Otz3/d937fIEnD80R/9UUQsV4Eb2TBity+HeJX6W7/1W8sXaNilPEmAJCgh+yd+4ieWAOoXfuEXFpr4XX1DK9D2c1K+lPOTP/mTj2nJkOAXHTD+9m//9mX3FK0Un0IfnL/2a7/27Pz80Q7+r//6rz/+Mg9/whN+eAlWjRG+xW/16NnJV3j+1E/91BK8/cmf/MnyYEEWv32S8KD/pV/6peULU7/927/9uL3Qs1F9TfyxU+3H0iU++8Qv8sk1hgWC1iZtm/rQJk8GTH3xT9D6G7/xG4uNfMtOZuXxXYUf/MEfXALL6gs5VaZ8p5tF4FMuBu62A3s3a+e91m6wev3tCdJAOkTSrGS5GnTdzIdAtWWcEoEEC+nDh9BNlt0U5z7v4mJkx+d973vfwcdz5gpzkIVdElwIVJIEDXkghqHdKAt8At/ICL1rAph8czgyQjPm7aTZtUpak6nd6KTb7hcadiWNPHQIvMyz0qhTnjx9wz2/szuInjyf+Em/fOTQPeqMjfglmFaZVaf6Si8wyy5rdI409OER/FVs48dIL29nVMCWtQC/FB2RKc9eeFW70I55uJKXfjLWkymhITM71KPO2n5koM1/Qhr7YZVJtsA/KXXJX/fqbYo3hZ2uj8CTj6LXl9cSroCAgWjwHXKgRJZrJpcrmNYsjcCNIWDRkdKXb8yQB6A4c4Qd5a1phjZHWLbInqEV7GxNdhu3JsHOodOMzBpA7bNjBq8ZuTN47bMx9TMYzLRt5Pf19iLwaDa/vfa1ZY1AI9AINAKNQCPQCDQCdxiBDjbvcOO16Y1AI9AINAKNQCNwHAT6rcrhcO1g83BYtqR7gkBPMPekIS9xI+fFLqm+k8XdZ+9ks7XRtxyBnBu95WbeCfM62LwFzWShmDnLcgtMvtcm5PzavXbygTpnrPkyQ77QcNdgyDnW0e7usyMinW8EroeAuaLPjV4Pw8rdwWZF44bufdvOtzs7NQKNwPER8FNgd3UR8S3m3sU8fh9pDXcLgWONiZkvX90txE5vbQebp8f8kzRaQPJDwZ9U2QWNQCNwUAQsIMdanA5q6Iowc0WnRqAReBKBY+zseyDtTaAncb5OroPN66B3IF4Lnx+7dT3GoDmQmS2mEbgXCNzVV+jA97uK+ZH7e9EY7UQjcIsR6PX4cI3TwebhsLyWJD9QnH/Xdy1BzdwInBCBu7ZDyN7xv6CcEK5rq3LkZub3La+tsAU0Ag8UAfNE72wervE72DwclteSZBEUbN61xftaTjfznUfgrj35G1/eItzl9Dmf8znLf7m5yz607Y3AbUbAvOZLu31s5XCt1P9B6HBYXlvSZ3zGZ5z97d/+bb9KH5DsAT8AsjHrJ37uWjC40bUrk1lA7vr5aLstHkw/8YlPXBmH+8jom/p36WHd2Lwt9vZc8eSI8O8zrcd39YuET3pzO3IdbN6Odlis+LRP+7QzX17493//91tk1c2aYkL2v5LzP3Vv1pq7pd3RjPq/q++W9Ye31llNC8hd/5kxr9I/+7M/++xf//Vfl/9VfXik7p5Egea//du/nf3nf/7n3TP+hi32bymNCw/1/XD6qDH0p8/93M+9NQ8DN9xFDqK+g82DwHgYIZ6i/O9ak+Zlv6d3GE13Q4qny7feemsJNm/LDsDdQO6RlRaPL/zCL1x2wR76IsJ/QSY87sPYcm7zUz/1U8/6R6fPlvb8+Mc/fvYP//APHSxdcYKy5jz33HMdcF7gZ5f3hRdeuNNnu6/YDY7K1sHmUeGdEy44eOqpp87+7u/+bo7xHlLDwg6vnQr3neYRsJP3L//yL8tu+Tz3/eIQbCbwvg+eCTTtRnkYe+jjw8ODfi49dCyu2rfNs94g3fXzzFf1v/J5G/QFX/AFtajvD4BAB5sHAPGQIpzF+rzP+7yzv//7v78XOzDXwcYiYkfzoe/KXRVDT+j3YRfvqv5XPuc0n3766XvzWky78uef//mf+4jJRUMLEP7nf/6n54ra6Tfem18dzVg7XvLQ5l9zpkDzLv9ixcZmPzlZB5snh3y/whdffHHZ0fOk+VCTV+gCBLs3XvF0mkfAAvxZn/VZDz5gt5j6BrezafcpOXLz/PPPn73//e9/0A8VAgRnWLXz//3f/92nJj6JLx5cciwDljU9pAd9vvvehGCzj23VXnCY+0+56Ez/7zCiWsohEXAG6S/+4i/u7P9wPhQWXovd5R/hPhQOV5Fjt8IE+pCHuIcW395+73vfey93K/j353/+52f/+I//+KB/Dklw0Lv4V5klHvE89HkiyH3FV3zF2Wd+5mcm29cDItA7mwcE85CidHhP634KyUT6UJ+0LKa9iFytZz30BUSQ7Wzjl37pl97LQFOv8DDmTch///d/n/3Hf/zHg50ntLW54qHOk1ebIR5xPeSH0eCm37z88ssdaAaQI1x7Z/MIoB5KpJ/78YrMtyw74DoUqi3noSDgGMG73vWuB7GA+DLdn/3Zny3nFjvgeig9vP08BAIeUnwxV7DZv6t5CETXZfR/EFrH5VaU6vivvvrq8oWhW2FQG9EI3BEE7Nb4As1DeSXmi4UC67UvedyRJmszG4GTImCOsInjVypeeeWVDjSPjH7vbB4Z4EOI/9///d+zD33oQ8s31A8hr2U0AvcVAUcHnNH0O3l+lPkhvRGwePqh97/+679efsbmIfl+X/tz+3UcBMwTjqCYJ5555pk+fnEcmJ+Q2sHmE3Dc3oyt/o9+9KNnb7zxxnI26fZa2pY1AjeDgDHiG9rvfve7zz790z/9Zoy4BVr9BJCA05eG+ncnb0GDtAm3CgGBpqMmX/mVX7nME/1Qdprm6WDzNDgfTItvqX/wgx9cvgxAaJ/POhi0LeiOImBHL//C8aWXXupXyRft6Lz366+/vnzBMD8H1HPFHe3gbfa1ETBH6P+uvnjrvyU5etLpdAh0sHk6rA+m6b/+67+WV+r+01AWkoMJb0GNwB1CQJDptbnFw2+K9i7FO41nYfUbtX743T+JyFzRQec7GPXd/UbAGLCT6fsPfrPZP0xxjvu+/ebuXWjFDjbvQitdYqPdC6/K/Ms6/yPZa8ROjcB9R0CwZPHwA8zn5+cP5ktA12lXD6gf+9jHll+28DNJfrtWYN6B5xyq2R2b42rqUyNgLfQg6hiJIzXPPvvsspPZD6Onbol39HWw+Q4Wd/ZO0OmnT/x/YIvKJz7xiWUXw4DrxeTONusmwz213+QEaufA51g26L98tBPhp4ycyRRk2qXwH6Y6zSHgy4Z+j9MXiVzNF/A1V7huCabSJhZyPLsSWrK39g/yttLqd+TvSrEVzSFp2civLXLRxFY2uN+VZjCYoc043ac/9fvwil+uh6YNPlvwin5tIsD0IGqe8JrcXGGe2GJfdPb1OAh0sHkcXG9EqknCBOh1mQDUDobFJa/PbsSoVnpUBGYWhmMYckz9Fgg/5ePjx9ktIhYTi0ovHtdrzcwVmSMELXY7t75eNM9oi7T/ZdZop63BJlo27PtSEzp62Yx2lw2Vdl8QG1ry3O9K6unfRxcZMGBrdKR87QoD2G5J5nnjYksiF+0uvCIn9iZ/2ZUsn33Y4g9eWzCL3H3tG7lks4F/HkrNGVtsusyvLj88Ah1sHh7TltgINAKNQCPQCDQCjUAj8DYC/aPu3RUagUagEWgEGoFGoBFoBI6GQAebR4O2BTcCjUAj0Ag0Ao1AI9AIdLDZfaARaAQagUagEWgEGoFG4GgIdLB5NGhbcCPQCDQCjUAj0Ag0Ao1AB5vdBxqBRqARaAQagUagEWgEjoZAB5tHg7YFNwKNQCPQCDQCjUAj0Ah0sNl9oBFoBBqBRqARaAQagUbgaAh0sHk0aFtwI9AINAKNQCPQCDQCjUAHm90HGoFGoBFoBBqBRqARaASOhkAHm0eDtgU3Ao1AI9AINAKNQCPQCHSw2X2gEWgEGoFGoBFoBBqBRuBoCHSweTRoW3Aj0Ag0Ao1AI9AINAKNQAeb3QcagUagEWgEGoFGoBFoBI6GQAebR4O2BTcCjUAj0Ag0Ao1AI9AIdLDZfaARaAQagUagEWgEGoFG4GgIdLB5NGhbcCPQCDQCjUAj0Ag0Ao1AB5vdBxqBRqARaAQagUagEWgEjoZAB5tHg7YFNwKNQCPQCDQCjUAj0Ah0sNl9oBFoBBqBRqARaAQagUbgaAh0sHk0aFtwI9AINAKNQCPQCDQCjUAHm90HGoFGoBFoBBqBRqARaASOhkAHm0eDtgU3Ao1AI9AINAKNQCPQCHSw2X2gEWgEGoFGoBFoBBqBRuBoCHSweTRoW3Aj0Ag0Ao1AI9AINAKNQAeb3QcagUagEWgEGoFGoBFoBI6GwP8HE0QBV+l9ioEAAAAASUVORK5CYII=;" vertex="1" parent="1">
          <mxGeometry x="259" y="1140" width="285.48" height="217" as="geometry" />
        </mxCell>
        <mxCell id="ijLZN3aR-J_GT7r1RHbC-60" value="两台手机屏幕尺寸一样，屏幕分辨率密度不同。" style="text;html=1;align=center;verticalAlign=middle;resizable=0;points=[];autosize=1;strokeColor=none;fillColor=none;" vertex="1" parent="1">
          <mxGeometry x="271.26" y="1390" width="280" height="30" as="geometry" />
        </mxCell>
        <mxCell id="ijLZN3aR-J_GT7r1RHbC-62" value="图中是单位为dp的表现，如果是单位是px，那么右侧的“a”会比展示图小" style="text;html=1;align=center;verticalAlign=middle;resizable=0;points=[];autosize=1;strokeColor=none;fillColor=none;" vertex="1" parent="1">
          <mxGeometry x="192.26" y="1430" width="400" height="30" as="geometry" />
        </mxCell>
        <mxCell id="ijLZN3aR-J_GT7r1RHbC-63" value="所有就引出一个究极问题，多分辨率下适配到底是怎么样的。目前的适配方案是依据宽度等比例适配" style="text;html=1;align=center;verticalAlign=middle;resizable=0;points=[];autosize=1;strokeColor=none;fillColor=none;fontColor=#0000FF;" vertex="1" parent="1">
          <mxGeometry x="147.74" y="1630" width="550" height="30" as="geometry" />
        </mxCell>
        <mxCell id="ijLZN3aR-J_GT7r1RHbC-66" value="几个前置知识点：&lt;br&gt;1.ppi：Pixels Per Inch也叫像素密度单位，所表示的是每英寸所拥有的像素数量。&lt;br&gt;2.dpi：Dots Per Inch，表示每英寸所拥有的点。&lt;br&gt;2.物理分辨率和逻辑分辨率：物理分辨率即为屏幕上所有的点的数量。" style="text;html=1;align=left;verticalAlign=middle;resizable=0;points=[];autosize=1;strokeColor=none;fillColor=none;" vertex="1" parent="1">
          <mxGeometry x="192.26" y="1040" width="450" height="70" as="geometry" />
        </mxCell>
        <mxCell id="ijLZN3aR-J_GT7r1RHbC-67" value="Android逻辑分辨率一个问题是：相同的逻辑分辨率，不同的物理分辨率的两台设备，显示的样式会有不同" style="text;html=1;align=center;verticalAlign=middle;resizable=0;points=[];autosize=1;strokeColor=none;fillColor=none;" vertex="1" parent="1">
          <mxGeometry x="70" y="1470" width="580" height="30" as="geometry" />
        </mxCell>
        <mxCell id="ijLZN3aR-J_GT7r1RHbC-68" value="&lt;font color=&quot;#cc0000&quot;&gt;问题，当前方案会造成模糊甚至样式错乱，因为半像素问题&lt;/font&gt;" style="text;html=1;align=center;verticalAlign=middle;resizable=0;points=[];autosize=1;strokeColor=none;fillColor=none;" vertex="1" parent="1">
          <mxGeometry x="750" y="1390" width="340" height="30" as="geometry" />
        </mxCell>
      </root>
    </mxGraphModel>
  </diagram>
</mxfile>
